{"glyphs":{"0":{"ha":815,"x_min":81,"x_max":760,"o":"m 714 376 q 676 229 703 300 q 604 103 649 157 q 495 16 559 48 q 345 -14 431 -16 q 209 22 262 -12 q 126 112 156 57 q 89 236 97 167 q 90 376 81 305 l 127 612 q 165 759 138 688 q 237 885 192 830 q 346 971 282 939 q 496 1002 410 1004 q 632 965 578 1000 q 715 876 686 930 q 752 752 745 821 q 751 612 760 683 l 714 376 m 258 444 l 601 675 q 601 743 604 709 q 587 806 599 778 q 550 852 574 833 q 484 871 526 870 q 400 853 435 873 q 344 800 366 833 q 309 725 321 766 q 290 642 296 683 l 258 444 m 582 539 l 239 308 q 239 240 237 274 q 255 179 242 207 q 292 134 268 152 q 357 115 316 117 q 440 134 406 113 q 497 188 475 155 q 532 264 520 222 q 551 347 545 306 l 582 539 z "},"1":{"ha":815,"x_min":173,"x_max":625,"o":"m 458 0 l 298 0 l 434 784 l 173 692 l 199 840 l 612 987 l 625 987 l 458 0 z "},"2":{"ha":815,"x_min":5,"x_max":728,"o":"m 649 0 l 5 0 l 24 117 l 385 463 q 439 517 410 488 q 495 577 469 545 q 539 644 521 609 q 563 718 558 680 q 561 774 567 747 q 541 822 555 802 q 502 856 526 843 q 446 869 478 868 q 370 857 403 870 q 312 820 336 844 q 274 762 288 795 q 254 688 260 728 l 98 687 q 135 816 104 758 q 214 916 165 875 q 326 980 263 958 q 460 1001 389 1002 q 571 980 521 1000 q 657 924 622 960 q 711 837 693 888 q 723 724 728 786 q 694 620 718 669 q 635 527 670 570 q 560 444 601 483 q 481 370 519 405 l 227 130 l 670 130 l 649 0 z "},"3":{"ha":815,"x_min":33,"x_max":743,"o":"m 294 567 l 380 566 q 452 576 418 566 q 512 607 486 587 q 555 656 538 627 q 577 726 572 686 q 575 784 581 758 q 555 830 570 810 q 516 860 540 849 q 458 871 492 871 q 396 862 425 872 q 346 834 368 852 q 309 789 323 815 q 288 730 294 763 l 130 730 q 166 845 136 794 q 242 931 196 896 q 347 984 289 966 q 467 1001 405 1002 q 581 981 529 1000 q 669 927 633 962 q 724 841 706 892 q 737 726 743 790 q 718 652 734 686 q 678 591 702 618 q 623 541 654 563 q 557 503 591 519 q 614 465 591 488 q 651 413 637 441 q 670 351 665 384 q 672 282 675 317 q 635 155 666 211 q 555 62 604 100 q 444 4 507 24 q 314 -14 382 -15 q 199 7 252 -12 q 110 63 147 27 q 53 149 73 98 q 36 264 33 200 l 194 264 q 225 158 191 199 q 327 116 260 118 q 398 126 366 115 q 455 160 431 138 q 496 213 480 182 q 516 281 512 243 q 486 397 525 357 q 374 439 448 437 l 271 439 l 294 567 z "},"4":{"ha":815,"x_min":15,"x_max":732,"o":"m 611 351 l 732 351 l 709 220 l 589 220 l 550 0 l 392 0 l 431 220 l 15 220 l 29 326 l 554 987 l 722 987 l 611 351 m 201 351 l 453 351 l 531 773 l 508 739 l 201 351 z "},"5":{"ha":815,"x_min":73,"x_max":794,"o":"m 142 492 l 280 987 l 794 987 l 768 842 l 388 842 l 317 608 q 389 637 351 627 q 467 647 427 648 q 586 618 537 646 q 664 545 635 591 q 704 440 693 499 q 709 319 715 382 q 673 185 701 247 q 597 79 644 123 q 488 9 551 34 q 351 -14 425 -16 q 237 8 288 -12 q 150 66 186 29 q 94 154 114 102 q 73 267 73 205 l 224 267 q 235 208 226 235 q 261 160 244 180 q 303 128 277 140 q 362 115 328 116 q 440 132 407 114 q 496 179 473 150 q 533 247 519 209 q 550 325 546 286 q 549 395 554 361 q 528 455 544 429 q 485 498 512 481 q 417 515 458 514 q 338 502 373 517 q 271 458 304 486 l 142 492 z "},"6":{"ha":815,"x_min":68,"x_max":704,"o":"m 659 992 l 644 853 l 635 854 q 501 833 561 854 q 395 774 441 812 q 315 681 349 735 q 259 559 281 626 q 352 628 300 602 q 465 653 404 654 q 579 623 532 652 q 654 548 626 594 q 693 445 682 503 q 699 328 704 387 q 664 194 692 257 q 590 85 636 132 q 483 11 545 38 q 347 -14 420 -16 q 213 23 268 -12 q 125 113 158 58 q 80 236 92 168 q 76 373 68 304 l 84 436 q 142 652 100 551 q 253 828 184 753 q 417 948 321 904 q 637 992 513 991 l 659 992 m 419 523 q 363 515 389 524 q 314 490 336 506 q 272 452 291 474 q 239 406 254 431 l 233 359 q 231 310 231 336 q 234 257 231 284 q 245 206 237 231 q 268 161 254 181 q 303 130 282 142 q 355 117 325 117 q 430 133 397 115 q 487 181 463 151 q 524 248 510 211 q 541 323 537 286 q 540 391 544 356 q 522 454 536 425 q 484 502 509 483 q 419 523 458 522 z "},"7":{"ha":815,"x_min":104,"x_max":812,"o":"m 797 890 l 277 0 l 104 0 l 621 852 l 127 852 l 149 987 l 812 987 l 797 890 z "},"8":{"ha":815,"x_min":65,"x_max":760,"o":"m 755 732 q 737 658 751 692 q 700 596 723 624 q 647 545 677 568 q 582 505 616 522 q 671 406 642 467 q 695 274 701 345 q 660 151 690 205 q 582 59 629 96 q 473 4 534 22 q 347 -14 412 -15 q 233 7 286 -12 q 142 61 180 26 q 85 148 104 97 q 71 262 65 198 q 90 346 74 308 q 132 415 106 384 q 192 470 158 446 q 267 512 227 494 q 192 604 216 549 q 172 721 168 659 q 204 839 177 787 q 275 928 231 892 q 376 984 319 965 q 497 1002 433 1003 q 606 981 556 1000 q 690 927 655 962 q 742 843 725 892 q 755 732 760 793 m 539 283 q 536 343 543 315 q 514 394 530 372 q 472 429 498 416 q 413 443 447 442 q 343 430 375 444 q 288 394 311 417 q 249 339 264 370 q 231 271 235 307 q 234 210 227 238 q 256 161 240 182 q 297 128 272 140 q 357 115 323 116 q 426 127 395 115 q 481 162 458 140 q 520 216 505 184 q 539 283 535 247 m 595 727 q 593 781 598 755 q 574 826 587 806 q 538 858 560 846 q 486 871 516 870 q 424 859 452 871 q 376 826 397 847 q 344 777 356 805 q 328 716 332 748 q 331 662 326 688 q 349 616 336 636 q 385 584 363 596 q 437 572 407 572 q 498 583 471 571 q 547 617 526 595 q 579 667 567 638 q 595 727 592 695 z "},"9":{"ha":815,"x_min":114,"x_max":738,"o":"m 182 134 q 314 150 256 133 q 418 202 373 168 q 496 288 463 237 q 550 407 528 339 q 461 346 510 366 q 355 326 412 325 q 240 356 288 327 q 164 430 193 385 q 125 534 136 476 q 119 652 114 592 q 154 786 126 722 q 227 899 181 850 q 334 975 273 947 q 471 1001 396 1003 q 567 982 525 1000 q 640 936 609 965 q 691 868 671 907 q 722 785 711 829 q 735 693 733 741 q 732 600 738 646 l 726 547 q 669 329 709 429 q 560 155 628 229 q 396 38 492 81 q 174 -5 300 -4 l 158 -5 l 173 134 l 182 134 m 396 453 q 451 461 425 452 q 500 487 477 471 q 540 525 522 503 q 572 571 558 547 l 578 626 q 581 674 581 648 q 578 727 582 700 q 567 779 575 753 q 546 824 559 804 q 511 857 532 844 q 460 870 490 869 q 385 852 418 871 q 329 801 352 832 q 294 731 307 770 q 277 656 281 693 q 275 612 275 635 q 280 566 276 589 q 294 524 285 544 q 316 488 302 503 q 350 463 330 473 q 396 453 370 454 z "},"\u0000":{"ha":0,"x_min":0,"x_max":0,"o":""},"\r":{"ha":815,"x_min":0,"x_max":0,"o":""}," ":{"ha":815,"x_min":0,"x_max":0,"o":""},"\"":{"ha":815,"x_min":250,"x_max":683,"o":"m 413 962 l 355 699 l 250 699 l 304 1042 l 425 1042 l 413 962 m 670 962 l 613 699 l 507 699 l 562 1042 l 683 1042 l 670 962 z "},"#":{"ha":815,"x_min":11,"x_max":820,"o":"m 420 278 l 275 278 l 176 0 l 63 0 l 162 278 l 11 278 l 30 385 l 199 385 l 275 597 l 115 597 l 134 705 l 313 705 l 414 987 l 527 987 l 426 705 l 571 705 l 672 987 l 786 987 l 686 705 l 820 705 l 801 597 l 647 597 l 571 385 l 715 385 l 696 278 l 534 278 l 435 0 l 321 0 l 420 278 m 313 385 l 458 385 l 533 597 l 388 597 l 313 385 z "},"$":{"ha":815,"x_min":73,"x_max":779,"o":"m 555 262 q 549 321 559 296 q 520 366 539 347 q 476 398 502 385 q 422 424 450 412 q 325 471 371 445 q 246 533 279 497 q 195 615 212 568 q 181 723 177 661 q 209 832 185 784 q 272 916 233 881 q 361 971 311 950 q 471 999 412 992 l 497 1147 l 603 1147 l 576 996 q 675 955 635 985 q 738 882 715 924 q 770 788 762 840 q 776 682 779 736 l 618 682 q 616 745 620 713 q 600 805 612 778 q 563 848 587 831 q 500 867 539 865 q 439 858 467 867 q 390 829 411 848 q 356 784 369 810 q 339 724 342 757 q 345 665 335 690 q 374 621 355 640 q 419 588 393 602 q 474 563 446 574 q 571 515 526 541 q 649 453 616 489 q 699 371 682 418 q 712 264 716 325 q 683 152 708 200 q 617 69 658 103 q 524 15 577 35 q 412 -11 471 -5 l 388 -142 l 282 -142 l 307 -10 q 199 26 244 -1 q 126 94 155 53 q 85 187 98 134 q 76 300 73 239 l 234 300 q 238 231 232 263 q 260 174 244 199 q 304 135 277 149 q 372 119 332 120 q 437 127 406 119 q 493 155 469 136 q 534 200 518 173 q 555 262 551 227 z "},"%":{"ha":815,"x_min":85,"x_max":752,"o":"m 92 810 q 114 887 97 852 q 157 949 130 923 q 220 989 184 975 q 299 1002 256 1003 q 372 986 340 1001 q 424 945 404 971 q 454 885 445 920 q 460 811 463 850 l 456 759 q 434 683 451 718 q 391 622 418 648 q 329 583 365 597 q 251 569 294 568 q 178 585 210 570 q 125 626 146 600 q 95 685 104 651 q 87 759 85 720 l 92 810 m 202 757 q 203 725 201 741 q 212 695 205 709 q 231 674 218 682 q 262 665 243 665 q 297 673 282 665 q 321 694 311 682 q 336 724 331 707 q 344 758 342 741 l 349 812 q 348 844 349 828 q 339 874 346 861 q 320 896 332 888 q 288 905 308 905 q 254 897 269 905 q 230 876 239 888 q 214 846 220 863 q 206 812 208 829 l 202 757 m 380 228 q 402 304 385 269 q 446 366 418 340 q 509 406 473 391 q 587 419 545 420 q 660 403 629 418 q 712 362 692 388 q 743 302 733 336 q 749 229 752 268 l 744 176 q 723 99 739 134 q 680 39 707 64 q 618 -1 654 14 q 539 -14 582 -15 q 466 1 498 -14 q 414 42 435 16 q 383 101 393 67 q 376 176 374 136 l 380 228 m 490 174 q 491 142 488 159 q 499 112 493 125 q 518 91 506 99 q 550 82 530 82 q 585 90 570 82 q 609 111 600 98 q 624 140 619 123 q 631 175 629 157 l 636 229 q 635 262 637 245 q 627 291 633 278 q 609 313 621 304 q 577 321 597 321 q 543 314 557 321 q 518 293 528 306 q 502 263 508 279 q 494 229 496 246 l 490 174 m 227 134 l 145 179 l 633 873 l 714 827 l 227 134 z "},"&":{"ha":815,"x_min":30,"x_max":781,"o":"m 34 248 q 57 339 37 298 q 106 413 76 380 q 173 475 136 447 q 251 528 211 503 q 228 581 239 554 q 210 635 218 608 q 199 691 202 663 q 197 749 195 719 q 224 853 202 806 q 282 933 246 900 q 367 985 319 967 q 474 1002 416 1003 q 555 983 518 1000 q 617 937 591 966 q 655 869 642 907 q 666 787 669 830 q 648 716 663 748 q 611 657 633 684 q 559 608 588 631 q 502 564 531 585 l 431 511 l 568 277 q 618 369 599 321 q 644 469 637 416 l 781 470 q 739 303 773 380 q 640 161 704 225 l 732 0 l 557 0 l 524 61 q 411 5 469 26 q 288 -14 353 -15 q 182 6 231 -13 q 100 59 134 25 q 47 141 65 94 q 34 248 30 189 m 300 116 q 382 130 343 115 q 458 165 422 144 l 315 423 l 302 414 q 266 381 283 399 q 233 343 248 363 q 208 300 218 323 q 195 253 198 277 q 196 201 191 225 q 215 158 201 176 q 249 128 228 139 q 300 116 271 117 m 342 749 q 348 680 338 713 q 372 614 357 646 l 448 668 q 498 716 477 690 q 522 781 519 743 q 521 813 524 797 q 511 842 518 829 q 492 863 504 854 q 462 871 480 871 q 415 862 436 872 q 379 834 395 852 q 354 795 364 817 q 342 749 345 772 z "},"'":{"ha":815,"x_min":355,"x_max":537,"o":"m 523 951 l 467 693 l 355 693 l 410 1042 l 537 1042 l 523 951 z "},"(":{"ha":815,"x_min":215,"x_max":684,"o":"m 228 399 q 255 535 237 465 q 299 674 273 605 q 361 808 326 743 q 441 929 396 873 q 541 1032 486 986 q 661 1107 595 1078 l 684 1010 q 559 887 612 956 q 470 738 507 817 q 410 574 433 659 q 374 402 387 488 l 372 389 q 361 288 366 342 q 357 178 357 234 q 363 65 357 121 q 384 -44 369 8 q 425 -142 399 -96 q 490 -224 451 -189 l 451 -314 q 355 -230 395 -279 q 288 -122 315 -180 q 244 2 260 -63 q 222 133 229 67 q 217 264 215 199 q 227 387 218 329 l 228 399 z "},")":{"ha":815,"x_min":109,"x_max":581,"o":"m 569 393 q 542 257 559 327 q 497 118 524 187 q 434 -16 470 50 q 353 -137 398 -81 q 252 -240 307 -194 q 132 -315 197 -286 l 109 -222 q 233 -98 180 -168 q 322 52 286 -28 q 382 217 359 132 q 418 390 406 303 l 420 404 q 431 503 427 449 q 436 613 436 556 q 430 727 436 669 q 408 837 423 784 q 368 935 393 889 q 303 1016 342 981 l 340 1107 q 437 1023 396 1072 q 506 916 477 975 q 550 792 534 857 q 574 660 567 726 q 579 528 581 593 q 570 405 578 463 l 569 393 z "},"*":{"ha":815,"x_min":115,"x_max":769,"o":"m 356 440 l 115 505 l 174 633 l 404 523 l 428 816 l 564 816 l 496 526 l 749 630 l 769 491 l 502 430 l 641 207 l 523 127 l 424 378 l 250 138 l 146 221 l 356 440 z "},"+":{"ha":815,"x_min":68,"x_max":753,"o":"m 501 543 l 753 543 l 726 390 l 475 390 l 424 99 l 270 99 l 321 390 l 68 390 l 95 543 l 347 543 l 395 818 l 549 818 l 501 543 z "},",":{"ha":815,"x_min":127,"x_max":406,"o":"m 383 23 q 326 -131 370 -59 q 218 -255 282 -202 l 127 -205 q 188 -99 163 -153 q 224 17 212 -45 l 248 159 l 406 159 l 383 23 z "},"-":{"ha":815,"x_min":157,"x_max":707,"o":"m 684 368 l 157 368 l 180 498 l 707 498 l 684 368 z "},".":{"ha":815,"x_min":245,"x_max":475,"o":"m 245 93 q 254 140 245 118 q 279 177 263 161 q 316 202 294 193 q 363 212 337 212 q 408 204 387 212 q 443 181 429 196 q 466 146 458 166 q 475 101 475 125 q 466 54 475 75 q 441 18 456 33 q 404 -6 425 3 q 357 -14 382 -14 q 313 -7 333 -14 q 277 15 292 1 q 254 48 262 28 q 245 93 245 68 z "},"/":{"ha":815,"x_min":64,"x_max":780,"o":"m 215 -85 l 64 -85 l 630 987 l 780 987 l 215 -85 z "},":":{"ha":815,"x_min":266,"x_max":595,"o":"m 266 93 q 275 140 266 118 q 299 177 283 161 q 336 202 315 193 q 383 212 357 212 q 428 204 408 212 q 464 181 449 196 q 487 146 478 166 q 495 101 495 125 q 486 54 495 75 q 461 18 477 33 q 424 -6 446 3 q 377 -14 402 -14 q 333 -7 353 -14 q 298 15 313 1 q 274 48 283 28 q 266 93 266 68 m 366 670 q 374 717 366 695 q 399 754 383 739 q 436 780 414 770 q 483 789 457 789 q 528 781 507 789 q 563 758 549 773 q 586 723 578 743 q 595 678 595 703 q 586 631 595 652 q 561 595 576 610 q 524 571 545 580 q 477 563 502 563 q 433 570 453 563 q 397 592 412 578 q 374 626 382 606 q 366 670 366 646 z "},";":{"ha":815,"x_min":195,"x_max":605,"o":"m 376 670 q 385 717 376 695 q 409 754 393 739 q 446 780 425 770 q 493 789 467 789 q 538 781 517 789 q 573 758 559 773 q 596 723 588 743 q 605 678 605 703 q 596 631 605 652 q 571 595 587 610 q 534 571 555 580 q 487 563 512 563 q 443 570 463 563 q 408 592 422 578 q 384 626 393 606 q 376 670 376 646 m 451 23 q 394 -131 437 -59 q 286 -255 350 -202 l 195 -205 q 256 -99 231 -153 q 292 17 280 -45 l 316 159 l 474 159 l 451 23 z "},"<":{"ha":815,"x_min":100,"x_max":737,"o":"m 317 445 l 265 427 l 298 414 l 654 273 l 627 117 l 100 370 l 123 498 l 737 751 l 713 585 l 317 445 z "},"=":{"ha":815,"x_min":75,"x_max":755,"o":"m 731 506 l 125 506 l 149 641 l 755 641 l 731 506 m 682 218 l 75 218 l 99 353 l 705 353 l 682 218 z "},">":{"ha":815,"x_min":59,"x_max":714,"o":"m 142 591 l 170 745 l 714 492 l 692 363 l 59 110 l 89 277 l 500 418 l 553 434 l 520 446 l 142 591 z "},"?":{"ha":815,"x_min":175,"x_max":773,"o":"m 318 288 q 328 361 321 329 q 348 421 335 394 q 383 474 361 449 q 437 525 405 498 q 490 569 463 545 q 542 619 517 592 q 583 676 566 646 q 605 740 600 706 q 583 833 614 801 q 492 867 552 866 q 435 860 462 868 q 388 836 408 852 q 353 797 367 820 q 333 743 339 773 l 175 743 q 211 856 182 807 q 284 938 239 905 q 385 987 328 970 q 503 1002 441 1003 q 613 984 562 1000 q 700 936 664 968 q 754 857 736 904 q 768 746 773 809 q 742 651 764 693 q 688 572 720 608 q 617 504 656 536 q 542 442 579 473 q 508 409 522 426 q 485 374 494 393 q 471 334 476 355 q 462 289 465 313 l 318 288 m 254 78 q 261 116 254 98 q 280 146 268 134 q 310 166 292 159 q 347 174 327 174 q 385 169 368 175 q 414 150 401 162 q 434 121 427 138 q 441 84 441 104 q 433 47 441 64 q 413 18 426 30 q 383 -2 400 5 q 346 -9 366 -9 q 309 -3 326 -9 q 280 14 292 3 q 261 42 268 26 q 254 78 254 58 z "},"@":{"ha":815,"x_min":37,"x_max":798,"o":"m 791 552 q 779 484 787 522 q 759 408 771 446 q 728 335 746 370 q 685 272 710 299 q 629 228 661 244 q 557 212 597 212 q 496 232 521 214 q 460 285 471 250 q 434 258 448 271 q 405 235 420 245 q 372 219 390 225 q 335 214 355 214 q 285 226 305 214 q 252 259 264 239 q 234 305 239 279 q 227 358 228 331 q 227 411 225 385 q 233 457 229 437 q 249 530 238 492 q 276 604 260 568 q 314 672 292 640 q 364 728 336 704 q 428 766 393 752 q 505 779 463 779 q 575 764 543 777 q 633 721 607 750 l 552 371 q 549 349 551 361 q 549 327 547 337 q 557 310 551 317 q 577 302 563 302 q 619 314 601 300 q 650 351 637 328 q 673 401 664 373 q 688 457 682 429 q 697 509 694 485 q 703 549 701 534 q 709 626 707 587 q 705 702 710 665 q 688 772 701 739 q 654 830 676 805 q 599 870 632 854 q 519 886 566 885 q 415 870 463 888 q 330 821 368 852 q 260 746 291 789 q 207 655 230 703 q 169 557 184 608 q 146 460 154 507 q 137 378 140 420 q 139 294 134 335 q 155 217 143 254 q 191 154 168 181 q 251 111 215 127 q 338 94 287 94 q 421 104 381 93 q 500 133 462 115 l 515 44 q 430 6 476 18 q 336 -5 383 -6 q 220 15 270 -4 q 135 68 170 35 q 79 146 100 101 q 47 242 57 191 q 38 350 37 294 q 47 461 38 406 q 76 582 56 520 q 126 703 96 644 q 197 813 157 761 q 288 903 238 865 q 397 963 338 942 q 524 983 456 985 q 627 963 583 982 q 704 913 672 945 q 756 839 736 881 q 787 750 777 798 q 798 652 797 703 q 791 552 798 601 m 336 457 q 331 422 334 446 q 329 376 328 399 q 337 334 330 352 q 366 314 345 315 q 392 318 380 313 q 416 330 405 322 q 436 347 427 337 q 454 366 446 356 l 455 372 l 534 680 q 523 683 528 682 q 511 684 517 684 q 437 663 467 686 q 386 606 406 641 q 353 531 365 572 q 336 457 341 491 z "},"A":{"ha":815,"x_min":-39,"x_max":717,"o":"m 534 229 l 235 229 l 130 0 l -39 0 l 444 987 l 583 987 l 717 0 l 558 0 l 534 229 m 300 368 l 518 368 l 477 753 l 300 368 z "},"B":{"ha":815,"x_min":26,"x_max":794,"o":"m 26 0 l 198 987 l 495 987 q 610 969 555 985 q 707 922 666 954 q 771 842 749 890 q 789 726 794 793 q 770 652 785 685 q 731 592 755 618 q 675 546 707 566 q 608 511 644 526 q 668 475 643 498 q 709 424 693 453 q 731 362 724 395 q 735 293 737 328 q 697 164 730 219 q 613 72 664 109 q 497 17 562 35 q 364 0 433 -1 l 26 0 m 264 448 l 209 133 l 373 132 q 445 143 410 132 q 507 174 479 154 q 553 224 534 195 q 577 293 572 254 q 575 354 581 326 q 552 402 568 382 q 510 434 536 422 q 451 447 484 446 l 264 448 m 285 572 l 429 570 q 497 580 463 571 q 557 608 530 589 q 603 653 585 626 q 627 718 622 681 q 623 778 632 753 q 595 819 614 802 q 550 843 576 835 q 492 852 523 851 l 334 853 l 285 572 z "},"C":{"ha":815,"x_min":58,"x_max":793,"o":"m 720 304 q 676 174 708 233 q 595 72 644 115 q 483 7 546 30 q 347 -14 420 -16 q 241 6 287 -13 q 161 57 195 25 q 105 131 127 89 q 72 222 83 174 q 59 323 61 271 q 64 426 58 375 l 85 561 q 111 669 94 615 q 153 773 127 724 q 213 865 179 823 q 291 938 248 907 q 387 986 334 969 q 501 1002 439 1003 q 628 975 574 1000 q 718 906 682 949 q 773 803 754 862 q 793 676 791 745 l 635 676 q 628 748 635 713 q 605 809 621 783 q 561 852 589 836 q 490 870 532 869 q 416 858 448 871 q 358 822 384 845 q 314 768 333 799 q 282 702 296 736 q 260 631 269 667 q 246 562 252 595 l 225 425 q 219 363 221 397 q 218 296 216 330 q 227 231 220 262 q 251 174 235 199 q 292 134 267 149 q 357 117 318 118 q 436 129 401 115 q 496 169 471 143 q 538 228 522 194 q 565 302 555 262 l 720 304 z "},"D":{"ha":815,"x_min":19,"x_max":782,"o":"m 19 0 l 191 987 l 416 987 q 586 947 514 985 q 703 848 658 910 q 765 704 747 785 q 770 530 782 622 l 760 456 q 704 276 745 359 q 600 131 663 193 q 452 35 536 70 q 267 0 368 0 l 19 0 m 329 856 l 203 131 l 273 130 q 401 156 345 130 q 497 227 457 182 q 563 330 538 271 q 598 456 588 389 l 610 532 q 612 646 617 589 q 585 748 608 703 q 520 823 563 793 q 410 855 478 852 l 329 856 z "},"E":{"ha":815,"x_min":36,"x_max":823,"o":"m 666 443 l 272 443 l 218 133 l 680 133 l 656 0 l 36 0 l 207 987 l 823 987 l 800 853 l 343 853 l 294 574 l 689 574 l 666 443 z "},"F":{"ha":815,"x_min":39,"x_max":832,"o":"m 674 420 l 273 420 l 200 0 l 39 0 l 211 987 l 832 987 l 808 853 l 348 853 l 296 554 l 698 554 l 674 420 z "},"G":{"ha":815,"x_min":59,"x_max":792,"o":"m 697 123 q 626 61 665 87 q 543 18 587 35 q 451 -6 498 1 q 357 -13 404 -14 q 250 7 297 -12 q 169 59 203 26 q 111 134 134 91 q 76 226 88 177 q 61 328 64 275 q 66 432 59 380 l 85 554 q 110 663 94 608 q 153 767 127 718 q 213 860 178 817 q 290 935 247 903 q 386 984 334 966 q 501 1001 439 1002 q 625 977 571 1000 q 714 914 678 954 q 770 818 751 873 q 792 694 790 762 l 637 694 q 627 761 635 730 q 602 815 618 792 q 558 853 585 839 q 492 868 531 867 q 419 856 452 869 q 361 818 387 842 q 316 762 335 794 q 282 695 296 730 q 259 624 268 660 q 245 555 250 588 l 225 431 q 220 368 221 402 q 221 300 218 334 q 233 235 224 267 q 260 178 242 203 q 304 138 277 153 q 370 120 331 122 q 462 130 417 118 q 541 175 507 142 l 578 373 l 406 373 l 428 500 l 756 500 l 697 123 z "},"H":{"ha":815,"x_min":14,"x_max":820,"o":"m 648 0 l 494 0 l 570 441 l 245 441 l 169 0 l 14 0 l 186 987 l 340 987 l 269 574 l 593 574 l 665 987 l 820 987 l 648 0 z "},"I":{"ha":815,"x_min":48,"x_max":790,"o":"m 220 987 l 790 987 l 766 852 l 559 852 l 435 134 l 642 134 l 618 0 l 48 0 l 72 134 l 274 134 l 399 852 l 196 852 l 220 987 z "},"J":{"ha":815,"x_min":45,"x_max":808,"o":"m 648 987 l 808 987 l 692 302 q 650 174 682 233 q 568 74 617 116 q 457 8 519 32 q 325 -14 395 -15 q 204 10 256 -12 q 116 73 152 33 q 63 168 81 113 q 45 289 45 222 l 205 288 q 211 223 204 254 q 233 171 217 193 q 274 134 248 148 q 338 119 300 120 q 410 133 377 118 q 468 173 443 148 q 508 232 492 199 q 530 302 524 266 l 648 987 z "},"K":{"ha":815,"x_min":26,"x_max":895,"o":"m 368 427 l 239 304 l 186 0 l 26 0 l 197 987 l 358 987 l 279 533 l 391 655 l 691 987 l 895 987 l 488 547 l 731 0 l 550 0 l 368 427 z "},"L":{"ha":815,"x_min":42,"x_max":681,"o":"m 224 133 l 681 133 l 658 0 l 42 0 l 214 987 l 372 987 l 224 133 z "},"M":{"ha":815,"x_min":18,"x_max":833,"o":"m 384 987 l 428 563 l 633 987 l 833 987 l 661 0 l 512 0 l 572 346 l 653 759 l 429 298 l 345 298 l 290 762 l 225 332 l 168 0 l 18 0 l 189 987 l 384 987 z "},"N":{"ha":815,"x_min":15,"x_max":819,"o":"m 648 0 l 492 0 l 296 686 l 176 0 l 15 0 l 186 987 l 344 987 l 538 304 l 659 987 l 819 987 l 648 0 z "},"O":{"ha":815,"x_min":58,"x_max":779,"o":"m 753 431 q 727 323 744 377 q 686 219 711 269 q 627 126 661 169 q 549 51 593 83 q 454 2 506 20 q 340 -14 401 -15 q 236 7 281 -12 q 158 60 191 27 q 104 136 125 93 q 72 228 83 179 q 60 329 61 277 q 65 430 58 380 l 85 556 q 110 663 93 609 q 151 767 126 718 q 209 861 176 817 q 285 936 242 904 q 379 985 328 967 q 492 1001 431 1002 q 597 980 551 1000 q 676 928 643 960 q 732 852 710 895 q 765 759 753 808 q 778 658 776 710 q 772 556 779 606 l 753 431 m 613 558 q 619 618 616 585 q 619 685 621 651 q 609 750 616 718 q 585 806 601 781 q 544 846 569 831 q 480 863 518 862 q 409 851 440 865 q 353 815 377 838 q 310 760 328 791 q 279 694 292 729 q 258 625 267 660 q 244 557 250 589 l 224 429 q 218 370 220 403 q 217 303 216 337 q 227 238 219 270 q 249 181 234 206 q 290 140 264 156 q 353 123 315 124 q 425 135 393 121 q 482 171 457 148 q 525 226 507 195 q 557 292 544 258 q 579 362 571 327 q 593 430 588 398 l 613 558 z "},"P":{"ha":815,"x_min":39,"x_max":814,"o":"m 264 378 l 198 0 l 39 0 l 210 987 l 522 987 q 643 963 588 985 q 736 902 698 941 q 795 808 775 863 q 808 686 814 753 q 769 554 802 611 q 685 458 736 497 q 569 398 634 418 q 434 378 504 378 l 264 378 m 286 510 l 441 509 q 516 521 481 509 q 580 556 552 534 q 626 611 608 579 q 648 684 644 644 q 646 749 652 719 q 623 803 640 780 q 579 839 606 825 q 516 855 553 853 l 347 856 l 286 510 z "},"Q":{"ha":815,"x_min":55,"x_max":785,"o":"m 758 422 q 734 322 750 371 q 695 228 719 273 q 639 143 671 182 q 565 71 606 103 l 703 -78 l 588 -170 l 432 -2 q 386 -10 409 -7 q 340 -12 363 -13 q 237 7 282 -12 q 160 58 193 26 q 105 133 127 90 q 71 223 83 175 q 57 322 59 271 q 62 422 55 373 l 81 548 q 107 657 90 602 q 149 763 123 712 q 207 858 174 814 q 284 934 241 902 q 379 984 327 966 q 495 1001 432 1002 q 602 980 555 1000 q 682 926 648 960 q 737 848 715 892 q 770 754 759 804 q 783 652 782 705 q 778 548 785 599 l 758 422 m 618 551 q 624 613 622 579 q 625 681 627 646 q 615 747 623 715 q 591 805 607 779 q 548 846 574 830 q 482 863 522 862 q 408 851 441 865 q 351 813 376 838 q 308 758 326 789 q 276 690 290 726 q 255 618 263 654 q 241 549 247 582 l 222 421 q 216 362 218 394 q 216 297 214 330 q 227 233 218 264 q 251 179 235 203 q 292 139 267 155 q 355 123 317 124 q 426 134 394 121 q 484 169 458 146 q 528 222 509 192 q 561 286 547 252 q 583 354 574 319 q 597 422 592 389 l 618 551 z "},"R":{"ha":815,"x_min":30,"x_max":798,"o":"m 418 385 l 256 385 l 189 0 l 30 0 l 201 987 l 496 987 q 619 966 562 985 q 716 910 675 947 q 777 820 756 873 q 791 695 798 766 q 769 602 787 644 q 723 526 751 559 q 656 466 694 492 q 571 422 617 440 l 703 9 l 703 0 l 534 0 l 418 385 m 278 517 l 417 515 q 494 527 457 515 q 559 561 530 538 q 607 615 588 583 q 631 690 625 648 q 602 808 640 764 q 490 855 564 852 l 337 856 l 278 517 z "},"S":{"ha":815,"x_min":45,"x_max":804,"o":"m 572 259 q 563 323 576 296 q 526 370 549 351 q 471 404 502 390 q 412 427 441 417 q 312 471 361 445 q 224 532 262 496 q 164 614 186 568 q 146 722 142 661 q 183 843 150 790 q 267 931 216 895 q 379 984 317 966 q 504 1001 441 1002 q 625 977 570 1000 q 720 915 680 955 q 782 821 760 876 q 802 699 804 766 l 644 699 q 634 766 643 735 q 606 819 625 796 q 559 854 587 841 q 493 867 532 867 q 428 859 460 868 q 370 831 396 850 q 327 786 344 813 q 305 723 309 758 q 316 662 301 687 q 357 618 332 636 q 413 588 382 600 q 472 566 444 575 q 573 520 524 547 q 658 456 621 493 q 715 371 694 419 q 732 261 736 322 q 694 139 727 191 q 610 53 661 87 q 496 2 559 19 q 370 -13 433 -14 q 242 11 302 -12 q 139 73 182 33 q 70 170 95 113 q 47 297 45 227 l 206 297 q 218 224 207 256 q 251 168 229 191 q 305 132 273 145 q 378 119 337 119 q 444 126 412 118 q 504 153 477 135 q 549 197 530 170 q 572 259 567 223 z "},"T":{"ha":815,"x_min":110,"x_max":878,"o":"m 854 853 l 560 853 l 412 0 l 254 0 l 402 853 l 110 853 l 134 987 l 878 987 l 854 853 z "},"U":{"ha":815,"x_min":66,"x_max":823,"o":"m 823 987 l 711 328 q 669 192 700 255 q 591 83 639 130 q 480 11 543 37 q 340 -14 416 -15 q 215 16 269 -12 q 128 91 162 44 q 80 198 94 137 q 73 326 66 258 l 187 987 l 343 987 l 232 326 q 231 256 228 292 q 247 190 234 220 q 286 140 260 160 q 353 119 312 121 q 432 135 398 117 q 491 182 467 153 q 531 250 515 212 q 552 327 546 288 l 666 987 l 823 987 z "},"V":{"ha":815,"x_min":125,"x_max":868,"o":"m 376 250 l 690 987 l 868 987 l 417 0 l 266 0 l 125 987 l 294 987 l 376 250 z "},"W":{"ha":815,"x_min":91,"x_max":878,"o":"m 559 344 l 728 987 l 878 987 l 602 0 l 450 0 l 448 654 l 243 0 l 91 0 l 123 987 l 269 987 l 237 349 l 435 987 l 559 987 l 559 344 z "},"X":{"ha":815,"x_min":-31,"x_max":876,"o":"m 440 621 l 682 987 l 876 987 l 522 491 l 721 0 l 543 0 l 412 373 l 164 0 l -31 0 l 332 505 l 138 987 l 317 987 l 440 621 z "},"Y":{"ha":815,"x_min":134,"x_max":886,"o":"m 420 517 l 702 987 l 886 987 l 472 347 l 411 0 l 256 0 l 319 367 l 134 987 l 304 987 l 420 517 z "},"Z":{"ha":815,"x_min":3,"x_max":812,"o":"m 214 133 l 694 133 l 672 0 l 3 0 l 20 116 l 600 853 l 139 853 l 160 987 l 812 987 l 795 874 l 214 133 z "},"[":{"ha":815,"x_min":172,"x_max":665,"o":"m 645 1010 l 518 1010 l 346 -92 l 473 -92 l 453 -219 l 172 -219 l 384 1137 l 665 1137 l 645 1010 z "},"\\":{"ha":815,"x_min":256,"x_max":589,"o":"m 256 987 l 395 987 l 589 -85 l 450 -85 l 256 987 z "},"]":{"ha":815,"x_min":165,"x_max":659,"o":"m 377 1137 l 659 1137 l 448 -219 l 165 -219 l 185 -92 l 313 -92 l 486 1010 l 357 1010 l 377 1137 z "},"^":{"ha":815,"x_min":151,"x_max":682,"o":"m 293 463 l 151 463 l 452 987 l 564 987 l 682 463 l 553 463 l 487 781 l 485 829 l 460 768 l 293 463 z "},"_":{"ha":815,"x_min":5,"x_max":633,"o":"m 610 -127 l 5 -127 l 28 0 l 633 0 l 610 -127 z "},"`":{"ha":815,"x_min":367,"x_max":625,"o":"m 625 817 l 509 817 l 367 1002 l 538 1002 l 625 817 z "},"a":{"ha":815,"x_min":52,"x_max":709,"o":"m 492 0 q 486 35 487 18 q 486 71 486 53 q 389 8 441 31 q 275 -13 336 -14 q 188 3 229 -12 q 116 45 146 18 q 68 112 85 73 q 54 200 52 151 q 74 286 57 248 q 117 350 90 323 q 178 397 143 378 q 252 428 213 416 q 333 444 292 439 q 416 449 375 449 l 536 448 l 545 498 q 542 551 549 528 q 518 590 534 574 q 478 615 502 606 q 425 624 454 623 q 376 619 399 625 q 334 601 353 613 q 302 569 315 588 q 284 524 290 550 l 126 523 q 161 624 131 581 q 237 694 192 667 q 337 735 283 722 q 444 748 391 749 q 550 730 500 747 q 636 682 600 713 q 691 603 672 650 q 703 495 709 556 l 650 168 q 642 90 644 129 q 652 12 640 50 l 650 0 l 492 0 m 315 117 q 416 140 369 115 q 497 207 464 164 l 522 345 l 431 346 q 361 340 397 346 q 294 321 326 335 q 241 282 263 307 q 215 218 220 257 q 218 174 212 193 q 238 143 224 155 q 271 124 252 130 q 315 117 291 117 z "},"b":{"ha":815,"x_min":33,"x_max":726,"o":"m 720 363 q 702 272 714 317 q 670 183 690 226 q 624 104 650 141 q 562 41 597 68 q 483 -1 526 14 q 387 -14 439 -16 q 283 10 330 -13 q 203 79 235 33 l 178 0 l 33 0 l 214 1042 l 372 1042 l 300 663 q 389 727 340 705 q 495 747 437 749 q 583 730 545 746 q 647 686 621 713 q 690 622 673 659 q 715 545 707 586 q 725 461 724 505 q 722 377 726 418 l 720 363 m 564 378 q 567 428 566 401 q 566 481 568 455 q 555 531 563 507 q 534 573 548 555 q 498 603 519 591 q 444 615 476 614 q 350 590 390 616 q 281 519 311 563 l 229 215 q 277 144 244 170 q 358 118 309 119 q 445 139 409 117 q 506 196 481 161 q 543 276 530 232 q 562 363 556 320 l 564 378 z "},"c":{"ha":815,"x_min":69,"x_max":728,"o":"m 362 115 q 419 122 391 114 q 470 148 448 131 q 509 188 493 164 q 530 241 525 211 l 680 241 q 644 134 675 182 q 568 53 614 86 q 465 2 522 20 q 353 -14 409 -16 q 219 18 275 -13 q 129 99 163 49 q 82 215 95 150 q 77 352 69 281 l 79 377 q 119 521 88 453 q 198 640 149 589 q 314 720 248 691 q 461 747 380 749 q 571 725 522 746 q 656 668 621 705 q 709 582 691 632 q 724 471 728 532 l 576 471 q 570 527 578 501 q 545 573 562 553 q 505 604 529 593 q 449 617 480 616 q 361 598 398 619 q 298 542 323 576 q 257 464 272 507 q 236 377 242 420 l 233 353 q 230 300 231 328 q 233 247 230 273 q 245 197 237 221 q 269 156 254 174 q 307 126 284 138 q 362 115 330 115 z "},"d":{"ha":815,"x_min":69,"x_max":814,"o":"m 75 368 q 93 460 80 414 q 126 549 106 506 q 173 628 146 591 q 236 692 201 665 q 316 734 272 719 q 412 747 360 749 q 509 726 465 746 q 585 667 553 707 l 655 1042 l 814 1042 l 633 0 l 491 0 l 501 75 q 411 8 460 31 q 300 -14 361 -15 q 216 4 252 -12 q 152 48 179 21 q 108 112 125 76 q 82 189 91 149 q 71 271 73 229 q 73 353 69 313 l 75 368 m 231 353 q 229 278 228 318 q 242 202 230 237 q 279 144 254 168 q 351 119 305 121 q 442 142 404 118 q 510 208 481 167 l 566 528 q 518 592 550 570 q 441 615 486 614 q 353 594 391 616 q 291 536 316 572 q 252 455 267 500 q 233 368 238 410 l 231 353 z "},"e":{"ha":815,"x_min":64,"x_max":735,"o":"m 371 -14 q 237 16 296 -12 q 139 92 178 44 q 82 202 100 139 q 71 338 64 266 l 74 367 q 96 465 79 416 q 137 555 112 513 q 197 634 163 598 q 272 695 231 669 q 362 735 314 721 q 463 747 410 749 q 594 715 541 745 q 681 634 648 684 q 724 519 713 584 q 726 385 735 454 l 716 316 l 227 316 q 232 241 223 277 q 262 178 241 205 q 314 134 283 151 q 388 117 346 117 q 500 139 448 115 q 593 206 553 163 l 673 123 q 613 61 648 87 q 539 18 579 35 q 456 -6 499 1 q 371 -14 413 -14 m 451 617 q 378 603 410 618 q 320 562 345 587 q 275 503 294 536 q 243 435 256 469 l 577 435 l 580 449 q 578 512 585 482 q 555 565 572 542 q 512 602 538 588 q 451 617 486 616 z "},"f":{"ha":815,"x_min":125,"x_max":861,"o":"m 210 0 l 317 613 l 125 613 l 146 734 l 334 734 l 342 779 q 381 903 353 848 q 454 996 410 958 q 557 1054 498 1034 q 686 1073 616 1074 q 774 1065 731 1072 q 861 1048 818 1057 l 833 920 q 766 935 800 929 q 698 941 732 940 q 566 901 616 941 q 500 780 516 860 l 492 733 l 761 734 l 739 613 l 475 613 l 369 0 l 210 0 z "},"g":{"ha":815,"x_min":23,"x_max":766,"o":"m 75 368 q 94 460 81 414 q 127 549 107 507 q 176 629 148 592 q 240 692 203 665 q 320 734 276 719 q 417 747 364 749 q 518 725 472 746 q 597 660 565 705 l 621 734 l 766 734 l 644 20 q 603 -110 634 -52 q 523 -209 571 -168 q 412 -270 475 -249 q 277 -290 349 -291 q 204 -281 240 -289 q 135 -257 168 -273 q 74 -220 102 -242 q 23 -168 45 -197 l 107 -69 q 181 -136 138 -112 q 277 -161 223 -160 q 354 -151 319 -163 q 416 -115 389 -138 q 462 -59 444 -92 q 488 15 480 -26 l 498 65 q 410 6 458 26 q 305 -13 362 -14 q 220 4 257 -12 q 155 48 182 21 q 111 111 128 75 q 83 188 93 147 q 72 270 74 228 q 74 353 70 313 l 75 368 m 233 353 q 230 277 229 317 q 244 202 232 237 q 283 144 257 168 q 356 119 310 121 q 446 141 408 118 q 515 205 485 165 l 572 530 q 446 615 536 613 q 358 594 395 616 q 295 536 320 572 q 255 455 269 500 q 235 368 240 411 l 233 353 z "},"h":{"ha":815,"x_min":31,"x_max":730,"o":"m 293 631 q 338 679 314 657 q 391 716 363 701 q 449 740 418 731 q 515 747 480 748 q 622 721 578 746 q 689 656 665 696 q 722 562 714 615 q 724 452 730 509 l 648 0 l 490 0 l 566 454 q 566 515 570 487 q 548 566 562 544 q 512 600 535 587 q 452 614 488 612 q 359 593 401 615 q 283 534 317 570 l 189 0 l 31 0 l 212 1042 l 370 1042 l 293 631 z "},"i":{"ha":815,"x_min":65,"x_max":681,"o":"m 193 734 l 573 734 l 469 134 l 681 134 l 657 0 l 65 0 l 89 134 l 309 134 l 390 599 l 169 599 l 193 734 m 433 921 q 440 957 433 941 q 459 985 447 973 q 488 1004 471 998 q 524 1012 505 1011 q 560 1006 543 1013 q 589 989 576 1000 q 609 962 602 978 q 616 926 616 946 q 608 890 616 907 q 589 861 601 873 q 559 842 576 849 q 524 836 543 836 q 488 841 505 835 q 459 858 471 847 q 440 885 447 869 q 433 921 433 901 z "},"j":{"ha":815,"x_min":27,"x_max":663,"o":"m 256 734 l 621 734 l 494 -12 q 457 -134 484 -81 q 387 -224 430 -188 q 287 -279 345 -260 q 160 -297 230 -298 q 27 -285 93 -297 l 52 -153 q 161 -163 105 -163 q 228 -154 198 -164 q 279 -124 257 -144 q 315 -76 300 -104 q 334 -12 329 -47 l 438 599 l 232 599 l 256 734 m 481 921 q 488 957 481 941 q 507 985 494 973 q 535 1004 519 998 q 572 1012 552 1011 q 607 1006 591 1013 q 636 989 624 1000 q 655 962 648 978 q 663 926 663 946 q 655 890 663 907 q 636 862 648 873 q 607 843 624 850 q 571 836 591 836 q 535 841 552 835 q 507 858 519 847 q 488 885 494 869 q 481 921 481 901 z "},"k":{"ha":815,"x_min":32,"x_max":787,"o":"m 336 319 l 230 231 l 190 0 l 32 0 l 212 1042 l 371 1042 l 265 435 l 340 507 l 587 734 l 787 733 l 453 422 l 692 0 l 505 0 l 336 319 z "},"l":{"ha":815,"x_min":60,"x_max":686,"o":"m 241 1042 l 627 1042 l 469 134 l 686 134 l 663 0 l 60 0 l 83 134 l 309 134 l 444 907 l 217 907 l 241 1042 z "},"m":{"ha":815,"x_min":-16,"x_max":773,"o":"m 249 734 l 234 656 q 298 723 261 697 q 385 747 334 748 q 455 729 426 747 q 496 671 485 711 q 558 727 524 705 q 638 747 592 748 q 709 727 682 746 q 751 677 736 707 q 769 610 766 647 q 770 536 773 572 l 681 0 l 534 0 l 624 538 q 625 566 625 553 q 619 591 624 580 q 603 608 614 602 q 576 614 593 614 q 533 601 550 614 q 503 567 516 588 l 404 0 l 260 0 l 351 538 q 352 566 353 552 q 347 590 351 579 q 332 608 342 601 q 305 614 322 614 q 262 602 279 615 q 230 570 244 589 l 132 0 l -16 0 l 112 734 l 249 734 z "},"n":{"ha":815,"x_min":31,"x_max":728,"o":"m 300 734 l 287 631 q 389 716 332 684 q 517 747 446 749 q 623 722 581 746 q 689 658 665 698 q 721 567 713 618 q 722 458 728 515 l 646 0 l 488 0 l 564 456 q 564 519 568 490 q 548 568 561 547 q 511 602 535 589 q 450 614 488 614 q 400 609 424 615 q 356 591 376 603 q 316 563 335 579 q 281 527 298 547 l 190 0 l 31 0 l 159 734 l 300 734 z "},"o":{"ha":815,"x_min":58,"x_max":736,"o":"m 67 369 q 107 514 77 445 q 186 636 137 584 q 302 719 235 688 q 451 747 369 749 q 585 714 529 745 q 675 631 641 682 q 723 513 709 579 q 728 376 736 447 l 727 361 q 687 216 718 285 q 607 95 656 147 q 491 14 558 43 q 343 -14 425 -16 q 210 19 266 -12 q 119 101 154 50 q 72 218 85 152 q 66 355 58 283 l 67 369 m 224 355 q 221 302 221 330 q 224 249 220 275 q 237 199 229 222 q 262 157 246 175 q 300 127 277 138 q 355 115 323 115 q 443 135 406 113 q 507 193 481 157 q 548 274 532 229 q 568 361 563 319 l 570 375 q 572 454 574 412 q 556 532 570 496 q 515 592 543 568 q 439 617 487 616 q 351 596 389 618 q 287 537 313 574 q 246 456 261 501 q 225 369 231 412 l 224 355 z "},"p":{"ha":815,"x_min":-17,"x_max":724,"o":"m 718 363 q 700 273 712 319 q 668 185 688 227 q 621 105 648 142 q 559 42 594 68 q 481 0 524 15 q 385 -14 437 -16 q 287 6 332 -13 q 206 66 241 25 l 141 -282 l -17 -282 l 159 734 l 303 734 l 292 660 q 382 726 333 703 q 492 747 432 749 q 580 730 543 746 q 645 686 618 713 q 688 623 671 659 q 713 547 705 587 q 723 463 722 506 q 719 378 724 420 l 718 363 m 561 378 q 564 429 564 402 q 561 481 564 455 q 550 531 558 507 q 527 573 542 555 q 491 603 513 591 q 438 614 469 614 q 349 593 387 616 q 282 530 311 570 l 225 200 q 273 138 241 159 q 351 115 305 117 q 412 124 385 114 q 461 153 439 134 q 500 196 484 171 q 529 248 517 220 q 548 306 541 276 q 559 364 555 336 l 561 378 z "},"q":{"ha":815,"x_min":70,"x_max":761,"o":"m 76 368 q 108 507 84 438 q 174 629 132 575 q 275 716 216 684 q 415 747 335 749 q 514 725 469 746 q 593 662 560 705 l 618 734 l 761 734 l 585 -282 l 426 -282 l 492 62 q 405 5 452 24 q 303 -14 358 -15 q 217 4 254 -13 q 153 48 180 20 q 109 111 126 75 q 82 188 92 147 q 72 271 73 229 q 74 354 70 313 l 76 368 m 232 354 q 230 278 229 319 q 243 201 231 237 q 281 141 255 165 q 353 116 307 117 q 442 138 404 115 q 509 199 479 161 l 568 537 q 519 596 551 576 q 444 617 488 616 q 356 596 393 618 q 293 537 319 574 q 254 456 268 501 q 234 368 239 412 l 232 354 z "},"r":{"ha":815,"x_min":130,"x_max":775,"o":"m 641 749 q 709 744 675 748 q 775 728 743 739 l 733 570 q 664 583 699 578 q 594 589 630 588 q 462 556 518 589 q 368 459 406 524 l 288 0 l 130 0 l 257 734 l 405 734 l 387 618 q 439 672 411 648 q 499 713 467 696 q 566 740 531 730 q 641 749 602 749 z "},"s":{"ha":815,"x_min":66,"x_max":734,"o":"m 534 203 q 523 249 538 231 q 486 277 509 267 q 436 294 463 288 q 390 305 409 300 q 332 321 362 312 q 274 342 302 330 q 221 371 246 354 q 177 409 195 387 q 148 458 159 431 q 140 520 138 486 q 156 592 142 559 q 194 649 170 624 q 249 694 218 675 q 315 725 280 713 q 385 742 349 736 q 456 747 421 748 q 560 732 509 747 q 649 688 610 718 q 711 615 688 659 q 734 513 734 572 l 576 513 q 567 562 577 541 q 539 596 557 583 q 499 617 522 610 q 449 624 475 624 q 399 619 425 624 q 352 603 374 614 q 314 573 330 592 q 294 528 298 555 q 302 483 290 500 q 336 456 315 466 q 381 440 357 446 q 426 431 406 435 q 486 415 455 424 q 547 395 517 407 q 604 367 577 383 q 650 328 630 351 q 680 277 669 306 q 689 212 690 249 q 654 106 686 150 q 574 36 622 63 q 469 -3 526 9 q 359 -14 412 -16 q 251 2 304 -14 q 157 49 198 18 q 91 125 116 79 q 67 232 66 171 l 220 231 q 233 176 221 199 q 264 138 245 153 q 311 116 284 123 q 367 109 337 109 q 418 113 391 109 q 470 127 446 117 q 512 156 494 138 q 534 203 530 174 z "},"t":{"ha":815,"x_min":121,"x_max":744,"o":"m 505 911 l 474 734 l 744 734 l 722 613 l 454 613 l 395 260 q 395 207 392 231 q 408 163 397 182 q 439 133 419 144 q 491 121 459 122 q 569 127 530 120 q 646 142 608 134 l 653 28 q 604 7 630 15 q 549 -6 577 -1 q 494 -13 522 -11 q 439 -14 466 -14 q 340 8 381 -13 q 274 66 298 30 q 240 150 249 102 q 236 252 231 197 l 295 613 l 121 613 l 142 734 l 316 734 l 347 911 l 505 911 z "},"u":{"ha":815,"x_min":85,"x_max":767,"o":"m 511 100 q 467 53 491 75 q 416 17 443 32 q 358 -7 389 1 q 294 -14 328 -15 q 185 15 227 -13 q 120 87 142 43 q 91 187 97 132 q 92 300 85 243 l 163 734 l 322 734 l 250 298 q 245 236 246 267 q 253 179 245 204 q 281 137 261 153 q 340 119 302 120 q 442 141 398 117 q 517 212 486 165 l 608 734 l 767 734 l 640 0 l 498 0 l 511 100 z "},"v":{"ha":815,"x_min":109,"x_max":806,"o":"m 360 205 l 363 153 l 385 210 l 637 734 l 806 734 l 412 0 l 276 0 l 109 734 l 264 734 l 360 205 z "},"w":{"ha":815,"x_min":82,"x_max":841,"o":"m 207 241 l 201 193 l 218 241 l 406 734 l 509 734 l 526 236 l 524 186 l 542 247 l 694 734 l 841 734 l 574 0 l 441 0 l 420 491 l 421 503 l 417 491 l 226 0 l 93 0 l 82 734 l 218 734 l 207 241 z "},"x":{"ha":815,"x_min":-5,"x_max":814,"o":"m 421 486 l 629 734 l 814 734 l 500 366 l 699 0 l 532 0 l 396 256 l 180 0 l -5 0 l 319 378 l 127 734 l 293 734 l 421 486 z "},"y":{"ha":815,"x_min":-11,"x_max":846,"o":"m 363 286 l 374 208 l 665 734 l 846 734 l 340 -111 q 292 -182 319 -149 q 234 -242 266 -216 q 162 -283 201 -268 q 77 -298 123 -298 q 33 -293 55 -297 q -11 -284 11 -290 l 24 -159 q 54 -162 39 -160 q 83 -163 69 -163 q 124 -152 106 -162 q 158 -125 143 -141 q 186 -91 174 -110 q 211 -56 199 -73 l 278 43 l 98 734 l 267 734 l 363 286 z "},"z":{"ha":815,"x_min":28,"x_max":762,"o":"m 261 130 l 687 130 l 667 0 l 28 0 l 46 113 l 524 602 l 129 602 l 150 734 l 762 734 l 745 624 l 261 130 z "},"{":{"ha":815,"x_min":203,"x_max":743,"o":"m 537 -243 q 434 -211 476 -241 q 367 -136 392 -181 q 333 -36 342 -91 q 330 72 324 19 l 345 183 q 320 311 353 267 q 203 359 288 355 l 215 478 q 357 523 305 479 q 422 657 410 566 l 437 768 q 467 887 445 831 q 526 986 489 943 q 614 1056 562 1029 q 733 1085 665 1082 l 743 989 q 668 967 696 988 q 623 915 640 947 q 598 844 606 883 q 586 768 591 805 l 572 657 q 511 508 560 566 q 378 416 461 450 q 435 373 412 398 q 473 318 458 349 q 492 254 487 288 q 494 182 497 219 l 479 71 q 474 5 476 42 q 478 -64 471 -31 q 504 -121 485 -97 q 562 -149 523 -144 l 537 -243 z "},"|":{"ha":815,"x_min":243,"x_max":553,"o":"m 355 -278 l 243 -278 l 441 987 l 553 987 l 355 -278 z "},"}":{"ha":815,"x_min":126,"x_max":666,"o":"m 126 -150 q 196 -126 168 -149 q 242 -72 224 -104 q 269 -1 260 -39 q 283 72 278 37 l 297 182 q 357 330 309 271 q 486 422 405 388 q 430 466 453 441 q 394 522 408 492 q 376 587 380 553 q 375 657 372 621 l 389 768 q 397 837 393 800 q 395 906 401 874 q 370 961 390 939 q 308 987 351 984 l 333 1082 q 438 1050 395 1080 q 505 977 480 1021 q 537 877 529 932 q 538 768 545 822 l 524 656 q 526 582 520 614 q 548 528 531 550 q 594 494 565 506 q 666 479 623 481 l 654 360 q 511 316 564 359 q 447 182 459 273 l 432 72 q 401 -46 424 10 q 342 -146 379 -102 q 253 -216 304 -189 q 135 -246 201 -243 l 126 -150 z "},"~":{"ha":815,"x_min":12,"x_max":777,"o":"m 777 507 q 756 416 773 460 q 712 338 740 372 q 644 282 684 303 q 553 262 604 261 q 496 270 522 262 q 445 290 469 277 q 398 319 420 302 q 355 356 376 336 q 328 378 342 368 q 299 398 314 389 q 267 412 283 407 q 233 417 250 417 q 189 407 209 417 q 155 381 170 397 q 131 344 140 365 q 117 302 121 323 l 12 315 q 33 405 16 361 q 78 481 50 448 q 145 534 106 514 q 236 553 185 554 q 344 526 296 552 q 435 460 393 500 q 461 438 448 449 q 490 418 475 427 q 522 404 505 409 q 556 398 538 398 q 600 409 581 398 q 633 437 619 420 q 657 476 648 454 q 670 519 666 497 l 777 507 z "},"¡":{"ha":815,"x_min":217,"x_max":551,"o":"m 336 396 l 486 396 l 378 -256 l 217 -256 l 336 396 m 551 658 q 543 621 551 637 q 523 591 536 604 q 493 572 511 579 q 456 565 476 565 q 419 570 436 564 q 390 588 402 576 q 371 616 378 600 q 363 652 363 632 q 371 690 363 672 q 390 720 378 707 q 419 741 402 733 q 457 749 437 748 q 494 743 477 749 q 524 724 511 736 q 544 695 536 712 q 551 658 551 678 z "},"¢":{"ha":815,"x_min":80,"x_max":736,"o":"m 372 115 q 429 122 401 114 q 480 148 457 131 q 518 188 503 164 q 540 241 534 211 l 689 241 q 660 144 685 188 q 595 67 634 100 q 509 15 557 35 q 410 -12 460 -5 l 383 -166 l 251 -166 l 279 -2 q 184 48 224 14 q 121 130 144 83 q 89 234 97 177 q 86 352 80 291 l 89 377 q 122 507 97 445 q 189 619 148 570 q 285 701 230 668 q 408 743 340 734 l 435 894 l 568 894 l 540 739 q 623 704 586 728 q 686 645 660 680 q 724 566 711 610 q 734 471 736 522 l 585 471 q 579 527 587 501 q 555 573 571 553 q 514 604 538 593 q 458 617 490 616 q 370 598 408 619 q 307 542 333 576 q 267 464 281 507 q 245 377 252 420 l 243 353 q 240 300 240 328 q 243 247 239 273 q 255 197 246 221 q 278 156 263 174 q 316 126 294 138 q 372 115 339 115 z "},"£":{"ha":815,"x_min":5,"x_max":812,"o":"m 339 410 l 323 284 q 252 129 311 195 l 718 131 l 694 0 l 5 0 l 28 130 l 75 129 q 112 154 97 138 q 138 191 127 170 q 154 235 148 212 q 163 280 159 258 l 180 410 l 74 410 l 96 538 l 199 538 l 220 705 q 257 827 228 772 q 330 921 286 882 q 434 981 375 960 q 560 1001 492 1002 q 669 980 621 1000 q 749 924 717 960 q 796 839 781 888 q 809 730 812 790 l 653 730 q 649 785 654 760 q 630 829 644 810 q 594 859 616 848 q 540 871 572 869 q 476 858 505 871 q 428 821 448 844 q 395 767 408 798 q 378 706 382 737 l 357 538 l 562 538 l 540 410 l 339 410 z "},"¤":{"ha":815,"x_min":5,"x_max":800,"o":"m 548 52 q 453 3 503 21 q 347 -14 403 -15 q 251 3 297 -13 q 166 52 205 20 l 86 -18 l 5 87 l 89 156 q 72 247 76 201 q 73 340 67 294 q 103 449 81 398 q 162 547 125 500 l 99 630 l 203 722 l 262 644 q 353 686 306 670 q 452 701 400 702 q 544 686 500 701 q 625 642 588 671 l 718 722 l 800 617 l 707 539 q 726 445 722 492 q 725 349 731 398 q 697 247 718 295 q 644 155 677 199 l 706 74 l 602 -18 l 548 52 m 197 338 q 200 258 192 298 q 228 186 208 218 q 280 133 248 154 q 357 111 313 113 q 449 130 406 110 q 523 184 491 150 q 576 262 555 218 q 602 351 597 305 q 599 430 607 390 q 571 501 591 469 q 519 554 551 533 q 442 576 486 574 q 351 557 393 577 q 276 504 309 538 q 223 427 243 471 q 197 338 202 384 z "},"¥":{"ha":815,"x_min":55,"x_max":903,"o":"m 429 553 l 717 987 l 903 987 l 557 503 l 736 503 l 718 404 l 484 404 l 467 307 l 702 307 l 684 208 l 450 208 l 414 0 l 254 0 l 291 208 l 55 208 l 73 307 l 308 307 l 325 404 l 89 404 l 106 503 l 300 503 l 121 987 l 291 987 l 429 553 z "},"¦":{"ha":815,"x_min":224,"x_max":576,"o":"m 224 -183 l 317 356 l 467 356 l 373 -183 l 224 -183 m 487 473 l 337 473 l 427 987 l 576 987 l 487 473 z "},"§":{"ha":815,"x_min":-28,"x_max":806,"o":"m 743 313 q 729 249 741 278 q 699 196 718 220 q 654 153 680 172 q 600 119 629 134 q 647 33 635 80 q 656 -66 660 -14 q 616 -186 650 -136 q 530 -266 582 -235 q 416 -311 479 -297 q 291 -323 353 -324 q 163 -304 222 -322 q 61 -251 104 -286 q -5 -162 18 -216 q -26 -35 -28 -108 l 135 -33 q 144 -103 133 -73 q 177 -152 155 -132 q 230 -181 199 -172 q 300 -192 262 -191 q 363 -186 330 -193 q 424 -165 396 -180 q 472 -126 452 -151 q 497 -68 492 -102 q 485 -7 503 -32 q 440 34 468 17 q 378 61 412 50 q 319 80 345 72 q 216 120 267 98 q 127 174 165 142 q 68 253 90 207 q 52 363 47 298 q 67 426 55 397 q 98 479 79 455 q 141 522 117 503 q 196 557 166 541 q 148 643 161 596 q 140 742 136 690 q 181 861 146 812 q 268 942 216 911 q 382 988 319 974 q 507 1001 445 1002 q 631 981 575 1000 q 726 925 687 962 q 786 834 766 888 q 802 709 806 781 l 645 710 q 638 775 647 746 q 610 825 629 804 q 562 858 591 846 q 497 870 534 869 q 433 864 465 871 q 372 843 400 858 q 325 804 345 828 q 300 744 305 779 q 310 681 294 705 q 353 640 326 656 q 414 614 380 624 q 475 595 447 604 q 579 556 528 578 q 668 502 629 534 q 727 423 706 469 q 743 313 749 377 m 409 457 q 358 473 383 465 q 309 491 334 481 q 244 445 269 473 q 213 372 220 416 q 222 308 207 334 q 263 266 237 283 q 322 238 290 249 q 385 218 355 227 q 435 201 410 210 q 484 184 460 193 q 550 230 523 201 q 585 302 578 258 q 582 346 589 327 q 562 381 576 366 q 530 408 549 396 q 490 428 511 419 q 448 444 469 437 q 409 457 427 451 z "},"¨":{"ha":815,"x_min":260,"x_max":726,"o":"m 260 924 q 285 983 261 960 q 345 1007 309 1006 q 377 1002 361 1007 q 403 986 392 996 q 421 961 414 975 q 427 928 427 946 q 420 896 427 911 q 402 870 414 881 q 375 853 391 859 q 343 846 360 847 q 311 852 326 846 q 284 867 296 857 q 267 892 273 878 q 260 924 260 907 m 559 924 q 584 982 560 959 q 643 1006 608 1004 q 675 1000 660 1006 q 702 985 690 995 q 719 960 713 975 q 726 928 726 945 q 701 869 725 892 q 642 845 677 846 q 609 850 625 845 q 583 866 594 856 q 566 891 572 877 q 559 924 559 906 z "},"©":{"ha":815,"x_min":45,"x_max":758,"o":"m 550 300 q 532 232 546 262 q 496 181 518 202 q 443 150 473 161 q 372 140 412 139 q 301 158 331 141 q 253 202 272 175 q 227 263 235 229 q 221 336 219 298 l 227 397 q 245 474 231 437 q 283 537 259 510 q 342 580 308 564 q 420 595 376 596 q 535 551 496 594 q 571 433 574 508 l 493 434 q 491 472 494 455 q 479 501 488 489 q 455 520 470 513 q 416 527 439 527 q 370 516 389 527 q 336 486 350 505 q 315 445 323 468 q 304 398 307 422 l 299 336 q 300 293 298 315 q 310 252 302 271 q 334 222 318 234 q 376 209 350 210 q 415 215 399 208 q 444 233 432 221 q 463 262 455 245 q 475 299 470 279 l 550 300 m 115 362 q 121 249 108 304 q 164 149 134 193 q 243 78 195 105 q 353 49 290 50 q 479 74 420 47 q 582 146 537 100 q 656 251 627 191 q 692 373 684 310 q 685 486 699 431 q 642 584 672 541 q 564 655 611 628 q 454 684 516 682 q 329 659 387 686 q 225 588 270 633 q 151 485 180 543 q 115 362 121 426 m 53 362 q 75 462 58 413 q 119 554 92 511 q 182 633 146 597 q 261 695 218 669 q 354 735 304 721 q 456 747 403 749 q 549 731 507 746 q 627 690 592 716 q 687 629 661 664 q 729 552 713 593 q 752 466 745 511 q 753 373 758 420 q 731 273 749 322 q 687 181 714 224 q 625 101 661 138 q 546 39 589 65 q 453 -1 503 14 q 351 -14 404 -15 q 217 21 276 -12 q 120 105 159 53 q 63 225 81 158 q 53 362 45 292 z "},"ª":{"ha":815,"x_min":217,"x_max":677,"o":"m 522 477 q 520 541 518 509 q 451 487 490 507 q 366 469 413 468 q 304 479 332 469 q 257 509 277 490 q 227 556 237 528 q 218 618 217 584 q 243 697 220 666 q 300 747 266 729 q 377 773 335 766 q 458 781 418 781 l 551 780 l 556 816 q 556 848 558 833 q 548 875 554 863 q 529 893 541 886 q 497 901 516 900 q 435 886 460 902 q 399 834 409 869 l 284 843 q 311 915 290 884 q 362 964 332 945 q 430 993 393 984 q 506 1001 467 1002 q 581 987 548 1000 q 635 949 614 973 q 667 890 657 924 q 673 814 677 856 l 640 601 q 633 539 634 570 q 637 477 632 509 l 522 477 m 403 565 q 472 583 439 564 q 528 628 505 601 l 540 701 l 456 701 q 418 695 438 700 q 381 682 398 691 q 352 657 364 672 q 338 621 340 642 q 341 595 336 606 q 355 577 346 584 q 377 568 364 571 q 403 565 389 565 z "},"«":{"ha":815,"x_min":117,"x_max":703,"o":"m 252 334 l 366 71 l 265 71 l 117 334 l 118 347 l 349 612 l 469 612 l 252 334 m 487 334 l 600 71 l 500 71 l 351 334 l 353 347 l 584 612 l 703 612 l 487 334 z "},"¬":{"ha":815,"x_min":126,"x_max":696,"o":"m 646 254 l 513 254 l 544 430 l 126 430 l 146 546 l 696 546 l 646 254 z "},"®":{"ha":815,"x_min":47,"x_max":759,"o":"m 52 362 q 73 461 56 413 q 117 553 90 510 q 180 633 144 597 q 259 695 216 669 q 352 735 302 721 q 454 747 401 749 q 588 713 530 745 q 686 628 647 681 q 742 509 724 576 q 752 372 759 442 q 730 272 747 321 q 686 180 713 223 q 623 101 659 137 q 544 39 587 64 q 452 -1 501 13 q 349 -14 403 -16 q 256 2 299 -13 q 178 44 213 18 q 118 105 144 70 q 75 182 92 140 q 53 269 59 223 q 52 362 47 315 m 113 361 q 120 249 106 304 q 163 150 133 193 q 241 78 194 106 q 351 50 289 51 q 477 74 418 47 q 581 146 536 100 q 654 250 626 191 q 690 372 683 309 q 684 485 697 430 q 640 584 671 541 q 562 655 610 628 q 452 684 515 682 q 327 659 385 686 q 223 588 268 633 q 149 484 178 543 q 113 361 120 425 m 326 328 l 298 157 l 222 157 l 290 589 l 425 589 q 481 581 454 588 q 528 558 508 574 q 560 519 549 543 q 570 463 572 496 q 559 422 568 439 q 535 391 549 404 q 502 368 520 378 q 464 350 484 358 l 528 157 l 454 157 l 404 328 l 326 328 m 336 397 l 408 397 q 436 401 422 397 q 463 413 451 405 q 484 432 475 420 q 495 459 492 443 q 494 490 498 478 q 479 509 489 502 q 454 518 469 515 q 424 521 440 520 l 356 522 l 336 397 z "},"¯":{"ha":815,"x_min":246,"x_max":742,"o":"m 725 881 l 246 881 l 264 987 l 742 987 l 725 881 z "},"°":{"ha":815,"x_min":305,"x_max":653,"o":"m 307 813 q 325 885 309 850 q 367 946 341 920 q 427 987 393 972 q 500 1002 461 1002 q 564 986 535 1001 q 612 946 592 970 q 643 890 633 922 q 652 825 653 859 q 634 754 650 788 q 594 694 619 720 q 534 654 568 669 q 463 640 500 639 q 398 654 427 640 q 348 693 369 669 q 316 748 327 717 q 307 813 305 779 m 399 815 q 402 784 398 799 q 416 759 407 770 q 439 742 426 748 q 469 735 453 735 q 503 743 488 735 q 531 762 519 750 q 550 790 543 774 q 560 823 558 806 q 557 854 562 839 q 545 881 553 869 q 523 900 536 892 q 493 907 510 907 q 458 899 475 907 q 430 878 442 891 q 409 849 417 865 q 399 815 401 833 z "},"±":{"ha":815,"x_min":56,"x_max":734,"o":"m 507 608 l 734 608 l 713 475 l 487 475 l 446 210 l 305 210 l 347 475 l 110 475 l 131 608 l 367 608 l 408 865 l 548 865 l 507 608 m 614 1 l 56 1 l 79 132 l 637 132 l 614 1 z "},"²":{"ha":815,"x_min":220,"x_max":671,"o":"m 623 452 l 220 452 l 236 542 l 448 717 q 476 741 461 728 q 505 769 492 754 q 529 801 519 785 q 543 836 540 818 q 532 881 547 865 q 489 897 517 897 q 427 873 450 897 q 396 814 404 850 l 273 813 q 296 890 277 856 q 343 948 314 924 q 409 984 372 972 q 489 996 447 997 q 559 986 526 996 q 618 956 593 976 q 657 907 643 937 q 669 836 671 877 q 652 772 667 802 q 613 718 636 743 q 562 671 590 692 q 509 630 534 649 l 402 552 l 641 552 l 623 452 z "},"³":{"ha":815,"x_min":236,"x_max":680,"o":"m 400 767 l 456 767 q 489 772 473 768 q 519 785 505 776 q 542 807 533 793 q 554 838 551 820 q 552 864 556 853 q 539 881 548 874 q 518 891 530 888 q 493 895 506 895 q 443 883 465 895 q 411 844 420 870 l 286 843 q 309 911 290 882 q 355 959 327 941 q 418 987 383 978 q 490 995 454 996 q 559 986 525 995 q 620 960 593 978 q 663 915 647 943 q 677 846 680 886 q 667 803 676 822 q 643 769 658 784 q 609 743 628 754 q 570 722 591 731 q 629 679 610 709 q 648 607 649 648 q 625 532 646 563 q 572 481 604 500 q 500 452 539 461 q 422 444 460 444 q 351 455 385 445 q 291 486 317 465 q 251 536 266 506 q 236 608 236 567 l 356 607 q 378 560 357 574 q 431 545 399 545 q 464 549 447 545 q 494 562 480 553 q 516 584 507 571 q 528 615 526 597 q 526 646 531 634 q 510 666 520 659 q 485 676 499 673 q 454 680 470 679 l 393 680 l 400 767 z "},"´":{"ha":815,"x_min":317,"x_max":659,"o":"m 468 1002 l 659 1002 l 448 817 l 317 817 l 468 1002 z "},"µ":{"ha":815,"x_min":-3,"x_max":770,"o":"m 332 734 l 262 312 q 258 248 259 282 q 264 186 256 214 q 292 138 272 157 q 352 117 312 119 q 518 199 456 115 l 612 734 l 770 734 l 643 0 l 500 0 l 510 60 q 434 4 475 24 q 342 -14 393 -15 q 275 -5 307 -14 q 214 24 242 3 l 155 -282 l -3 -282 l 174 734 l 332 734 z "},"¶":{"ha":815,"x_min":178,"x_max":755,"o":"m 446 0 l 507 353 l 462 353 q 339 379 393 355 q 248 443 285 402 q 195 541 212 484 q 184 666 178 597 q 222 800 191 741 q 303 902 254 860 q 417 966 352 943 q 555 988 481 988 l 755 987 l 584 0 l 446 0 z "},"·":{"ha":815,"x_min":340,"x_max":524,"o":"m 340 483 q 347 519 340 503 q 366 549 354 536 q 395 569 378 562 q 432 576 412 576 q 469 571 452 577 q 498 553 486 564 q 517 525 510 541 q 524 488 524 508 q 516 451 524 468 q 497 422 509 435 q 468 403 485 410 q 431 395 451 396 q 394 401 411 395 q 366 419 378 407 q 347 447 353 431 q 340 483 340 463 z "},"¸":{"ha":815,"x_min":189,"x_max":426,"o":"m 355 2 l 342 -37 q 405 -75 384 -46 q 425 -147 426 -104 q 400 -224 423 -194 q 343 -272 378 -254 q 268 -296 309 -289 q 189 -304 227 -303 l 193 -211 q 227 -207 210 -210 q 259 -196 244 -203 q 284 -177 273 -189 q 298 -145 294 -165 q 292 -117 300 -127 q 270 -101 283 -106 q 239 -95 256 -96 q 210 -92 223 -93 l 241 1 l 355 2 z "},"¹":{"ha":815,"x_min":323,"x_max":604,"o":"m 516 449 l 394 449 l 461 834 l 323 802 l 341 905 l 589 983 l 604 983 l 516 449 z "},"º":{"ha":815,"x_min":222,"x_max":699,"o":"m 236 773 q 264 866 242 824 q 320 939 286 909 q 399 986 354 970 q 496 1001 444 1002 q 584 982 545 1000 q 649 934 623 964 q 687 863 675 904 q 694 774 699 822 l 685 694 q 657 601 679 644 q 601 529 635 559 q 522 483 567 498 q 426 468 477 467 q 338 487 377 469 q 273 534 299 504 q 235 605 247 564 q 227 694 222 646 l 236 773 m 346 692 q 348 645 344 668 q 363 605 352 623 q 392 577 374 588 q 438 566 410 566 q 489 575 467 565 q 528 603 512 585 q 554 644 545 621 q 568 694 564 667 l 576 774 q 575 822 578 799 q 560 862 571 844 q 530 890 549 880 q 484 901 511 901 q 432 892 455 902 q 393 865 410 882 q 367 824 377 847 q 354 774 357 800 l 346 692 z "},"»":{"ha":815,"x_min":94,"x_max":684,"o":"m 298 636 l 447 373 l 446 359 l 214 94 l 94 94 l 311 372 l 197 636 l 298 636 m 535 636 l 684 373 l 683 359 l 452 94 l 332 94 l 548 372 l 435 636 l 535 636 z "},"¼":{"ha":815,"x_min":117,"x_max":741,"o":"m 291 509 l 181 509 l 242 856 l 117 827 l 133 919 l 356 990 l 370 990 l 291 509 m 236 159 l 155 208 l 597 838 l 679 789 l 236 159 m 679 190 l 740 191 l 723 99 l 666 99 l 648 0 l 537 0 l 555 99 l 344 99 l 352 179 l 616 481 l 729 482 l 679 190 m 466 191 l 570 191 l 601 339 l 591 327 l 466 191 z "},"½":{"ha":815,"x_min":97,"x_max":764,"o":"m 193 159 l 112 208 l 554 838 l 635 789 l 193 159 m 271 508 l 161 508 l 222 855 l 97 825 l 114 918 l 337 988 l 351 988 l 271 508 m 721 0 l 358 0 l 372 81 l 563 238 q 589 260 575 248 q 614 285 602 272 q 636 314 627 299 q 648 345 646 329 q 639 386 652 371 q 600 400 625 400 q 544 379 564 400 q 516 325 524 358 l 406 325 q 426 394 409 363 q 468 446 442 425 q 528 479 494 468 q 600 490 562 490 q 663 480 633 489 q 716 454 693 471 q 751 409 738 436 q 762 345 764 382 q 746 288 760 314 q 712 239 732 261 q 666 197 691 216 q 618 160 641 177 l 522 90 l 737 90 l 721 0 z "},"¾":{"ha":815,"x_min":71,"x_max":767,"o":"m 286 159 l 205 208 l 648 838 l 729 789 l 286 159 m 705 190 l 767 191 l 750 99 l 692 99 l 675 0 l 563 0 l 581 99 l 371 99 l 378 179 l 643 481 l 755 482 l 705 190 m 492 191 l 596 191 l 628 339 l 618 327 l 492 191 m 218 788 l 268 788 q 298 793 284 789 q 325 804 313 796 q 346 824 338 812 q 357 852 354 836 q 355 875 359 866 q 343 891 351 885 q 324 900 335 897 q 302 903 313 903 q 256 892 276 904 q 228 857 237 881 l 116 857 q 136 918 119 892 q 178 961 152 945 q 235 986 203 978 q 299 993 266 994 q 361 986 331 993 q 416 962 392 978 q 455 921 440 946 q 468 860 470 896 q 458 821 467 838 q 437 790 450 804 q 407 766 423 777 q 371 748 390 756 q 425 709 407 736 q 441 644 442 682 q 421 577 440 605 q 373 531 402 549 q 308 505 343 513 q 238 498 273 497 q 174 508 204 498 q 120 535 143 517 q 84 581 97 553 q 71 645 71 608 l 179 644 q 199 602 180 615 q 246 588 218 589 q 275 592 260 588 q 302 604 290 596 q 323 624 315 612 q 334 652 331 636 q 331 680 336 669 q 317 697 326 691 q 294 706 307 704 q 266 710 281 709 l 212 710 l 218 788 z "},"¿":{"ha":815,"x_min":56,"x_max":625,"o":"m 502 445 q 490 371 498 403 q 469 312 483 339 q 434 261 456 286 q 381 210 413 237 q 331 165 357 189 q 282 113 304 140 q 243 55 260 85 q 223 -9 227 24 q 224 -59 220 -36 q 240 -98 228 -81 q 273 -123 252 -114 q 321 -134 293 -133 q 375 -125 351 -134 q 418 -100 399 -117 q 449 -61 436 -84 q 467 -10 461 -38 l 625 -9 q 591 -121 618 -73 q 522 -202 564 -170 q 426 -251 480 -235 q 310 -267 371 -268 q 203 -248 252 -265 q 122 -198 155 -231 q 72 -118 88 -165 q 61 -10 56 -71 q 86 83 65 41 q 137 162 106 125 q 204 231 168 199 q 277 294 241 263 q 310 327 297 310 q 333 361 323 343 q 347 399 342 378 q 355 444 352 420 l 502 445 m 385 650 q 407 713 385 689 q 468 739 429 737 q 530 716 507 739 q 553 656 553 694 q 530 594 553 617 q 468 571 507 572 q 408 591 430 570 q 385 650 385 612 z "},"Æ":{"ha":815,"x_min":-50,"x_max":869,"o":"m 712 0 l 358 0 l 398 231 l 231 231 l 121 0 l -50 0 l 465 987 l 869 987 l 846 856 l 657 856 l 609 576 l 778 576 l 754 445 l 586 445 l 532 131 l 735 131 l 712 0 m 423 375 l 494 780 l 299 375 l 423 375 z "},"×":{"ha":815,"x_min":83,"x_max":767,"o":"m 83 252 l 330 472 l 159 690 l 267 785 l 436 567 l 682 785 l 767 678 l 520 459 l 691 240 l 583 146 l 413 363 l 168 146 l 83 252 z "},"Ø":{"ha":815,"x_min":-50,"x_max":873,"o":"m 751 431 q 726 323 743 377 q 684 219 709 269 q 625 126 659 169 q 548 51 591 83 q 453 2 505 20 q 338 -14 400 -15 q 236 6 280 -12 q 159 58 191 25 l 69 -64 l -50 -64 l 100 140 q 75 208 85 172 q 62 280 66 243 q 58 355 58 317 q 64 430 58 393 l 83 556 q 108 663 92 609 q 150 767 125 718 q 208 861 174 817 q 283 936 241 904 q 378 985 326 967 q 491 1001 429 1002 q 597 979 551 1000 q 677 925 643 959 l 753 1029 l 873 1029 l 735 841 q 759 774 750 809 q 773 703 768 739 q 777 629 777 666 q 771 556 776 592 l 751 431 m 223 429 q 217 367 219 401 q 216 298 214 334 l 586 802 q 544 845 570 828 q 479 863 518 862 q 407 851 439 865 q 351 815 376 838 q 309 760 327 791 q 278 694 291 729 q 257 625 265 660 q 243 557 248 589 l 223 429 m 612 558 q 617 617 615 585 q 618 682 620 649 l 248 180 q 289 139 264 155 q 351 123 313 124 q 424 135 391 121 q 480 171 456 148 q 524 226 505 195 q 556 292 543 258 q 578 362 570 327 q 592 430 587 398 l 612 558 z "},"Þ":{"ha":815,"x_min":27,"x_max":778,"o":"m 357 987 l 324 797 l 477 796 q 599 774 543 794 q 695 718 655 755 q 757 628 736 682 q 772 505 778 574 q 731 373 765 429 q 646 278 698 316 q 528 222 594 241 q 392 203 463 203 l 222 203 l 186 0 l 27 0 l 199 987 l 357 987 m 302 667 l 243 334 l 398 332 q 475 343 438 332 q 540 377 511 355 q 588 431 569 399 q 612 505 607 463 q 609 570 617 541 q 583 620 602 600 q 536 653 564 641 q 472 666 508 665 l 302 667 z "},"ß":{"ha":815,"x_min":36,"x_max":723,"o":"m 194 0 l 36 0 l 161 732 q 196 858 171 798 q 263 964 222 918 q 362 1035 305 1009 q 492 1059 419 1061 q 586 1040 543 1057 q 657 993 628 1023 q 701 920 686 962 q 711 824 715 877 q 691 750 707 783 q 655 687 675 718 q 617 624 635 656 q 592 555 599 593 q 595 500 587 526 q 618 449 604 474 q 652 398 633 423 q 687 347 671 374 q 713 293 703 321 q 721 233 723 264 q 695 128 718 174 q 637 49 673 81 q 552 0 601 17 q 446 -16 503 -16 q 347 -6 397 -15 q 254 28 297 3 l 300 160 q 368 126 331 139 q 444 115 406 113 q 526 146 494 115 q 565 227 557 178 q 560 283 569 256 q 536 335 551 310 q 501 384 520 359 q 466 434 482 408 q 440 489 450 460 q 434 552 431 518 q 445 600 436 578 q 466 643 454 623 q 493 684 479 664 q 519 724 507 703 q 541 767 532 745 q 553 814 551 789 q 552 854 555 833 q 540 891 549 874 q 515 918 530 907 q 476 930 499 929 q 409 913 437 932 q 362 864 380 894 q 333 798 343 833 q 317 731 322 762 l 194 0 z "},"æ":{"ha":815,"x_min":-9,"x_max":802,"o":"m 517 -13 q 466 -8 492 -13 q 418 7 441 -3 q 377 34 396 18 q 345 73 358 50 q 268 10 310 35 q 171 -14 225 -14 q 91 3 125 -13 q 34 46 57 19 q 1 111 12 74 q -7 192 -9 149 q 25 304 -3 258 q 96 380 52 351 q 196 423 140 410 q 311 435 252 436 l 331 435 l 347 526 q 349 556 349 540 q 345 585 349 572 q 330 608 340 599 q 301 617 319 616 q 267 610 281 618 q 243 591 253 603 q 228 563 233 578 q 219 530 222 547 l 67 536 q 91 626 72 586 q 142 693 111 665 q 216 735 174 720 q 307 749 258 749 q 389 734 349 747 q 456 689 428 722 q 531 733 492 718 q 615 747 570 748 q 707 722 669 745 q 766 663 744 699 q 795 579 787 626 q 798 485 802 533 l 772 320 l 459 320 l 451 262 q 451 205 448 231 q 467 160 454 179 q 501 129 479 140 q 557 117 523 118 q 625 128 593 117 q 688 155 656 139 l 711 39 q 668 14 692 24 q 619 -2 644 4 q 568 -11 593 -8 q 517 -13 542 -13 m 473 435 l 644 435 l 655 519 q 655 553 656 536 q 646 585 653 570 q 626 608 639 599 q 593 618 613 617 q 544 606 564 618 q 512 572 524 593 q 492 527 499 551 q 481 479 485 502 l 473 435 m 213 109 q 250 119 233 109 q 282 139 267 128 l 319 324 l 307 324 q 251 313 277 323 q 203 286 224 303 q 168 243 182 268 q 150 189 154 219 q 162 133 146 156 q 213 109 178 109 z "},"ð":{"ha":815,"x_min":15,"x_max":795,"o":"m 656 863 q 721 654 706 760 q 720 435 735 548 l 714 391 q 690 288 707 339 q 647 192 673 237 q 587 107 621 146 q 509 42 552 69 q 416 -1 467 14 q 308 -14 366 -16 q 184 14 239 -12 q 90 83 128 39 q 33 185 52 127 q 21 312 15 244 q 58 450 28 386 q 138 562 89 515 q 251 635 186 609 q 393 660 316 662 q 487 641 442 659 q 568 590 531 623 q 554 692 568 643 q 513 785 541 741 l 328 688 l 286 768 l 448 852 q 407 878 429 867 q 362 898 386 889 l 425 1027 q 516 989 473 1013 q 596 930 559 965 l 754 1014 l 795 933 l 656 863 m 564 459 q 531 496 551 481 q 487 519 511 511 q 437 532 463 528 q 387 536 411 536 q 306 516 342 536 q 243 465 269 496 q 200 393 216 433 q 179 312 184 353 q 181 240 175 275 q 206 178 188 205 q 253 133 224 151 q 321 115 281 116 q 416 137 376 113 q 485 201 456 162 q 530 289 513 241 q 553 382 547 337 l 562 437 l 564 459 z "},"÷":{"ha":815,"x_min":71,"x_max":762,"o":"m 736 395 l 71 395 l 96 538 l 762 538 l 736 395 m 375 739 q 382 774 375 758 q 400 802 389 791 q 429 821 412 814 q 464 828 445 827 q 498 823 482 829 q 527 806 515 817 q 545 779 538 795 q 552 745 552 764 q 545 710 552 726 q 527 682 538 694 q 498 664 515 670 q 463 656 482 657 q 429 662 445 656 q 400 679 412 667 q 382 705 389 690 q 375 739 375 720 m 278 186 q 285 222 278 205 q 303 250 292 238 q 332 269 315 262 q 367 276 348 275 q 401 271 385 277 q 430 253 418 264 q 448 227 441 242 q 455 192 455 211 q 448 157 455 173 q 430 129 441 140 q 401 111 418 117 q 366 104 385 104 q 332 109 348 103 q 303 126 315 115 q 285 152 292 137 q 278 186 278 168 z "},"ø":{"ha":815,"x_min":54,"x_max":752,"o":"m 67 369 q 107 514 77 445 q 186 636 137 584 q 302 719 235 688 q 451 747 369 749 q 520 738 488 746 q 580 716 553 730 l 649 822 l 752 822 l 649 663 q 690 604 673 637 q 717 535 707 572 q 730 457 727 498 q 728 376 732 417 l 727 361 q 687 216 718 285 q 607 95 656 147 q 491 14 558 43 q 343 -14 425 -16 q 224 11 277 -12 l 157 -94 l 54 -94 l 153 60 q 108 119 127 86 q 79 190 90 152 q 64 270 68 228 q 66 355 61 311 l 67 369 m 224 355 q 221 272 219 315 q 239 193 224 229 l 504 599 q 475 612 491 607 q 439 617 459 616 q 351 596 389 618 q 287 537 313 574 q 246 456 261 501 q 225 369 231 412 l 224 355 m 570 375 q 572 450 573 411 q 559 525 570 490 l 300 127 q 355 115 323 115 q 443 135 406 113 q 507 193 481 157 q 548 274 532 229 q 568 361 563 319 l 570 375 z "},"þ":{"ha":815,"x_min":-17,"x_max":723,"o":"m 718 363 q 700 273 712 319 q 668 185 688 227 q 622 105 648 142 q 560 42 595 68 q 482 0 525 15 q 387 -14 439 -16 q 287 6 334 -13 q 206 66 241 26 l 141 -282 l -17 -282 l 214 1052 l 372 1052 l 299 665 q 388 727 340 706 q 495 747 437 749 q 583 730 545 746 q 646 686 620 713 q 688 622 672 659 q 713 545 705 586 q 722 461 722 505 q 719 378 723 418 l 718 363 m 561 378 q 564 428 564 402 q 561 480 564 454 q 550 530 558 507 q 528 572 543 554 q 492 602 514 591 q 440 614 471 613 q 351 592 389 616 q 282 530 312 568 l 224 202 q 274 138 241 159 q 352 115 306 117 q 439 137 403 114 q 501 196 476 159 q 539 277 526 232 q 559 364 553 321 l 561 378 z "},"Ħ":{"ha":815,"x_min":-3,"x_max":878,"o":"m 772 811 l 878 811 l 859 703 l 753 703 l 631 0 l 477 0 l 553 441 l 229 441 l 152 0 l -3 0 l 119 703 l 65 703 l 85 811 l 138 811 l 169 987 l 323 987 l 293 811 l 617 811 l 648 987 l 803 987 l 772 811 m 576 574 l 598 703 l 274 703 l 252 574 l 576 574 z "},"ı":{"ha":815,"x_min":60,"x_max":686,"o":"m 187 734 l 573 734 l 469 134 l 686 134 l 663 0 l 60 0 l 83 134 l 309 134 l 390 599 l 163 599 l 187 734 z "},"Ĳ":{"ha":815,"x_min":12,"x_max":826,"o":"m 144 0 l 12 0 l 183 987 l 316 987 l 144 0 m 694 987 l 826 987 l 696 218 q 668 122 688 165 q 616 48 648 79 q 540 2 585 18 q 440 -13 496 -14 q 351 6 389 -12 q 290 55 314 24 q 256 128 267 86 q 248 218 245 170 l 381 218 q 381 176 380 197 q 389 137 382 155 q 410 108 396 119 q 450 96 425 96 q 499 104 479 94 q 532 131 519 114 q 553 171 545 148 q 564 218 560 193 l 694 987 z "},"ĳ":{"ha":815,"x_min":-22,"x_max":821,"o":"m 509 734 l 784 734 l 658 -4 q 623 -124 648 -71 q 556 -216 597 -178 q 459 -275 515 -254 q 335 -296 404 -296 q 264 -293 299 -296 q 193 -284 229 -290 l 212 -170 q 271 -177 241 -175 q 332 -180 301 -179 q 407 -168 374 -180 q 465 -133 440 -156 q 504 -78 489 -111 q 526 -5 519 -45 l 631 618 l 489 618 l 509 734 m 110 734 l 393 734 l 286 115 l 434 115 l 414 0 l -22 0 l -1 115 l 153 115 l 240 618 l 90 618 l 110 734 m 285 920 q 306 975 285 954 q 360 998 327 997 q 391 994 377 999 q 416 979 406 988 q 432 955 426 969 q 437 924 437 941 q 415 870 437 891 q 361 848 394 849 q 331 852 345 847 q 307 867 317 857 q 291 890 296 877 q 285 920 285 904 m 668 921 q 690 976 669 954 q 744 999 711 998 q 774 994 760 1000 q 799 979 789 989 q 815 956 809 970 q 821 925 821 942 q 799 871 821 892 q 745 848 777 850 q 714 853 728 848 q 690 868 700 858 q 674 891 680 878 q 668 921 668 905 z "},"ĸ":{"ha":815,"x_min":40,"x_max":818,"o":"m 359 304 l 235 208 l 199 0 l 40 0 l 168 734 l 326 734 l 269 406 l 346 480 l 612 734 l 818 734 l 481 413 l 697 0 l 507 0 l 359 304 z "},"Ł":{"ha":815,"x_min":31,"x_max":690,"o":"m 313 591 l 482 642 l 460 512 l 290 462 l 233 133 l 690 133 l 667 0 l 52 0 l 123 412 l 31 385 l 54 515 l 145 542 l 223 987 l 382 987 l 313 591 z "},"ł":{"ha":815,"x_min":64,"x_max":768,"o":"m 245 1042 l 631 1042 l 569 684 l 768 771 l 745 640 l 547 553 l 474 134 l 691 134 l 667 0 l 64 0 l 88 134 l 314 134 l 374 477 l 144 378 l 168 509 l 396 608 l 448 907 l 222 907 l 245 1042 z "},"Ŋ":{"ha":815,"x_min":35,"x_max":808,"o":"m 808 987 l 633 -43 q 604 -146 625 -99 q 550 -226 583 -193 q 469 -278 516 -260 q 363 -297 422 -297 q 319 -294 341 -297 q 276 -285 298 -290 l 300 -157 q 332 -164 315 -161 q 366 -168 349 -168 q 410 -156 391 -168 q 441 -127 429 -145 q 461 -87 454 -109 q 473 -43 469 -65 l 481 0 l 309 659 l 194 0 l 35 0 l 206 987 l 361 987 l 535 330 l 649 987 l 808 987 z "},"ŋ":{"ha":815,"x_min":37,"x_max":714,"o":"m 309 734 l 294 631 q 389 716 335 684 q 513 747 443 749 q 616 721 575 746 q 679 656 656 696 q 708 564 701 616 q 708 457 714 512 l 627 -43 q 599 -146 619 -99 q 545 -227 578 -193 q 466 -280 512 -261 q 361 -298 420 -298 q 317 -295 338 -298 q 273 -286 295 -292 l 295 -153 q 327 -160 311 -157 q 361 -163 344 -163 q 405 -153 387 -163 q 436 -125 423 -142 q 456 -87 449 -109 q 467 -43 464 -66 l 549 456 q 550 516 552 488 q 538 566 549 544 q 506 601 528 587 q 448 614 484 614 q 362 597 401 616 q 290 543 323 578 l 195 0 l 37 0 l 164 734 l 309 734 z "},"Œ":{"ha":815,"x_min":34,"x_max":877,"o":"m 713 0 l 444 0 q 355 -9 399 -3 q 266 -14 311 -14 q 180 2 217 -12 q 116 42 142 17 q 72 100 89 66 q 45 172 54 134 q 35 252 37 210 q 39 336 34 294 l 90 651 q 124 784 100 720 q 188 897 148 848 q 287 974 229 945 q 422 1002 345 1003 q 510 997 467 1002 q 598 987 553 991 l 877 987 l 854 859 l 613 859 l 564 576 l 772 576 l 749 448 l 542 448 l 487 133 l 736 133 l 713 0 m 276 120 q 306 120 291 119 q 336 120 321 120 l 471 872 q 442 874 456 873 q 412 876 427 876 q 332 857 363 876 q 281 806 300 838 q 251 734 261 774 q 235 653 240 694 l 186 336 q 182 291 184 315 q 180 244 180 267 q 185 199 180 220 q 200 160 189 177 q 229 132 211 143 q 276 120 248 121 z "},"œ":{"ha":815,"x_min":6,"x_max":796,"o":"m 32 433 q 59 548 40 491 q 112 650 79 605 q 193 722 144 695 q 309 748 242 749 q 392 731 353 747 q 458 679 431 715 q 528 729 490 710 q 612 747 566 748 q 708 719 671 746 q 766 650 745 692 q 791 557 786 608 q 791 457 796 506 l 769 320 l 488 320 l 483 288 q 479 254 481 273 q 478 217 477 236 q 482 181 478 199 q 494 150 486 163 q 516 127 503 136 q 552 117 530 118 q 611 126 583 117 q 665 152 638 136 l 694 45 q 620 0 661 14 q 533 -14 578 -14 q 444 3 486 -13 q 371 57 401 20 q 294 4 335 23 q 202 -14 252 -15 q 99 17 139 -12 q 38 91 59 46 q 11 191 16 136 q 12 298 6 246 l 32 433 m 167 297 q 163 267 165 285 q 161 229 161 249 q 162 189 160 209 q 171 152 164 168 q 189 125 177 136 q 220 114 201 115 q 273 133 253 113 q 304 182 292 153 q 321 243 316 211 q 329 298 326 275 l 346 435 q 349 466 347 448 q 351 504 351 484 q 350 544 352 524 q 341 580 348 564 q 323 607 335 596 q 291 618 311 617 q 254 610 269 618 q 227 585 238 601 q 208 550 215 570 q 195 510 200 530 q 188 470 191 490 q 183 435 185 450 l 167 297 m 595 618 q 562 609 576 618 q 538 585 548 600 q 522 549 528 569 q 510 510 515 530 q 503 471 506 490 q 498 440 500 453 l 637 440 l 646 498 q 648 534 647 513 q 644 572 648 554 q 628 604 640 591 q 595 618 617 616 z "},"ſ":{"ha":815,"x_min":212,"x_max":802,"o":"m 212 0 l 340 751 q 379 884 351 824 q 454 986 408 943 q 561 1051 499 1028 q 697 1073 622 1074 q 750 1068 724 1072 q 802 1058 776 1063 l 771 935 q 711 943 743 942 q 630 930 667 944 q 567 891 594 916 q 523 830 541 865 q 499 752 506 794 l 370 0 l 212 0 z "},"ƒ":{"ha":815,"x_min":-2,"x_max":828,"o":"m 634 613 l 503 613 l 406 -21 q 376 -133 398 -81 q 318 -220 354 -184 q 231 -277 281 -257 q 117 -297 180 -298 q -2 -271 55 -296 l 21 -143 q 66 -161 41 -155 q 115 -168 92 -168 q 170 -156 147 -168 q 209 -122 193 -143 q 234 -75 224 -102 q 247 -21 243 -49 l 344 613 l 235 613 l 254 734 l 362 734 l 370 793 q 406 912 378 860 q 477 1001 433 965 q 577 1056 520 1038 q 702 1073 635 1074 q 766 1064 734 1072 q 828 1045 797 1056 l 802 918 q 759 935 781 930 q 713 941 736 940 q 590 904 639 942 q 529 793 541 867 l 521 734 l 653 734 l 634 613 z "},"Ơ":{"ha":815,"x_min":60,"x_max":913,"o":"m 754 431 q 729 323 745 377 q 687 219 712 269 q 628 126 662 169 q 551 51 593 83 q 455 2 508 20 q 341 -14 403 -15 q 237 7 282 -12 q 159 60 192 27 q 105 136 126 93 q 73 228 84 179 q 61 329 62 277 q 66 430 60 380 l 86 556 q 111 663 94 609 q 152 767 127 718 q 210 861 177 817 q 286 936 243 904 q 380 985 329 967 q 494 1001 432 1002 q 623 968 570 999 q 711 887 677 937 q 746 909 732 895 q 770 943 760 924 q 785 984 779 962 q 794 1028 790 1006 l 913 1029 q 867 880 905 941 q 755 795 829 819 q 778 677 774 739 q 774 556 782 616 l 754 431 m 614 558 q 620 618 618 585 q 620 685 623 651 q 610 750 618 718 q 586 806 602 781 q 545 846 570 831 q 481 863 519 862 q 410 851 441 865 q 354 815 378 838 q 312 760 330 791 q 281 694 294 729 q 259 625 268 660 q 245 557 251 589 l 226 429 q 220 370 222 403 q 219 303 217 337 q 228 238 220 270 q 251 181 235 206 q 291 140 266 156 q 354 123 316 124 q 426 135 394 121 q 483 171 458 148 q 527 226 508 195 q 559 292 545 258 q 581 362 572 327 q 595 430 589 398 l 614 558 z "},"ơ":{"ha":815,"x_min":56,"x_max":850,"o":"m 64 369 q 104 514 74 445 q 183 636 134 584 q 299 719 233 688 q 448 747 366 749 q 562 724 513 746 q 645 665 610 702 q 679 688 665 673 q 703 721 693 703 q 719 761 713 739 q 730 804 726 782 l 850 805 q 804 663 842 720 q 699 579 766 606 q 725 483 718 534 q 726 376 731 431 l 724 361 q 684 216 715 285 q 605 95 654 147 q 489 14 555 43 q 340 -14 422 -16 q 207 19 263 -12 q 117 101 151 50 q 69 218 82 152 q 63 355 56 283 l 64 369 m 221 355 q 218 302 218 330 q 222 249 218 275 q 235 199 226 222 q 259 157 243 175 q 297 127 275 138 q 352 115 320 115 q 440 135 403 113 q 504 193 478 157 q 545 274 530 229 q 566 361 560 319 l 567 375 q 569 454 571 412 q 554 532 567 496 q 512 592 541 568 q 437 617 484 616 q 348 596 386 618 q 284 537 310 574 q 243 456 258 501 q 222 369 228 412 l 221 355 z "},"Ư":{"ha":815,"x_min":68,"x_max":1053,"o":"m 825 987 l 803 859 q 858 877 836 863 q 894 911 880 890 q 916 961 908 932 q 930 1023 924 989 l 1053 1024 q 976 829 1041 895 q 786 756 910 764 l 713 328 q 672 192 703 255 q 594 83 642 130 q 483 11 546 37 q 342 -14 419 -15 q 218 16 271 -12 q 131 91 165 44 q 83 198 97 137 q 76 326 68 258 l 190 987 l 346 987 l 235 326 q 234 256 231 292 q 250 190 237 220 q 289 140 263 160 q 356 119 315 121 q 435 135 401 117 q 494 182 469 153 q 533 250 518 212 q 555 327 549 288 l 669 987 l 825 987 z "},"ư":{"ha":815,"x_min":75,"x_max":960,"o":"m 500 100 q 456 53 480 75 q 405 17 432 32 q 347 -7 378 1 q 283 -14 317 -15 q 174 15 216 -13 q 109 87 132 43 q 80 187 86 132 q 81 300 75 243 l 153 734 l 311 734 l 239 298 q 235 236 235 267 q 242 179 234 204 q 271 137 250 153 q 330 119 291 120 q 431 141 387 117 q 507 212 475 165 l 597 734 l 756 734 l 739 638 q 806 696 783 656 q 838 795 828 737 l 960 796 q 887 609 948 675 q 720 528 827 544 l 629 0 l 487 0 l 500 100 z "},"ȷ":{"ha":815,"x_min":15,"x_max":609,"o":"m 243 734 l 609 734 l 481 -12 q 445 -134 472 -81 q 375 -224 418 -188 q 275 -279 332 -260 q 148 -297 218 -298 q 81 -294 114 -297 q 15 -285 48 -290 l 39 -153 q 149 -163 94 -163 q 267 -124 223 -165 q 323 -12 311 -83 l 427 599 l 220 599 l 243 734 z "},"ə":{"ha":815,"x_min":87,"x_max":745,"o":"m 449 747 q 584 716 526 746 q 678 638 642 687 q 730 524 715 589 q 739 386 745 458 l 736 357 q 696 217 727 285 q 616 97 665 149 q 502 15 567 45 q 358 -13 436 -15 q 232 15 286 -11 q 146 85 179 41 q 100 189 113 130 q 96 317 87 248 l 110 413 l 583 413 q 579 488 586 452 q 554 552 572 524 q 506 597 536 580 q 433 616 476 615 q 317 602 372 618 q 211 554 262 585 l 168 662 q 230 703 197 686 q 300 730 264 720 q 375 744 337 740 q 449 747 413 748 m 369 116 q 439 131 408 115 q 494 172 470 146 q 536 230 518 197 q 566 294 554 262 l 250 294 l 246 275 q 246 213 241 242 q 267 163 252 184 q 308 129 283 142 q 369 116 334 117 z "},"ˆ":{"ha":815,"x_min":176,"x_max":627,"o":"m 627 865 l 625 846 l 502 846 l 420 939 l 306 847 l 176 846 l 178 867 l 377 1029 l 468 1029 l 627 865 z "},"ˇ":{"ha":815,"x_min":284,"x_max":747,"o":"m 495 937 l 607 1028 l 747 1029 l 746 1015 l 541 846 l 443 846 l 284 1015 l 285 1029 l 415 1029 l 495 937 z "},"˘":{"ha":815,"x_min":288,"x_max":707,"o":"m 707 983 q 685 902 704 937 q 637 841 667 866 q 567 804 607 817 q 483 792 528 791 q 404 806 439 793 q 341 845 368 820 q 301 904 315 869 q 288 983 288 939 l 407 983 q 423 915 406 942 q 486 888 441 888 q 526 895 508 888 q 556 914 543 901 q 577 944 569 926 q 590 982 586 962 l 707 983 z "},"˙":{"ha":815,"x_min":406,"x_max":585,"o":"m 406 919 q 413 955 406 938 q 432 983 420 971 q 460 1002 444 995 q 496 1009 476 1008 q 531 1004 515 1010 q 559 986 547 998 q 578 959 572 975 q 585 924 585 943 q 559 860 585 885 q 495 835 534 836 q 460 840 476 834 q 432 858 444 846 q 413 884 420 869 q 406 919 406 900 z "},"˚":{"ha":815,"x_min":343,"x_max":621,"o":"m 345 855 q 358 911 345 885 q 391 956 370 937 q 438 985 411 975 q 494 996 465 996 q 545 985 522 996 q 585 958 568 975 q 612 917 602 941 q 621 866 621 893 q 608 811 620 836 q 576 767 595 785 q 530 738 556 748 q 474 728 503 728 q 423 737 447 728 q 381 764 399 747 q 353 804 363 781 q 345 855 343 827 m 417 857 q 419 832 416 844 q 430 811 422 821 q 449 797 438 802 q 473 791 460 791 q 501 798 488 791 q 524 814 514 804 q 540 837 534 824 q 548 864 546 850 q 546 889 549 877 q 536 910 543 901 q 519 925 530 920 q 494 931 509 931 q 466 925 479 931 q 443 909 453 919 q 425 885 432 899 q 417 857 418 871 z "},"˛":{"ha":815,"x_min":168,"x_max":425,"o":"m 425 -2 q 383 -25 404 -12 q 344 -55 361 -38 q 314 -92 326 -71 q 299 -138 302 -113 q 304 -169 296 -158 q 334 -181 313 -180 q 365 -177 349 -182 q 395 -166 380 -172 l 414 -263 q 356 -285 387 -278 q 296 -291 326 -292 q 243 -281 267 -291 q 202 -255 219 -272 q 176 -214 185 -238 q 169 -161 168 -191 q 186 -94 170 -125 q 227 -38 202 -63 q 282 7 252 -13 q 342 41 313 27 l 425 -2 z "},"˜":{"ha":815,"x_min":159,"x_max":648,"o":"m 648 1020 q 634 960 645 989 q 603 908 623 930 q 557 871 584 885 q 496 857 530 857 q 449 867 471 857 q 406 890 427 878 q 363 912 385 902 q 316 921 341 922 q 288 914 300 920 q 267 898 276 908 q 253 876 258 888 q 243 849 247 863 l 159 868 q 174 928 163 899 q 205 981 186 958 q 252 1018 224 1004 q 313 1032 279 1032 q 360 1022 338 1032 q 403 1000 382 1012 q 447 978 425 987 q 494 968 469 968 q 522 975 509 969 q 543 991 534 981 q 558 1014 552 1001 q 569 1040 565 1026 l 648 1020 z "},"˝":{"ha":815,"x_min":218,"x_max":787,"o":"m 605 1029 l 787 1029 l 553 849 l 412 849 l 605 1029 m 377 1029 l 547 1029 l 351 849 l 218 849 l 377 1029 z "},"˳":{"ha":815,"x_min":185,"x_max":399,"o":"m 186 -159 q 196 -117 186 -136 q 220 -82 205 -97 q 256 -59 236 -68 q 299 -51 277 -51 q 338 -58 320 -51 q 370 -79 357 -66 q 391 -111 384 -92 q 398 -151 399 -130 q 389 -192 397 -173 q 365 -225 380 -211 q 331 -248 351 -239 q 289 -256 311 -256 q 249 -249 268 -256 q 216 -229 230 -242 q 193 -198 201 -216 q 186 -159 185 -180 m 253 -157 q 261 -183 254 -172 q 286 -195 267 -195 q 316 -182 302 -195 q 332 -153 329 -169 q 326 -125 334 -138 q 302 -112 318 -112 q 284 -116 292 -112 q 270 -126 276 -119 q 260 -140 264 -132 q 253 -157 256 -149 z "},"̀":{"ha":815,"x_min":-439,"x_max":-257,"o":"m -257 821 l -350 821 l -439 1058 l -310 1058 l -257 821 z "},"́":{"ha":815,"x_min":-364,"x_max":-91,"o":"m -233 1059 l -91 1059 l -262 820 l -364 820 l -233 1059 z "},"̃":{"ha":815,"x_min":-518,"x_max":-30,"o":"m -30 1020 q -44 960 -33 989 q -74 908 -55 930 q -120 871 -94 885 q -181 857 -147 857 q -229 867 -207 857 q -272 890 -251 878 q -315 912 -293 902 q -361 921 -336 922 q -389 914 -377 920 q -410 898 -401 908 q -425 876 -419 888 q -435 849 -431 863 l -518 868 q -503 928 -515 899 q -472 981 -492 958 q -426 1018 -453 1004 q -365 1032 -399 1032 q -318 1022 -340 1032 q -274 1000 -296 1012 q -231 978 -253 987 q -184 968 -209 968 q -156 975 -168 969 q -135 991 -144 981 q -119 1014 -125 1001 q -109 1040 -113 1026 l -30 1020 z "},"̉":{"ha":815,"x_min":-374,"x_max":-134,"o":"m -374 850 l -364 949 q -334 952 -351 951 q -302 959 -317 954 q -275 973 -286 964 q -261 1000 -263 983 q -268 1026 -258 1017 q -293 1039 -278 1035 q -324 1044 -308 1043 q -351 1044 -340 1044 l -340 1127 q -274 1121 -311 1126 q -207 1103 -238 1116 q -154 1065 -175 1089 q -135 1001 -134 1040 q -145 959 -136 977 q -169 928 -154 941 q -204 908 -184 916 q -245 897 -224 901 l -253 849 l -374 850 z "},"̏":{"ha":815,"x_min":-562,"x_max":-55,"o":"m -250 849 l -396 849 l -562 1029 l -379 1029 l -250 849 m -55 849 l -191 849 l -320 1029 l -148 1029 l -55 849 z "},"̣":{"ha":815,"x_min":-583,"x_max":-396,"o":"m -583 -159 q -575 -122 -583 -138 q -555 -94 -568 -106 q -526 -75 -543 -82 q -489 -68 -509 -68 q -453 -73 -470 -67 q -423 -91 -435 -79 q -403 -118 -410 -102 q -396 -153 -396 -134 q -404 -190 -396 -174 q -424 -218 -411 -206 q -453 -236 -436 -230 q -490 -243 -471 -243 q -526 -238 -509 -243 q -555 -221 -543 -232 q -575 -194 -568 -210 q -583 -159 -583 -178 z "},"΄":{"ha":815,"x_min":448,"x_max":707,"o":"m 541 1129 l 707 1129 l 530 859 l 448 859 l 541 1129 z "},"΅":{"ha":815,"x_min":260,"x_max":784,"o":"m 554 1198 l 722 1198 l 589 998 l 488 998 l 554 1198 m 260 916 q 267 950 260 935 q 285 978 273 966 q 312 996 296 989 q 347 1003 328 1002 q 381 998 365 1004 q 408 981 397 991 q 427 955 420 970 q 433 921 433 939 q 427 887 433 903 q 408 860 420 871 q 381 842 397 848 q 347 835 365 836 q 313 840 329 834 q 285 856 297 846 q 267 882 273 867 q 260 916 260 897 m 610 916 q 617 951 610 935 q 635 978 624 966 q 663 996 647 989 q 698 1003 680 1003 q 731 998 715 1004 q 759 981 747 992 q 777 955 770 970 q 784 922 784 940 q 777 887 784 903 q 759 860 770 871 q 731 842 747 848 q 697 835 715 836 q 663 840 679 834 q 636 857 648 846 q 617 883 624 867 q 610 916 610 898 z "},"·":{"ha":815,"x_min":381,"x_max":565,"o":"m 381 483 q 388 519 381 503 q 408 549 395 536 q 437 569 420 562 q 473 576 454 576 q 510 571 493 577 q 539 553 527 564 q 558 525 551 541 q 565 488 565 508 q 558 451 565 468 q 538 422 551 435 q 509 403 526 410 q 472 395 492 396 q 436 401 452 395 q 407 419 419 407 q 388 447 395 431 q 381 483 381 463 z "},"Γ":{"ha":815,"x_min":35,"x_max":810,"o":"m 787 856 l 342 856 l 194 0 l 35 0 l 205 987 l 810 987 l 787 856 z "},"Δ":{"ha":815,"x_min":-48,"x_max":745,"o":"m 454 987 l 604 987 l 745 0 l -48 0 l 454 987 m 186 131 l 570 131 l 494 765 l 186 131 z "},"Θ":{"ha":815,"x_min":62,"x_max":783,"o":"m 551 431 l 271 431 l 294 561 l 574 561 l 551 431 m 757 431 q 731 323 748 377 q 690 219 715 269 q 631 126 665 169 q 554 51 597 83 q 458 2 511 20 q 344 -14 406 -15 q 240 7 285 -12 q 162 60 195 27 q 108 136 129 93 q 76 228 87 179 q 64 329 65 277 q 69 430 62 380 l 89 556 q 114 663 97 609 q 155 767 130 718 q 213 861 180 817 q 289 936 246 904 q 383 985 332 967 q 496 1001 435 1002 q 602 980 556 1000 q 681 928 647 960 q 736 852 714 895 q 769 759 758 808 q 782 658 780 710 q 777 556 783 606 l 757 431 m 617 558 q 623 618 621 585 q 623 685 625 651 q 613 750 621 718 q 589 806 605 781 q 548 846 573 831 q 484 863 522 862 q 413 851 444 865 q 357 815 381 838 q 314 760 332 791 q 283 694 296 729 q 262 625 271 660 q 248 557 254 589 l 229 429 q 222 370 224 403 q 221 303 220 337 q 231 238 223 270 q 253 181 238 206 q 294 140 269 156 q 357 123 319 124 q 429 135 397 121 q 486 171 461 148 q 529 226 511 195 q 562 292 548 258 q 584 362 575 327 q 597 430 592 398 l 617 558 z "},"Λ":{"ha":815,"x_min":-50,"x_max":714,"o":"m 468 756 l 119 0 l -50 0 l 428 987 l 579 987 l 714 0 l 555 0 l 468 756 z "},"Ξ":{"ha":815,"x_min":16,"x_max":802,"o":"m 39 131 l 669 131 l 646 0 l 16 0 l 39 131 m 178 572 l 679 572 l 656 444 l 155 444 l 178 572 m 194 987 l 802 987 l 779 856 l 171 856 l 194 987 z "},"Π":{"ha":815,"x_min":21,"x_max":813,"o":"m 642 0 l 482 0 l 631 856 l 329 856 l 180 0 l 21 0 l 193 987 l 813 987 l 642 0 z "},"Σ":{"ha":815,"x_min":2,"x_max":826,"o":"m 559 487 l 236 131 l 703 131 l 680 1 l 2 1 l 21 110 l 394 501 l 156 891 l 174 987 l 826 987 l 802 856 l 352 856 l 561 501 l 559 487 z "},"Φ":{"ha":815,"x_min":52,"x_max":818,"o":"m 573 849 q 687 806 639 839 q 765 724 735 772 q 806 617 794 676 q 812 495 818 557 q 775 358 804 421 q 701 247 747 294 q 592 169 654 199 q 456 131 530 138 l 429 0 l 271 0 l 297 132 q 183 174 231 142 q 105 255 135 207 q 63 361 75 302 q 58 483 52 420 q 94 621 65 557 q 169 734 122 685 q 277 813 215 783 q 414 850 340 844 l 442 987 l 601 987 l 573 849 m 215 483 q 212 415 211 450 q 223 352 213 381 q 255 300 234 322 q 313 267 277 277 l 398 715 q 323 684 355 706 q 269 631 291 662 q 233 562 246 600 q 215 483 220 524 m 654 495 q 657 563 658 528 q 646 627 656 597 q 614 680 635 657 q 557 713 593 703 l 472 265 q 546 296 514 275 q 600 349 578 318 q 635 417 623 379 q 654 495 648 454 z "},"Ψ":{"ha":815,"x_min":79,"x_max":886,"o":"m 490 356 q 560 390 531 368 q 609 443 589 412 q 641 509 629 473 q 659 585 652 545 l 727 987 l 886 987 l 818 585 q 780 450 807 511 q 711 341 753 388 q 609 264 668 294 q 475 224 550 234 l 432 0 l 273 0 l 316 225 q 199 269 247 236 q 124 351 152 302 q 88 459 97 399 q 87 585 79 519 l 155 987 l 314 987 l 246 584 q 241 517 242 551 q 249 451 241 482 q 277 396 258 420 q 332 358 296 371 l 444 987 l 604 987 l 490 356 z "},"Ω":{"ha":815,"x_min":-5,"x_max":787,"o":"m 400 161 q 466 194 437 172 q 516 247 494 216 q 552 313 537 277 q 578 386 568 349 q 595 461 589 424 q 606 531 602 498 l 612 576 q 617 634 615 602 q 617 697 619 665 q 608 760 615 729 q 586 814 602 790 q 547 853 571 838 q 486 869 522 868 q 416 858 447 871 q 360 823 385 846 q 318 771 336 801 q 287 708 300 741 q 267 640 275 674 q 254 574 258 606 l 249 530 q 242 472 246 506 q 236 401 238 439 q 236 326 234 364 q 248 255 238 288 q 276 197 257 222 q 326 161 294 172 l 300 0 l -5 0 l 18 132 l 190 134 q 94 321 121 218 q 81 531 68 423 l 87 574 q 130 732 98 654 q 214 870 162 809 q 337 967 266 930 q 498 1001 408 1003 q 600 981 555 1000 q 679 932 645 963 q 734 860 712 901 q 769 772 757 819 q 785 674 782 725 q 781 574 787 624 l 775 531 q 746 412 766 470 q 694 303 726 355 q 621 207 663 251 q 527 130 579 163 l 704 132 l 680 0 l 374 0 l 400 161 z "},"α":{"ha":815,"x_min":62,"x_max":728,"o":"m 728 734 l 638 203 q 636 179 637 193 q 637 155 635 166 q 646 135 640 143 q 667 125 653 126 q 683 125 675 124 q 698 127 690 126 l 702 6 q 621 -13 664 -14 q 575 -7 597 -13 q 536 9 554 -2 q 505 37 518 20 q 486 79 492 54 q 393 9 444 34 q 279 -14 342 -15 q 197 3 232 -13 q 136 46 161 19 q 96 107 111 73 q 72 181 80 142 q 63 261 64 220 q 66 340 62 302 l 68 355 q 85 445 73 399 q 115 536 96 492 q 159 619 133 580 q 218 687 184 658 q 295 732 252 716 q 390 747 338 749 q 492 723 446 746 q 569 652 538 700 l 622 734 l 728 734 m 226 338 q 222 269 222 307 q 231 197 221 231 q 263 140 240 163 q 329 116 286 117 q 409 133 374 115 q 474 184 445 152 l 477 204 l 539 551 q 489 600 519 584 q 420 618 458 616 q 359 607 386 618 q 312 574 332 595 q 278 527 292 554 q 253 470 263 500 q 237 410 243 440 q 227 353 231 379 l 226 338 z "},"β":{"ha":815,"x_min":-9,"x_max":771,"o":"m 506 1002 q 613 982 564 1000 q 699 930 663 964 q 753 848 734 897 q 766 739 771 800 q 750 671 763 702 q 715 613 736 640 q 666 566 694 587 q 608 529 639 545 q 666 486 642 511 q 705 430 690 460 q 726 363 720 399 q 728 291 731 328 q 696 165 723 222 q 624 67 669 108 q 520 5 580 27 q 391 -15 461 -16 q 295 0 342 -14 q 208 43 248 14 l 149 -266 l -9 -266 l 159 716 q 199 833 168 780 q 278 924 231 886 q 384 983 325 962 q 506 1002 442 1003 m 435 583 q 553 623 507 584 q 606 734 598 662 q 602 786 608 762 q 582 830 596 811 q 545 860 568 849 q 494 872 523 871 q 430 861 459 873 q 377 828 400 849 q 338 778 354 807 q 317 717 323 749 l 224 171 q 293 127 253 140 q 374 114 333 115 q 448 126 414 113 q 508 163 481 140 q 551 220 534 187 q 572 291 568 252 q 572 351 576 321 q 554 404 568 380 q 518 442 541 427 q 460 459 494 457 l 371 460 l 393 583 l 435 583 z "},"γ":{"ha":815,"x_min":95,"x_max":845,"o":"m 675 734 l 845 734 l 421 17 l 369 -283 l 211 -283 l 267 36 l 95 734 l 252 734 l 365 200 l 367 160 l 391 216 l 675 734 z "},"δ":{"ha":815,"x_min":52,"x_max":749,"o":"m 242 848 q 271 946 245 905 q 336 1013 296 987 q 426 1052 376 1040 q 527 1063 475 1064 q 631 1046 581 1063 q 730 1007 682 1029 l 689 899 q 609 927 650 915 q 526 939 568 939 q 484 933 505 939 q 444 918 463 928 q 413 892 426 908 q 395 852 399 876 q 401 814 391 831 q 427 785 411 798 q 462 763 443 772 q 496 747 481 753 q 609 684 559 720 q 690 600 658 647 q 735 494 722 553 q 743 366 749 436 l 741 351 q 699 207 731 274 q 616 90 667 139 q 498 12 566 40 q 350 -14 431 -16 q 215 17 273 -12 q 120 94 157 46 q 68 207 83 142 q 59 344 52 271 l 60 358 q 89 465 67 415 q 146 555 111 515 q 229 622 182 595 q 332 661 276 650 l 340 675 q 265 746 291 701 q 242 848 239 791 m 219 349 q 217 295 216 323 q 222 242 217 268 q 237 194 227 216 q 264 154 248 171 q 304 126 281 136 q 361 115 328 115 q 451 134 412 113 q 517 189 490 155 q 561 268 544 224 q 583 356 577 311 l 585 369 q 583 443 589 404 q 559 515 576 481 q 513 574 542 549 q 445 604 485 598 q 382 599 411 608 q 330 573 354 591 q 288 531 307 556 q 256 478 269 506 q 233 420 242 450 q 221 363 224 390 l 219 349 z "},"ε":{"ha":815,"x_min":52,"x_max":768,"o":"m 54 202 q 71 269 56 240 q 109 318 85 297 q 162 355 132 340 q 224 381 192 370 q 184 407 203 392 q 152 439 165 421 q 130 480 138 458 q 124 528 123 502 q 142 606 125 572 q 186 664 159 640 q 248 705 213 688 q 322 730 283 721 q 400 744 360 740 q 475 747 439 747 q 545 740 509 746 q 612 723 580 734 q 673 694 645 711 q 723 652 702 676 q 756 596 745 627 q 768 525 768 564 l 612 526 q 598 572 612 554 q 561 601 583 590 q 513 616 539 612 q 464 621 487 621 q 408 617 438 621 q 351 603 378 614 q 303 572 323 592 q 279 522 283 553 q 287 474 274 492 q 320 448 299 457 q 367 437 341 439 q 414 433 393 434 l 581 433 l 560 316 l 410 317 q 348 313 380 317 q 287 299 315 310 q 238 267 258 288 q 213 210 218 245 q 224 160 209 179 q 264 129 239 140 q 317 114 288 118 q 368 110 345 110 q 427 115 395 110 q 487 132 458 119 q 536 165 515 144 q 564 217 557 186 l 722 218 q 681 107 716 152 q 594 35 646 62 q 482 -3 543 8 q 364 -14 421 -15 q 295 -8 332 -13 q 223 6 258 -4 q 156 33 188 16 q 101 73 125 49 q 65 128 78 96 q 54 202 52 160 z "},"ζ":{"ha":815,"x_min":56,"x_max":805,"o":"m 805 987 l 787 884 l 476 605 q 395 536 436 571 q 320 463 355 502 q 262 379 286 425 q 230 278 237 334 q 228 231 227 252 q 239 194 230 210 q 264 165 248 177 q 306 146 280 153 l 437 115 q 499 96 469 107 q 552 68 530 85 q 587 24 574 50 q 597 -41 600 -2 q 580 -106 595 -75 q 542 -167 564 -138 q 491 -219 519 -195 q 438 -262 464 -243 l 359 -191 q 383 -164 370 -178 q 407 -135 395 -151 q 426 -104 418 -120 q 437 -69 434 -87 q 433 -43 439 -54 q 418 -25 428 -33 q 395 -14 408 -18 q 370 -6 382 -9 l 257 17 q 107 100 158 39 q 67 264 56 161 q 104 387 74 330 q 178 494 135 444 q 271 589 221 545 q 368 672 321 633 l 572 857 l 142 857 l 165 987 l 805 987 z "},"η":{"ha":815,"x_min":24,"x_max":728,"o":"m 296 734 l 280 627 q 382 716 324 683 q 513 747 440 749 q 619 724 576 746 q 687 663 662 701 q 720 573 712 625 q 722 464 728 522 l 595 -281 l 437 -281 l 564 463 q 564 524 568 496 q 546 571 559 551 q 509 603 533 591 q 450 616 486 614 q 357 599 399 617 q 278 545 314 581 l 182 0 l 24 0 l 151 734 l 296 734 z "},"θ":{"ha":815,"x_min":106,"x_max":747,"o":"m 701 365 q 665 223 690 292 q 597 101 640 155 q 495 16 555 47 q 351 -14 434 -16 q 259 3 299 -13 q 192 47 220 20 q 145 110 163 74 q 118 188 127 146 q 107 275 109 230 q 112 364 106 319 l 153 620 q 189 761 163 692 q 256 884 214 830 q 359 971 298 939 q 503 1002 420 1004 q 595 984 555 1000 q 663 940 635 967 q 709 876 692 912 q 736 797 727 839 q 746 709 745 755 q 741 620 747 664 l 701 365 m 553 437 l 281 437 l 267 334 q 262 289 264 313 q 262 240 260 264 q 269 194 263 216 q 286 155 274 172 q 316 127 297 138 q 364 115 335 116 q 441 133 410 113 q 492 185 473 153 q 523 256 512 217 q 538 334 533 296 l 553 437 m 303 564 l 575 564 l 588 652 q 592 698 591 674 q 593 746 594 722 q 586 792 591 770 q 569 832 581 814 q 537 860 557 849 q 490 871 518 870 q 413 853 444 873 q 362 801 382 833 q 332 729 342 769 q 316 652 321 690 l 303 564 z "},"ι":{"ha":815,"x_min":151,"x_max":655,"o":"m 174 734 l 543 734 l 460 233 q 458 188 457 208 q 467 153 459 168 q 491 130 475 138 q 534 121 507 121 q 587 130 562 121 q 636 152 612 139 l 655 36 q 577 -3 617 9 q 490 -14 536 -15 q 393 6 432 -13 q 332 58 355 25 q 302 136 309 91 q 300 235 295 181 l 361 599 l 151 599 l 174 734 z "},"λ":{"ha":815,"x_min":-45,"x_max":694,"o":"m 134 0 l -45 0 l 336 715 l 321 779 q 310 819 317 798 q 292 859 303 841 q 264 890 281 878 q 225 905 248 903 q 200 904 213 905 q 175 903 187 903 l 185 1025 q 228 1034 206 1030 q 271 1036 249 1037 q 342 1020 311 1036 q 399 979 374 1004 q 439 921 423 954 q 465 852 456 888 l 592 233 q 600 200 595 218 q 612 166 604 182 q 632 138 620 150 q 663 124 644 126 q 678 124 670 123 q 694 125 686 125 l 679 -3 q 656 -9 667 -7 q 634 -12 646 -11 q 559 4 592 -12 q 504 46 527 20 q 465 107 480 73 q 440 178 449 142 l 376 509 l 338 412 l 134 0 z "},"ξ":{"ha":815,"x_min":90,"x_max":795,"o":"m 760 844 q 689 862 724 854 q 616 869 654 869 q 572 868 596 869 q 523 863 547 867 q 474 851 498 859 q 430 830 450 843 q 398 799 411 817 q 380 754 385 780 q 392 689 374 713 q 441 653 410 665 q 507 636 471 640 q 573 632 543 633 l 678 632 l 654 500 l 568 500 q 463 492 515 500 q 367 460 410 483 q 293 399 323 438 q 256 300 262 360 q 263 230 251 259 q 299 180 275 200 q 355 146 323 159 q 422 125 387 133 l 488 108 q 551 89 521 100 q 604 62 581 79 q 638 19 626 45 q 648 -47 651 -7 q 631 -113 646 -81 q 592 -173 615 -144 q 542 -225 570 -201 q 489 -268 515 -250 l 412 -197 q 437 -170 425 -184 q 460 -141 450 -156 q 479 -109 471 -125 q 489 -74 486 -92 q 486 -48 491 -58 q 470 -31 480 -38 q 448 -20 460 -24 q 423 -12 435 -16 l 387 -2 q 269 36 324 15 q 173 91 214 58 q 112 175 133 125 q 96 299 90 224 q 124 399 101 356 q 182 475 146 443 q 263 531 218 508 q 359 569 309 553 q 305 598 330 581 q 261 638 279 615 q 232 688 242 661 q 224 750 222 716 q 245 838 227 800 q 293 904 264 876 q 361 951 323 932 q 443 981 400 970 q 530 997 486 992 q 614 1002 574 1002 q 706 994 661 1002 q 795 972 751 987 l 760 844 z "},"π":{"ha":815,"x_min":77,"x_max":812,"o":"m 789 606 l 695 606 l 627 199 q 625 170 625 184 q 628 145 625 156 q 641 128 632 134 q 669 121 650 121 q 700 126 685 121 q 730 136 714 130 l 749 24 q 686 -5 718 4 q 617 -13 654 -14 q 539 5 569 -12 q 492 51 509 22 q 470 117 475 79 q 470 198 466 155 l 537 606 l 340 606 l 235 0 l 77 0 l 182 606 l 96 606 l 119 734 l 812 734 l 789 606 z "},"ρ":{"ha":815,"x_min":-24,"x_max":726,"o":"m 719 347 q 688 215 711 280 q 625 98 665 149 q 528 15 585 46 q 394 -15 471 -16 q 287 7 336 -14 q 201 73 237 28 l 134 -282 l -24 -282 l 91 390 q 132 529 102 463 q 210 644 162 595 q 321 721 257 693 q 465 747 386 749 q 560 730 519 746 q 632 686 602 713 q 682 622 662 659 q 712 543 701 585 q 724 454 722 500 q 721 361 726 408 l 719 347 m 563 361 q 567 412 566 384 q 566 468 568 439 q 558 523 564 496 q 538 570 551 549 q 503 604 524 591 q 449 618 481 617 q 368 597 402 618 q 310 541 334 575 q 271 465 286 507 q 249 385 256 423 l 244 380 l 248 381 l 217 201 q 274 136 237 157 q 358 115 310 116 q 443 134 407 113 q 504 187 479 154 q 542 262 528 220 q 562 347 556 304 l 563 361 z "},"ς":{"ha":815,"x_min":52,"x_max":726,"o":"m 448 747 q 563 727 511 746 q 651 672 614 708 q 707 586 688 637 q 724 471 726 535 l 575 471 q 542 577 578 539 q 437 617 506 616 q 349 597 387 618 q 284 542 311 576 q 241 464 257 507 q 220 377 226 420 l 216 353 q 218 271 211 308 q 243 204 224 233 q 294 156 262 176 q 371 128 326 136 q 425 118 397 123 q 480 103 453 112 q 530 82 507 95 q 572 52 554 70 q 600 9 590 34 q 608 -50 609 -16 q 585 -133 606 -96 q 534 -200 565 -171 q 464 -252 503 -230 q 387 -291 426 -275 l 328 -192 q 368 -171 348 -183 q 406 -143 389 -159 q 436 -108 423 -127 q 452 -66 448 -89 q 444 -33 455 -45 q 414 -14 432 -20 q 376 -4 396 -7 q 342 2 356 -1 q 216 43 271 14 q 123 116 160 72 q 69 220 86 161 q 60 352 52 279 l 62 377 q 102 521 71 453 q 183 640 134 589 q 300 720 233 691 q 448 747 367 749 z "},"σ":{"ha":815,"x_min":45,"x_max":819,"o":"m 795 602 l 622 600 q 685 481 665 545 q 698 348 704 418 l 696 333 q 657 197 688 260 q 578 85 627 133 q 466 11 530 38 q 326 -14 401 -16 q 193 20 248 -12 q 104 103 138 52 q 58 221 71 155 q 53 357 45 287 l 55 372 q 95 514 64 448 q 174 629 125 581 q 289 706 223 678 q 435 734 355 734 l 819 734 l 795 602 m 212 355 q 209 303 210 330 q 212 250 208 276 q 223 199 215 223 q 247 157 232 175 q 284 127 262 138 q 338 115 307 115 q 425 136 389 113 q 486 195 461 159 q 524 275 510 231 q 543 361 538 319 l 545 375 q 547 451 549 411 q 532 524 545 490 q 492 579 519 557 q 420 603 465 602 q 334 584 371 604 q 273 530 298 564 q 234 454 248 496 q 214 370 219 412 l 212 355 z "},"τ":{"ha":815,"x_min":110,"x_max":751,"o":"m 728 599 l 502 599 l 443 239 q 441 193 440 215 q 449 155 441 172 q 472 130 456 139 q 517 120 488 120 q 570 128 545 120 q 621 147 595 136 l 635 28 q 556 -5 596 5 q 471 -14 515 -15 q 374 8 412 -12 q 314 63 336 28 q 286 145 292 98 q 286 245 280 191 l 344 599 l 110 599 l 134 734 l 751 734 l 728 599 z "},"υ":{"ha":815,"x_min":68,"x_max":731,"o":"m 305 734 l 236 312 q 234 242 232 277 q 249 179 236 208 q 286 133 261 151 q 353 114 311 115 q 416 125 388 113 q 466 159 444 138 q 504 208 488 180 q 533 267 521 236 q 552 329 545 298 q 564 388 559 360 q 572 563 576 475 q 545 735 568 650 l 698 734 q 719 649 711 692 q 729 562 726 606 q 729 474 731 518 q 721 387 726 430 q 684 236 711 309 q 611 107 657 163 q 500 17 566 50 q 347 -15 435 -16 q 217 11 272 -14 q 129 79 163 36 q 81 182 94 122 q 77 315 68 243 l 147 734 l 305 734 z "},"φ":{"ha":815,"x_min":46,"x_max":781,"o":"m 269 -6 q 156 46 201 9 q 85 136 111 84 q 53 249 60 187 q 54 374 46 311 q 121 580 67 486 q 267 739 174 674 l 355 637 q 263 516 300 584 q 212 373 226 449 q 206 306 207 341 q 212 237 205 271 q 236 176 219 204 q 286 130 254 147 l 359 553 q 381 628 364 594 q 425 688 398 663 q 487 726 452 713 q 565 739 523 739 q 645 721 610 737 q 705 676 680 704 q 746 611 730 648 q 770 535 762 575 q 780 455 779 496 q 777 378 781 414 q 742 236 769 302 q 671 120 715 171 q 566 36 627 70 q 428 -8 505 3 l 369 -324 l 210 -324 l 269 -6 m 444 126 q 513 168 483 142 q 566 227 544 194 q 600 298 587 259 q 618 378 613 336 q 621 408 619 387 q 623 455 623 429 q 621 509 623 481 q 613 558 619 536 q 595 594 606 581 q 564 608 583 608 q 533 591 543 606 q 519 557 524 576 l 444 126 z "},"ψ":{"ha":815,"x_min":44,"x_max":804,"o":"m 547 734 l 438 125 q 515 169 482 142 q 572 232 549 197 q 610 309 595 267 q 631 395 624 350 q 646 565 644 479 q 636 734 648 650 l 787 734 q 802 565 804 650 q 789 395 800 479 q 750 247 778 315 q 677 124 722 178 q 568 37 631 71 q 422 -9 505 2 l 364 -324 l 205 -324 l 264 -6 q 146 51 191 10 q 77 148 100 92 q 49 270 54 204 q 53 402 44 336 l 109 734 l 267 734 l 212 400 q 205 328 208 367 q 208 251 202 288 q 230 181 213 213 q 281 130 246 149 l 389 734 l 547 734 z "},"ω":{"ha":815,"x_min":26,"x_max":783,"o":"m 319 733 q 281 648 300 690 q 245 561 262 605 q 215 473 229 517 q 195 381 202 428 q 191 351 194 373 q 185 299 188 328 q 180 238 182 271 q 181 179 179 206 q 190 134 183 153 q 212 114 197 116 q 248 123 232 111 q 274 154 263 134 q 293 197 286 173 q 304 246 300 222 q 312 291 309 271 q 316 324 315 312 l 351 544 l 514 544 l 479 324 q 476 297 479 315 q 472 255 474 278 q 471 207 471 232 q 476 162 471 182 q 490 129 480 142 q 517 115 500 115 q 551 131 537 114 q 576 174 566 147 q 593 232 586 200 q 604 295 600 264 q 610 350 608 326 q 614 387 612 375 q 625 561 625 474 q 606 735 625 648 l 759 734 q 782 562 782 649 q 771 387 783 474 q 759 307 766 351 q 738 218 751 263 q 706 131 725 173 q 660 56 687 88 q 595 4 632 23 q 510 -14 558 -15 q 456 -2 480 -13 q 415 26 433 8 q 385 67 397 43 q 367 119 373 91 q 335 68 353 93 q 297 25 318 44 q 249 -4 275 7 q 190 -14 222 -15 q 113 7 144 -14 q 64 62 82 28 q 37 138 45 96 q 27 223 29 180 q 29 308 26 267 q 36 380 32 349 q 79 563 48 475 q 157 733 111 651 l 319 733 z "},"ϑ":{"ha":815,"x_min":75,"x_max":806,"o":"m 798 407 q 753 395 776 399 q 707 386 730 390 l 694 302 q 655 175 684 233 q 581 74 626 116 q 477 8 536 31 q 345 -14 417 -16 q 225 13 277 -12 q 139 81 173 38 q 90 180 104 123 q 82 302 75 237 l 114 503 l 269 503 l 236 302 q 237 236 232 268 q 256 178 241 203 q 297 138 271 153 q 361 121 323 122 q 431 135 401 119 q 481 175 460 150 q 514 234 501 201 q 532 302 526 267 l 548 390 q 437 437 486 405 q 355 513 388 469 q 307 614 322 558 q 296 734 292 671 l 298 748 q 325 849 303 802 q 380 930 346 897 q 462 983 415 964 q 566 1001 509 1002 q 663 977 623 1000 q 727 919 703 955 q 760 835 751 882 q 764 736 769 787 l 728 524 q 767 531 747 528 q 806 540 787 535 l 798 407 m 448 739 q 450 672 445 703 q 470 614 456 640 q 507 567 484 587 q 565 533 531 546 l 602 745 q 604 783 604 763 q 598 820 604 803 q 581 849 593 838 q 545 861 569 861 q 505 852 522 862 q 476 827 488 843 q 458 792 465 812 q 449 752 452 772 l 448 739 z "},"ϒ":{"ha":815,"x_min":136,"x_max":906,"o":"m 611 828 q 648 892 627 861 q 694 948 668 924 q 752 987 720 972 q 825 1002 784 1002 q 866 997 846 1002 q 906 985 886 993 l 879 856 q 866 860 872 859 q 852 861 859 861 q 806 847 826 861 q 773 813 787 834 l 495 353 l 434 0 l 276 0 l 340 372 l 225 813 q 168 857 210 855 q 138 854 153 858 l 136 984 q 211 998 172 999 q 274 982 247 998 q 320 943 300 967 q 352 889 339 920 q 374 828 365 859 l 437 553 l 438 503 l 459 553 l 611 828 z "},"ϖ":{"ha":815,"x_min":15,"x_max":863,"o":"m 840 611 l 762 612 q 763 452 764 531 q 751 292 762 372 q 740 221 747 258 q 719 150 732 184 q 689 85 707 115 q 646 33 671 55 q 587 -2 621 10 q 511 -14 554 -15 q 456 -2 481 -13 q 413 27 432 9 q 382 69 395 45 q 364 122 370 94 q 332 70 349 95 q 292 26 314 45 q 243 -4 271 7 q 183 -14 216 -15 q 114 0 143 -14 q 66 37 85 14 q 36 90 47 60 q 20 152 24 119 q 15 219 15 185 q 20 286 16 254 q 55 454 29 372 q 123 612 81 536 l 50 611 l 72 734 l 863 734 l 840 611 m 597 292 q 606 451 606 372 q 602 611 606 531 l 288 612 q 220 453 249 536 q 180 286 191 371 q 178 263 180 278 q 174 229 176 248 q 173 191 173 210 q 176 154 173 171 q 186 126 179 138 q 206 114 193 115 q 243 122 227 111 q 270 153 259 134 q 289 197 281 172 q 302 245 297 221 q 309 290 307 269 q 313 324 312 311 l 336 479 l 499 479 l 476 324 q 473 296 475 315 q 469 253 471 277 q 469 205 468 230 q 475 160 470 180 q 491 127 480 140 q 520 115 501 115 q 548 125 536 115 q 568 151 559 135 q 581 188 576 168 q 589 227 586 208 q 594 264 593 247 q 597 292 595 281 z "},"Ђ":{"ha":815,"x_min":101,"x_max":825,"o":"m 801 856 l 474 856 l 421 575 q 475 577 448 577 q 595 555 543 576 q 682 494 648 533 q 733 399 717 454 q 743 277 749 345 q 711 154 736 207 q 643 64 686 100 q 544 9 601 28 q 419 -12 487 -10 l 429 114 q 492 127 465 115 q 538 160 519 139 q 568 209 557 180 q 583 273 579 238 q 583 337 587 307 q 563 390 578 368 q 523 427 549 413 q 460 442 498 441 q 433 442 447 443 q 406 441 419 441 l 326 0 l 166 0 l 315 856 l 101 856 l 124 987 l 825 987 l 801 856 z "},"Є":{"ha":815,"x_min":62,"x_max":802,"o":"m 730 304 q 686 172 718 231 q 604 71 653 113 q 491 7 555 29 q 353 -14 427 -16 q 211 24 269 -12 q 118 116 153 59 q 73 244 84 172 q 71 391 62 316 l 104 596 q 128 699 112 648 q 170 796 144 750 q 228 880 195 842 q 303 946 261 918 q 395 988 345 973 q 503 1002 445 1004 q 634 977 578 1001 q 726 910 689 953 q 782 807 763 867 q 802 677 801 748 l 644 677 q 637 752 644 718 q 613 813 630 787 q 566 855 595 840 q 492 871 537 870 q 396 848 436 873 q 329 783 356 823 q 285 693 301 743 q 260 598 269 644 l 254 562 l 601 563 l 578 431 l 238 432 l 231 390 q 225 332 227 363 q 227 272 224 302 q 238 215 229 242 q 262 166 246 187 q 303 131 279 144 q 364 117 328 118 q 445 128 410 115 q 505 166 479 141 q 547 226 530 191 q 574 302 564 261 l 730 304 z "},"Љ":{"ha":815,"x_min":-45,"x_max":764,"o":"m 605 987 l 538 623 l 564 623 q 665 592 625 621 q 728 519 705 564 q 757 422 750 475 q 760 317 764 369 q 733 200 754 257 q 677 98 713 142 q 590 26 642 53 q 473 0 539 -1 l 292 0 l 441 856 l 338 856 l 269 456 q 254 365 262 415 q 232 263 245 314 q 199 164 219 212 q 149 79 178 116 q 77 20 119 42 q -21 0 35 -1 l -45 0 l -29 130 l -17 130 q 34 148 13 129 q 71 197 56 167 q 95 264 85 227 q 110 338 104 302 q 119 406 115 374 q 125 456 122 437 l 214 987 l 605 987 m 522 494 l 452 130 l 483 129 q 542 149 518 130 q 582 196 566 168 q 606 257 597 224 q 617 319 614 290 q 620 368 619 339 q 616 423 621 396 q 597 470 611 450 q 554 493 583 490 l 522 494 z "},"Њ":{"ha":815,"x_min":1,"x_max":750,"o":"m 251 567 l 380 567 l 454 987 l 600 987 l 529 602 l 541 602 q 642 574 601 600 q 708 507 684 548 q 741 413 732 465 q 745 309 750 361 q 718 191 740 248 q 660 92 696 135 q 570 24 623 50 q 452 0 518 -1 l 282 0 l 358 436 l 229 436 l 153 0 l 1 0 l 173 987 l 324 987 l 251 567 m 514 473 l 450 134 l 465 133 q 524 151 499 134 q 565 193 549 168 q 590 249 581 218 q 603 310 600 280 q 605 359 606 332 q 598 411 605 387 q 575 452 591 435 q 530 472 559 469 l 514 473 z "},"Ћ":{"ha":815,"x_min":112,"x_max":817,"o":"m 793 856 l 484 856 l 433 589 q 443 589 438 589 q 454 589 448 589 q 570 571 519 589 q 656 516 622 552 q 706 429 690 481 q 714 311 722 377 l 663 0 l 505 0 l 555 312 q 556 373 559 346 q 539 418 552 399 q 503 447 526 436 q 444 458 479 457 l 418 459 l 334 0 l 175 0 l 323 856 l 112 856 l 136 987 l 817 987 l 793 856 z "},"Џ":{"ha":815,"x_min":17,"x_max":809,"o":"m 189 987 l 347 987 l 199 131 l 501 131 l 650 987 l 809 987 l 638 0 l 412 0 l 370 -244 l 210 -244 l 252 0 l 17 0 l 189 987 z "},"Б":{"ha":815,"x_min":24,"x_max":801,"o":"m 778 856 l 333 856 l 289 604 l 419 604 q 542 583 485 602 q 640 526 599 563 q 701 435 680 489 q 715 311 722 381 q 675 176 709 234 q 589 78 642 117 q 471 19 537 39 q 332 0 404 -1 l 24 0 l 196 987 l 801 987 l 778 856 m 267 473 l 207 131 l 338 130 q 418 142 380 130 q 484 178 455 155 q 532 235 513 201 q 556 313 551 269 q 553 378 561 349 q 526 428 545 408 q 478 460 507 449 q 413 473 450 471 l 267 473 z "},"Д":{"ha":815,"x_min":-53,"x_max":783,"o":"m 629 -243 l 488 -243 l 530 0 l 124 0 l 82 -243 l -53 -243 l -16 131 l 22 130 q 89 183 60 152 q 139 251 118 214 q 175 330 161 288 q 201 415 190 372 q 219 501 212 458 q 235 583 227 544 l 328 987 l 783 987 l 634 131 l 713 131 l 629 -243 m 396 583 q 371 465 384 525 q 340 346 358 404 q 295 232 321 287 q 231 129 269 177 l 475 131 l 602 856 l 458 856 l 396 583 z "},"Ж":{"ha":815,"x_min":-68,"x_max":880,"o":"m 516 418 l 482 418 l 407 0 l 260 0 l 336 419 l 299 419 l 117 0 l -68 0 l 191 517 l 130 987 l 300 987 l 318 557 l 354 557 l 431 987 l 578 987 l 500 557 l 532 557 l 701 987 l 880 987 l 648 500 l 723 0 l 552 0 l 516 418 z "},"З":{"ha":815,"x_min":27,"x_max":806,"o":"m 431 567 q 506 576 470 567 q 569 604 541 585 q 616 653 597 623 q 640 724 635 682 q 633 789 644 762 q 600 834 622 816 q 547 862 578 852 q 483 871 517 871 q 415 863 448 872 q 356 835 382 853 q 310 789 329 817 q 286 726 292 762 l 127 726 q 168 847 134 795 q 252 933 201 899 q 366 985 303 968 q 492 1001 428 1002 q 614 983 556 1000 q 716 933 673 967 q 783 848 759 899 q 800 725 806 796 q 780 650 797 684 q 738 589 764 616 q 680 541 713 562 q 612 504 648 519 q 711 414 680 473 q 736 282 742 356 q 694 149 731 205 q 601 56 657 92 q 476 2 545 19 q 338 -14 408 -15 q 215 7 273 -12 q 116 62 158 26 q 50 152 73 98 q 30 275 27 205 l 189 274 q 198 209 186 237 q 231 160 210 180 q 282 129 252 140 q 347 117 312 117 q 426 125 387 115 q 497 156 465 135 q 551 208 529 176 q 578 281 573 239 q 575 351 584 322 q 545 399 566 380 q 493 428 524 418 q 425 438 463 437 l 291 439 l 314 568 l 431 567 z "},"И":{"ha":815,"x_min":18,"x_max":810,"o":"m 648 987 l 810 987 l 639 0 l 479 0 l 595 660 l 181 0 l 18 0 l 189 987 l 349 987 l 234 328 l 648 987 z "},"Л":{"ha":815,"x_min":-39,"x_max":816,"o":"m 816 987 l 644 0 l 485 0 l 633 856 l 403 856 l 334 462 q 316 360 327 414 q 290 256 306 307 q 250 158 274 205 q 193 77 227 112 q 113 21 159 41 q 5 0 66 0 l -39 0 l -23 130 l 1 130 q 64 148 38 130 q 109 194 91 165 q 139 257 127 222 q 158 330 151 293 q 170 401 165 367 q 177 462 174 436 l 267 987 l 816 987 z "},"У":{"ha":815,"x_min":-1,"x_max":907,"o":"m 386 585 l 413 431 l 723 987 l 907 987 l 425 174 q 373 97 401 132 q 310 37 345 62 q 233 -1 275 12 q 140 -15 191 -15 q 68 -8 104 -15 q -1 7 33 -2 l 24 134 q 74 121 49 127 q 125 115 99 115 q 176 121 153 115 q 218 141 199 128 q 254 172 238 154 q 283 213 270 191 l 319 271 l 119 987 l 288 987 l 386 585 z "},"Ц":{"ha":815,"x_min":17,"x_max":800,"o":"m 189 987 l 347 987 l 199 131 l 491 131 l 640 987 l 800 987 l 651 132 l 763 132 l 686 -238 l 541 -238 l 582 0 l 17 0 l 189 987 z "},"Ч":{"ha":815,"x_min":147,"x_max":821,"o":"m 821 987 l 650 0 l 490 0 l 562 390 q 397 362 482 362 q 276 387 326 363 q 197 453 227 411 q 157 552 168 495 q 155 676 147 610 l 206 987 l 365 987 l 314 675 q 310 612 310 644 q 318 555 309 581 q 348 513 327 530 q 408 496 369 497 q 493 502 451 494 q 577 520 536 509 l 662 987 l 821 987 z "},"Ш":{"ha":815,"x_min":-4,"x_max":850,"o":"m 324 987 l 176 131 l 284 131 l 433 987 l 586 987 l 437 131 l 545 131 l 694 987 l 850 987 l 680 0 l -4 0 l 168 987 l 324 987 z "},"Щ":{"ha":815,"x_min":-4,"x_max":850,"o":"m 324 987 l 176 131 l 284 131 l 433 987 l 586 987 l 437 131 l 545 131 l 694 987 l 850 987 l 702 130 l 774 130 l 698 -238 l 553 -238 l 594 0 l -4 0 l 168 987 l 324 987 z "},"Ъ":{"ha":815,"x_min":111,"x_max":744,"o":"m 134 987 l 472 987 l 402 589 l 465 588 q 583 566 530 586 q 672 509 635 546 q 726 420 709 473 q 739 301 744 368 q 702 172 732 229 q 624 77 671 115 q 513 19 576 39 q 380 0 450 -1 l 141 0 l 290 859 l 111 859 l 134 987 m 380 458 l 323 130 l 387 129 q 460 141 427 129 q 518 177 494 154 q 559 231 543 199 q 580 303 574 263 q 578 363 584 336 q 558 412 573 391 q 518 444 543 432 q 459 457 494 456 l 380 458 z "},"Ы":{"ha":815,"x_min":-1,"x_max":844,"o":"m 256 585 l 298 585 q 400 559 358 583 q 468 496 443 535 q 503 407 494 457 q 508 301 513 356 q 479 181 503 237 q 416 85 456 126 q 323 22 377 45 q 202 0 269 -1 l -1 0 l 170 987 l 326 987 l 256 585 m 672 0 l 513 0 l 684 987 l 844 987 l 672 0 m 241 458 l 176 126 l 215 125 q 274 143 250 126 q 313 186 298 160 q 337 242 329 212 q 349 302 346 273 q 353 349 352 323 q 348 398 353 375 q 327 438 342 422 q 285 457 313 455 l 241 458 z "},"Ь":{"ha":815,"x_min":24,"x_max":722,"o":"m 289 604 l 419 604 q 542 583 485 602 q 640 526 599 563 q 701 435 680 489 q 715 311 722 381 q 675 176 709 234 q 589 78 642 117 q 471 19 537 39 q 332 0 404 -1 l 24 0 l 196 987 l 355 987 l 289 604 m 267 473 l 207 131 l 338 130 q 418 142 380 130 q 484 178 455 155 q 532 235 513 201 q 556 313 551 269 q 553 378 561 349 q 526 428 545 408 q 478 460 507 449 q 413 473 450 471 l 267 473 z "},"Э":{"ha":815,"x_min":26,"x_max":764,"o":"m 191 322 q 191 249 186 286 q 210 184 195 213 q 252 137 224 155 q 322 117 279 119 q 421 138 379 115 q 491 199 463 161 q 537 286 520 237 q 564 382 555 334 l 572 427 l 286 427 l 309 558 l 587 557 l 595 604 q 601 691 602 645 q 586 776 600 736 q 542 843 572 816 q 459 871 511 869 q 375 857 412 873 q 314 812 339 840 q 273 745 288 783 q 254 663 258 706 l 96 662 q 135 798 103 735 q 216 907 166 861 q 330 979 265 953 q 470 1002 395 1004 q 611 966 553 1000 q 705 875 669 931 q 752 748 740 819 q 755 603 764 677 l 721 385 q 676 230 709 303 q 592 102 644 157 q 470 16 541 47 q 311 -14 399 -16 q 183 15 238 -12 q 93 86 128 41 q 41 192 57 132 q 31 322 26 252 l 191 322 z "},"Ю":{"ha":815,"x_min":-5,"x_max":791,"o":"m 736 345 q 721 260 730 303 q 695 177 711 218 q 657 101 679 137 q 604 40 635 66 q 534 -1 574 14 q 445 -14 495 -16 q 366 4 398 -13 q 313 50 334 22 q 280 114 292 78 q 265 190 269 151 q 262 269 261 229 q 269 344 264 309 l 279 418 l 217 418 l 144 0 l -5 0 l 166 987 l 315 987 l 238 546 l 301 546 l 317 644 q 332 725 322 682 q 356 807 341 767 q 391 884 370 848 q 441 946 412 920 q 508 988 470 973 q 595 1002 546 1003 q 676 984 642 1000 q 733 940 710 967 q 768 877 755 912 q 786 802 781 841 q 790 722 791 762 q 785 644 789 681 l 736 345 m 634 656 q 638 691 635 671 q 643 735 642 712 q 643 782 644 759 q 635 825 642 806 q 615 856 629 844 q 578 869 602 868 q 537 860 554 871 q 508 831 520 849 q 489 789 496 812 q 477 742 481 766 q 470 695 472 718 q 465 656 467 673 l 416 332 q 412 300 415 320 q 407 256 409 279 q 405 209 405 233 q 411 164 406 184 q 428 132 416 144 q 461 117 440 119 q 506 126 487 116 q 537 154 524 136 q 559 196 551 172 q 572 243 567 219 q 580 291 577 267 q 585 332 583 314 l 634 656 z "},"Я":{"ha":815,"x_min":-67,"x_max":796,"o":"m 465 0 l 535 400 l 370 400 l 110 0 l -67 0 l 233 449 q 129 552 162 488 q 102 695 96 615 q 143 828 109 772 q 231 919 178 884 q 351 971 284 955 q 488 988 418 988 l 796 987 l 625 0 l 465 0 m 260 690 q 264 622 255 652 q 292 572 273 592 q 342 541 312 551 q 409 528 372 530 l 557 528 l 614 856 l 481 857 q 403 848 441 857 q 335 818 365 838 q 285 766 305 798 q 260 690 265 734 z "},"б":{"ha":815,"x_min":64,"x_max":777,"o":"m 471 693 q 592 663 541 692 q 674 587 642 634 q 718 481 705 541 q 724 357 730 421 l 723 342 q 685 202 715 268 q 607 88 655 137 q 495 12 559 39 q 351 -14 430 -16 q 218 18 274 -13 q 126 100 161 50 q 78 217 92 151 q 73 354 64 283 l 74 368 l 74 370 l 79 408 q 102 529 87 468 q 138 646 116 589 q 192 752 161 702 q 265 844 223 803 q 360 913 307 884 q 479 955 413 942 q 531 965 505 960 q 582 980 558 970 q 623 1008 606 990 q 647 1055 641 1025 l 777 1055 q 748 953 771 993 q 689 888 726 913 q 606 848 653 863 q 505 824 559 834 q 411 794 452 814 q 338 745 370 774 q 280 677 305 715 q 235 591 255 638 q 343 666 284 637 q 471 693 401 694 m 429 563 q 348 547 383 564 q 289 500 313 530 q 249 433 264 471 q 230 354 235 395 l 229 340 q 228 263 225 302 q 245 191 231 224 q 288 137 260 159 q 362 115 316 116 q 446 133 410 113 q 506 186 481 153 q 545 259 531 218 q 564 342 559 300 l 566 357 q 564 430 569 394 q 544 496 559 467 q 500 543 528 525 q 429 563 472 562 z "},"в":{"ha":815,"x_min":27,"x_max":709,"o":"m 27 0 l 155 734 l 434 733 q 498 728 465 732 q 563 715 532 724 q 621 691 594 706 q 668 655 648 677 q 699 604 688 633 q 707 536 709 574 q 692 478 705 503 q 659 433 679 452 q 613 399 639 414 q 559 374 587 385 q 609 351 587 366 q 648 315 632 336 q 672 270 664 295 q 679 215 680 244 q 648 111 676 153 q 575 44 619 69 q 478 9 532 20 q 370 0 424 -1 l 27 0 m 240 313 l 208 128 l 376 127 q 426 133 401 128 q 471 149 451 138 q 506 178 492 160 q 525 225 521 197 q 521 267 528 250 q 499 293 514 283 q 465 307 485 302 q 425 312 446 311 l 240 313 m 260 430 l 385 429 q 435 433 408 429 q 485 446 461 436 q 525 472 508 455 q 546 518 542 490 q 540 562 550 545 q 513 588 530 578 q 472 600 495 597 q 429 604 450 603 l 290 604 l 260 430 z "},"г":{"ha":815,"x_min":35,"x_max":762,"o":"m 739 602 l 298 602 l 193 0 l 35 0 l 162 734 l 762 734 l 739 602 z "},"д":{"ha":815,"x_min":-69,"x_max":760,"o":"m 45 128 q 102 150 78 130 q 143 200 126 170 q 172 268 161 231 q 192 343 184 306 q 204 414 199 380 q 214 471 210 448 l 267 734 l 760 734 l 655 130 l 753 130 l 680 -218 l 534 -218 l 573 0 l 115 0 l 77 -218 l -69 -218 l -22 130 l 45 128 m 373 471 q 354 382 364 427 q 330 293 344 337 q 298 207 317 249 q 254 127 279 165 l 497 130 l 578 593 l 397 593 l 373 471 z "},"ж":{"ha":815,"x_min":-58,"x_max":830,"o":"m 492 296 l 456 297 l 401 0 l 256 0 l 311 298 l 277 298 l 120 0 l -58 0 l 183 393 l 90 734 l 253 734 l 299 445 l 331 444 l 383 734 l 529 734 l 475 444 l 506 444 l 655 734 l 830 734 l 611 379 l 711 0 l 547 0 l 492 296 z "},"з":{"ha":815,"x_min":45,"x_max":741,"o":"m 411 433 q 464 437 436 433 q 515 452 491 441 q 556 481 539 463 q 578 530 574 500 q 570 575 582 557 q 538 603 557 593 q 494 617 518 613 q 449 622 469 622 q 396 618 424 623 q 342 603 368 614 q 299 573 317 591 q 273 526 280 554 l 115 526 q 135 599 118 566 q 177 656 151 631 q 236 699 203 682 q 305 727 269 716 q 379 743 342 738 q 453 747 417 747 q 519 742 485 746 q 586 727 553 737 q 647 702 618 718 q 697 663 676 686 q 729 609 718 640 q 738 539 741 578 q 722 481 736 507 q 686 436 707 456 q 638 401 665 416 q 585 374 612 386 q 632 348 611 363 q 667 312 652 332 q 688 267 681 292 q 694 213 695 241 q 675 136 692 170 q 631 76 658 102 q 569 34 604 51 q 495 5 534 16 q 418 -10 457 -5 q 342 -14 378 -14 q 235 0 288 -13 q 139 41 182 14 q 71 113 97 69 q 46 218 45 157 l 201 218 q 216 168 201 188 q 252 135 230 147 q 302 117 275 122 q 355 111 329 111 q 411 116 380 111 q 468 133 441 121 q 514 167 494 146 q 538 218 533 188 q 531 268 543 249 q 500 296 520 286 q 455 310 480 307 q 406 315 429 314 l 248 315 l 269 434 l 411 433 z "},"и":{"ha":815,"x_min":21,"x_max":765,"o":"m 603 734 l 765 734 l 638 0 l 479 0 l 565 490 l 184 0 l 21 0 l 149 734 l 307 734 l 221 243 l 603 734 z "},"к":{"ha":815,"x_min":24,"x_max":832,"o":"m 347 292 l 233 292 l 182 0 l 24 0 l 151 734 l 309 734 l 258 439 l 349 439 l 626 734 l 832 734 l 482 373 l 715 0 l 522 0 l 347 292 z "},"л":{"ha":815,"x_min":-38,"x_max":765,"o":"m 765 734 l 638 0 l 479 0 l 584 602 l 362 602 l 332 421 q 314 320 324 371 q 286 223 303 270 q 245 135 269 176 q 187 64 222 94 q 107 17 153 34 q 1 0 61 -1 l -38 0 l -21 136 l 2 136 q 64 149 38 135 q 107 185 90 163 q 137 238 125 208 q 155 299 148 267 q 166 362 162 331 q 174 421 171 394 l 226 734 l 765 734 z "},"м":{"ha":815,"x_min":11,"x_max":774,"o":"m 361 202 l 574 734 l 774 734 l 646 0 l 498 0 l 570 406 l 385 0 l 277 0 l 233 426 l 158 0 l 11 0 l 138 734 l 336 734 l 361 202 z "},"н":{"ha":815,"x_min":21,"x_max":765,"o":"m 638 0 l 479 0 l 531 297 l 232 297 l 180 0 l 21 0 l 149 734 l 307 734 l 254 427 l 553 427 l 606 734 l 765 734 l 638 0 z "},"п":{"ha":815,"x_min":21,"x_max":765,"o":"m 638 0 l 479 0 l 585 602 l 285 602 l 180 0 l 21 0 l 149 734 l 765 734 l 638 0 z "},"т":{"ha":815,"x_min":98,"x_max":831,"o":"m 808 604 l 531 604 l 426 0 l 267 0 l 372 604 l 98 604 l 120 734 l 831 734 l 808 604 z "},"ф":{"ha":815,"x_min":43,"x_max":751,"o":"m 52 370 q 86 501 60 439 q 153 611 111 562 q 250 692 194 659 q 377 739 307 726 l 433 1042 l 593 1042 l 536 738 q 641 685 598 721 q 709 600 684 648 q 742 493 734 551 q 745 376 751 435 l 743 361 q 708 230 734 291 q 641 120 682 169 q 542 39 599 72 q 415 -7 485 6 l 363 -282 l 203 -282 l 256 -5 q 153 49 195 12 q 85 134 111 85 q 52 239 60 182 q 50 355 43 296 l 52 370 m 591 375 q 595 438 595 406 q 588 501 595 471 q 565 557 581 532 q 520 601 549 583 l 431 129 q 493 170 466 145 q 539 224 520 194 q 571 289 559 254 q 589 361 583 323 l 591 375 m 203 355 q 199 293 199 325 q 205 231 199 260 q 228 175 212 201 q 272 132 243 149 l 361 602 q 299 561 326 585 q 254 506 273 536 q 223 441 235 476 q 205 369 211 406 l 203 355 z "},"ц":{"ha":815,"x_min":21,"x_max":745,"o":"m 149 734 l 307 734 l 203 130 l 482 130 l 587 734 l 745 734 l 641 130 l 737 130 l 664 -218 l 519 -218 l 557 0 l 21 0 l 149 734 z "},"ч":{"ha":815,"x_min":98,"x_max":778,"o":"m 650 0 l 491 0 l 539 250 q 375 231 458 230 q 258 250 311 232 q 169 303 205 269 q 115 390 132 338 q 106 509 98 442 l 142 734 l 300 734 l 264 509 q 284 401 256 437 q 385 363 313 366 q 470 367 428 361 q 554 379 512 372 l 619 734 l 778 734 l 650 0 z "},"ш":{"ha":815,"x_min":-2,"x_max":798,"o":"m 281 734 l 176 130 l 280 130 l 385 734 l 538 734 l 433 130 l 538 130 l 643 734 l 798 734 l 671 0 l -2 0 l 125 734 l 281 734 z "},"щ":{"ha":815,"x_min":-7,"x_max":793,"o":"m 276 734 l 171 130 l 275 130 l 380 734 l 533 734 l 428 130 l 532 130 l 637 734 l 793 734 l 688 130 l 754 130 l 681 -218 l 547 -218 l 585 0 l -7 0 l 120 734 l 276 734 z "},"ъ":{"ha":815,"x_min":71,"x_max":737,"o":"m 389 462 l 487 460 q 583 446 536 459 q 664 405 629 432 q 718 338 699 378 q 734 241 737 297 q 702 134 730 180 q 632 58 675 88 q 535 14 589 28 q 425 0 481 -1 l 149 0 l 254 606 l 71 606 l 94 734 l 436 734 l 389 462 m 367 334 l 331 127 l 430 127 q 480 134 456 127 q 524 155 505 141 q 556 188 543 168 q 574 236 570 208 q 571 277 577 259 q 553 307 566 295 q 522 325 540 319 q 481 333 503 332 l 367 334 z "},"ы":{"ha":815,"x_min":7,"x_max":794,"o":"m 238 463 l 274 463 q 365 446 323 462 q 435 402 406 431 q 478 333 463 374 q 489 241 492 292 q 462 138 485 184 q 401 62 439 93 q 315 15 364 31 q 210 0 266 -1 l 7 0 l 135 734 l 285 734 l 238 463 m 667 0 l 507 0 l 635 734 l 794 734 l 667 0 m 225 345 l 180 126 l 217 126 q 300 156 269 128 q 340 236 332 184 q 340 276 342 257 q 330 310 338 295 q 307 333 322 324 q 269 344 292 342 l 225 345 z "},"ь":{"ha":815,"x_min":27,"x_max":712,"o":"m 267 471 l 455 471 q 554 455 507 469 q 637 412 602 440 q 692 341 673 384 q 708 241 712 299 q 675 133 704 179 q 602 58 646 87 q 503 14 557 28 q 391 0 448 -1 l 27 0 l 155 734 l 313 734 l 267 471 m 245 342 l 208 130 l 397 129 q 449 136 423 130 q 495 155 474 142 q 531 189 516 168 q 549 238 545 210 q 547 282 553 263 q 527 314 541 301 q 493 333 513 326 q 450 341 473 340 l 245 342 z "},"э":{"ha":815,"x_min":47,"x_max":722,"o":"m 419 617 q 360 610 389 618 q 308 585 332 602 q 268 546 285 569 q 245 492 251 522 l 96 491 q 133 600 101 551 q 211 681 164 648 q 315 731 258 714 q 429 747 372 749 q 566 716 508 746 q 659 636 623 686 q 708 520 694 586 q 715 380 722 454 l 712 355 q 671 209 703 277 q 589 91 640 141 q 470 13 538 41 q 320 -14 402 -16 q 209 8 259 -12 q 122 64 158 28 q 66 150 85 100 q 50 262 47 200 l 199 261 q 207 204 198 231 q 232 159 215 178 q 274 128 249 140 q 330 116 298 117 q 413 130 377 114 q 474 174 448 146 q 519 239 500 202 q 549 316 537 276 l 305 315 l 326 429 l 561 429 q 557 499 563 465 q 534 559 551 533 q 489 600 517 585 q 419 617 460 616 z "},"ю":{"ha":815,"x_min":-17,"x_max":770,"o":"m 219 427 l 279 427 q 300 502 288 463 q 330 577 313 541 q 370 645 347 613 q 422 700 393 676 q 488 736 451 723 q 570 747 524 749 q 650 729 616 746 q 707 686 684 713 q 744 623 730 659 q 764 548 758 587 q 770 469 770 509 q 766 392 770 429 l 760 344 q 745 261 755 304 q 719 178 735 218 q 679 102 702 138 q 624 40 655 66 q 554 -1 593 14 q 467 -14 515 -16 q 361 18 403 -12 q 296 93 319 47 q 267 195 273 139 q 267 304 260 251 l 198 304 l 145 0 l -17 0 l 111 734 l 273 734 l 219 427 m 425 342 q 421 307 423 329 q 417 260 418 285 q 418 209 416 235 q 426 161 419 182 q 446 126 433 140 q 481 112 459 113 q 525 122 507 111 q 557 154 544 134 q 579 200 570 174 q 593 251 587 225 q 602 301 599 277 q 606 342 604 326 l 612 391 q 615 426 613 404 q 619 473 618 448 q 618 524 620 498 q 610 571 617 549 q 590 606 604 592 q 555 621 577 619 q 511 610 530 622 q 479 578 492 598 q 457 533 466 558 q 443 481 449 507 q 435 431 437 455 q 430 390 432 407 l 425 342 z "},"я":{"ha":815,"x_min":-26,"x_max":772,"o":"m 772 734 l 645 0 l 487 0 l 534 271 l 349 271 l 148 0 l -26 0 l 201 300 q 120 381 146 330 q 98 494 94 433 q 115 570 101 536 q 153 631 130 604 q 206 677 176 657 q 271 709 236 696 q 342 728 305 722 q 417 734 380 734 l 772 734 m 256 492 q 258 450 252 468 q 277 419 264 432 q 308 400 290 407 q 349 392 327 393 l 555 391 l 592 604 l 411 605 q 359 597 385 604 q 311 576 333 590 q 275 541 290 562 q 256 492 260 520 z "},"ђ":{"ha":815,"x_min":24,"x_max":723,"o":"m 484 812 l 320 812 l 286 631 q 332 679 307 657 q 384 716 356 701 q 443 740 412 731 q 508 747 473 748 q 615 721 572 746 q 683 656 658 696 q 715 562 707 615 q 717 452 723 509 l 694 315 l 696 315 l 637 -43 q 609 -146 629 -99 q 556 -227 589 -193 q 477 -280 524 -261 q 372 -298 431 -299 q 328 -295 350 -298 q 284 -287 306 -292 l 306 -158 q 338 -166 321 -163 q 372 -169 355 -169 q 416 -158 397 -169 q 447 -129 435 -146 q 467 -89 460 -111 q 478 -44 475 -66 l 486 0 l 483 0 l 559 454 q 559 515 563 487 q 542 566 555 544 q 505 600 528 587 q 446 614 481 612 q 352 593 394 615 q 276 534 311 570 l 182 0 l 24 0 l 165 812 l 45 812 l 65 927 l 185 927 l 205 1042 l 363 1042 l 342 927 l 505 927 l 484 812 z "},"є":{"ha":815,"x_min":66,"x_max":724,"o":"m 359 115 q 416 122 388 114 q 467 148 444 131 q 506 188 490 164 q 527 241 522 211 l 676 241 q 641 134 671 182 q 564 53 610 86 q 462 2 518 20 q 350 -14 406 -16 q 216 18 271 -13 q 126 99 160 49 q 79 215 92 150 q 73 352 66 281 l 76 377 q 115 521 85 453 q 195 640 146 589 q 311 720 244 691 q 458 747 377 749 q 568 725 518 746 q 653 668 618 705 q 706 582 688 632 q 721 471 724 532 l 572 471 q 566 527 574 501 q 542 573 558 553 q 501 604 526 593 q 446 617 477 616 q 367 602 401 618 q 307 558 332 586 q 266 494 282 530 q 240 420 249 458 l 476 420 l 456 306 l 227 306 q 231 238 226 272 q 251 177 236 204 q 292 133 266 150 q 359 115 317 115 z "},"љ":{"ha":815,"x_min":-46,"x_max":776,"o":"m 588 734 l 538 475 l 548 475 q 642 457 599 473 q 714 411 684 441 q 760 340 745 382 q 772 245 776 298 q 744 140 768 186 q 680 62 719 94 q 589 15 640 31 q 481 0 538 -1 l 304 0 l 409 602 l 316 602 l 286 421 q 270 329 279 377 q 246 233 260 280 q 210 143 231 186 q 158 68 189 100 q 84 17 127 36 q -14 0 42 -1 l -46 0 l -29 136 l -13 136 q 39 152 17 136 q 76 192 61 168 q 101 248 92 216 q 117 310 111 279 q 127 371 123 342 q 134 421 131 400 l 185 734 l 588 734 m 524 347 l 481 127 l 490 127 q 537 137 515 127 q 575 162 559 146 q 602 199 591 178 q 615 246 612 220 q 602 316 621 289 q 538 347 583 343 l 524 347 z "},"њ":{"ha":815,"x_min":1,"x_max":749,"o":"m 239 455 l 353 455 l 402 734 l 561 734 l 512 475 l 534 475 q 625 456 584 473 q 693 409 665 439 q 735 337 721 379 q 745 245 749 296 q 718 142 741 188 q 658 64 695 96 q 572 16 621 33 q 467 0 523 -1 l 275 0 l 331 326 l 217 326 l 160 0 l 1 0 l 129 734 l 288 734 l 239 455 m 497 347 l 454 127 l 475 127 q 520 138 500 128 q 553 164 539 148 q 575 201 567 180 q 587 246 584 222 q 588 282 589 264 q 578 313 586 299 q 558 336 571 327 q 524 346 545 345 l 497 347 z "},"ћ":{"ha":815,"x_min":31,"x_max":730,"o":"m 516 817 l 328 817 l 293 631 q 338 679 314 657 q 391 716 363 701 q 449 740 418 731 q 515 747 480 748 q 622 721 578 746 q 689 656 665 696 q 722 562 714 615 q 724 452 730 509 l 648 0 l 490 0 l 566 454 q 566 515 570 487 q 548 566 562 544 q 512 600 535 587 q 452 614 488 612 q 359 593 401 615 q 283 534 317 570 l 189 0 l 31 0 l 172 817 l 77 817 l 97 932 l 193 932 l 212 1042 l 370 1042 l 349 932 l 537 932 l 516 817 z "},"џ":{"ha":815,"x_min":21,"x_max":765,"o":"m 307 734 l 203 130 l 502 130 l 607 734 l 765 734 l 638 0 l 410 0 l 368 -242 l 210 -242 l 252 0 l 21 0 l 149 734 l 307 734 z "},"Ѡ":{"ha":815,"x_min":26,"x_max":871,"o":"m 871 987 l 743 231 q 719 137 736 182 q 671 58 701 92 q 599 4 641 24 q 502 -14 557 -16 q 419 9 455 -13 q 366 75 383 31 q 335 38 351 55 q 300 10 319 22 q 259 -8 281 -2 q 212 -14 237 -15 q 123 7 159 -14 q 64 62 87 28 q 34 139 42 96 q 31 230 26 183 l 159 987 l 311 987 l 183 229 q 181 197 182 216 q 184 160 181 178 q 198 130 188 142 q 228 116 208 117 q 264 126 250 115 q 289 155 279 138 q 303 192 298 172 q 311 229 308 212 l 438 987 l 593 987 l 466 229 q 465 194 465 214 q 469 158 465 175 q 486 129 474 140 q 519 116 497 117 q 552 128 539 116 q 574 157 566 140 q 586 195 582 175 q 592 229 590 214 l 720 987 l 871 987 z "},"ѡ":{"ha":815,"x_min":24,"x_max":817,"o":"m 817 734 l 733 239 q 709 143 726 190 q 663 61 692 97 q 592 5 634 26 q 495 -14 551 -16 q 412 11 448 -13 q 360 79 376 34 q 330 41 346 58 q 294 11 313 24 q 253 -8 275 -1 q 204 -14 231 -15 q 116 9 151 -14 q 59 67 80 31 q 31 147 38 102 q 28 238 24 192 l 112 734 l 262 734 l 179 237 q 177 217 178 229 q 176 191 176 205 q 178 164 176 178 q 184 140 180 151 q 198 122 189 130 q 220 115 206 115 q 258 126 243 113 q 283 157 274 138 q 298 198 293 176 q 306 237 303 220 l 388 734 l 543 734 l 460 237 q 458 201 459 222 q 462 161 458 180 q 478 128 467 142 q 512 114 490 114 q 546 127 533 114 q 568 160 559 141 q 579 201 576 180 q 585 237 583 222 l 667 734 l 817 734 z "},"ѣ":{"ha":815,"x_min":65,"x_max":710,"o":"m 543 730 l 351 730 l 305 467 l 454 467 q 552 451 505 465 q 635 409 600 437 q 690 339 671 381 q 707 240 710 297 q 674 132 703 178 q 601 57 645 86 q 501 13 556 27 q 390 0 446 -1 l 65 0 l 192 730 l 76 730 l 96 845 l 212 845 l 249 1059 l 408 1059 l 370 845 l 564 845 l 543 730 m 283 337 l 246 130 l 396 129 q 448 136 422 130 q 494 155 473 142 q 530 188 515 168 q 549 237 545 208 q 545 281 552 262 q 525 311 538 299 q 491 329 511 323 q 448 336 471 335 l 283 337 z "},"Ѥ":{"ha":815,"x_min":-13,"x_max":831,"o":"m 239 575 l 315 575 l 320 607 q 339 694 328 648 q 368 785 351 741 q 409 869 385 829 q 464 939 432 909 q 538 986 496 969 q 632 1002 579 1003 q 736 971 696 1000 q 798 897 777 942 q 826 798 820 852 q 827 690 831 743 l 686 690 q 687 722 686 704 q 687 760 688 741 q 682 797 686 779 q 671 829 679 814 q 649 853 663 844 q 614 863 635 862 q 567 850 587 863 q 533 814 547 837 q 508 764 518 792 q 492 707 498 736 q 481 652 486 679 q 474 608 477 626 l 469 575 l 634 575 l 610 439 l 451 439 l 442 380 q 437 342 440 366 q 432 291 434 319 q 431 234 430 262 q 439 181 432 205 q 460 142 446 157 q 498 125 474 126 q 535 132 519 124 q 563 153 551 140 q 583 183 575 166 q 597 219 591 201 q 606 257 602 238 q 613 291 610 275 l 754 292 q 728 180 747 235 q 676 81 709 125 q 596 11 644 37 q 483 -13 548 -15 q 396 8 432 -12 q 337 58 361 27 q 301 129 314 89 q 283 212 288 169 q 280 299 279 256 q 287 381 281 342 l 296 439 l 216 439 l 140 0 l -13 0 l 158 987 l 311 987 l 239 575 z "},"ѥ":{"ha":815,"x_min":4,"x_max":791,"o":"m 599 309 l 445 309 q 442 278 444 296 q 440 238 440 259 q 443 197 440 218 q 453 159 446 176 q 472 132 460 142 q 505 121 485 121 q 540 130 525 121 q 565 154 555 139 q 582 186 575 168 q 592 220 588 203 l 737 220 q 712 130 732 173 q 661 54 692 87 q 587 3 629 22 q 494 -14 545 -15 q 387 18 429 -12 q 321 95 345 49 q 290 198 297 142 q 290 309 283 255 l 212 309 l 158 0 l 4 0 l 132 734 l 286 734 l 232 426 l 300 426 q 322 503 309 464 q 353 578 336 542 q 394 646 371 614 q 448 701 418 677 q 515 736 478 724 q 599 748 553 749 q 690 725 653 747 q 750 668 728 703 q 782 587 773 633 q 789 494 791 542 l 642 494 q 642 531 643 511 q 635 569 641 551 q 617 600 630 587 q 583 614 605 612 q 529 594 550 614 q 494 544 507 574 q 472 481 480 514 q 459 426 465 449 l 619 426 l 599 309 z "},"Ѧ":{"ha":815,"x_min":-58,"x_max":746,"o":"m 547 290 l 467 290 l 416 0 l 271 0 l 321 290 l 254 290 l 112 0 l -58 0 l 441 987 l 593 987 l 746 0 l 587 0 l 547 290 m 315 416 l 530 416 l 483 760 l 315 416 z "},"ѧ":{"ha":815,"x_min":-22,"x_max":704,"o":"m 511 190 l 441 190 l 408 0 l 278 0 l 312 190 l 248 190 l 146 0 l -22 0 l 393 734 l 543 734 l 704 0 l 549 0 l 511 190 m 311 307 l 488 307 l 448 514 l 444 566 l 414 501 l 311 307 z "},"Ѩ":{"ha":815,"x_min":-9,"x_max":726,"o":"m 586 307 l 554 307 l 498 0 l 393 0 l 450 308 l 418 308 l 300 0 l 154 0 l 279 307 l 186 307 l 132 0 l -9 0 l 162 987 l 303 987 l 207 431 l 329 431 l 556 987 l 686 987 l 726 0 l 590 0 l 586 307 m 463 431 l 583 431 l 581 745 l 463 431 z "},"ѩ":{"ha":815,"x_min":-9,"x_max":726,"o":"m 573 185 l 538 185 l 503 0 l 391 0 l 427 186 l 388 185 l 301 0 l 153 0 l 243 184 l 164 184 l 132 0 l -9 0 l 118 734 l 260 734 l 185 309 l 304 309 l 512 734 l 642 734 l 726 0 l 591 0 l 573 185 m 444 309 l 560 309 l 543 519 l 444 309 z "},"Ѫ":{"ha":815,"x_min":-30,"x_max":853,"o":"m 571 534 q 663 509 625 530 q 724 455 701 488 q 755 378 747 422 q 758 282 763 334 l 711 0 l 553 0 l 600 283 q 602 328 602 307 q 594 365 602 349 q 572 391 587 381 q 530 404 557 401 l 498 404 l 425 0 l 266 0 l 340 406 l 303 406 q 251 397 273 406 q 213 373 229 389 q 189 334 198 357 q 176 282 180 311 l 129 0 l -30 0 l 16 282 q 104 469 33 408 q 301 536 176 531 l 167 987 l 853 987 l 571 534 m 443 585 l 595 855 l 372 855 l 443 585 z "},"ѫ":{"ha":815,"x_min":-17,"x_max":795,"o":"m 550 408 q 629 375 599 399 q 676 317 660 351 q 697 240 693 282 q 697 155 702 198 l 673 0 l 514 0 l 538 155 q 542 196 540 174 q 540 237 544 218 q 525 270 536 256 q 488 286 513 283 l 465 287 l 461 282 l 410 0 l 252 0 l 304 288 l 276 288 q 227 277 246 288 q 195 247 207 265 q 176 204 182 229 q 165 155 170 180 l 141 0 l -17 0 l 7 155 q 33 256 15 211 q 80 334 50 301 q 152 386 109 366 q 253 412 195 406 l 132 734 l 795 734 l 550 408 m 401 418 l 534 616 l 336 616 l 401 418 z "},"Ѭ":{"ha":815,"x_min":-30,"x_max":877,"o":"m 176 0 l 229 319 q 242 370 234 346 q 262 418 250 395 l 178 417 l 106 0 l -30 0 l 142 987 l 277 987 l 199 540 l 439 540 l 366 987 l 877 987 l 642 535 q 710 509 684 529 q 752 459 737 488 q 770 393 766 429 q 770 320 774 357 l 716 0 l 590 0 l 642 321 q 644 352 643 336 q 642 380 645 367 q 629 403 638 393 q 602 415 621 412 l 587 416 l 585 411 l 510 0 l 386 0 l 462 414 l 460 419 l 441 419 q 404 409 419 417 q 380 387 389 400 q 365 356 370 373 q 356 319 359 338 l 300 0 l 176 0 m 556 640 l 662 863 l 528 863 l 556 640 z "},"ѭ":{"ha":815,"x_min":-28,"x_max":833,"o":"m 183 0 l 215 193 q 228 242 220 218 q 248 290 235 266 l 158 288 l 109 0 l -28 0 l 100 734 l 236 734 l 179 407 l 410 407 l 333 734 l 833 734 l 635 401 q 695 372 672 393 q 731 323 719 351 q 746 261 743 294 q 746 194 749 228 l 713 0 l 589 0 l 618 195 q 621 224 620 209 q 618 252 621 239 q 606 274 615 264 q 579 286 597 283 l 575 286 l 565 270 l 562 271 l 512 0 l 387 0 l 439 281 l 439 289 l 426 289 q 390 279 405 288 q 366 258 376 271 q 351 228 357 245 q 342 193 346 211 l 309 0 l 183 0 m 526 446 l 623 625 l 494 625 l 526 446 z "},"Ѯ":{"ha":815,"x_min":30,"x_max":747,"o":"m 371 572 q 443 581 408 572 q 506 607 478 589 q 552 653 534 625 q 576 722 571 682 q 571 781 581 756 q 544 821 562 805 q 498 845 525 838 q 441 854 471 853 l 245 855 l 269 987 l 447 987 q 560 970 505 985 q 655 923 614 954 q 719 844 696 892 q 737 730 742 795 q 717 651 734 686 q 675 589 701 616 q 615 541 649 562 q 543 505 581 520 q 649 417 614 475 q 678 282 684 359 q 642 153 673 209 q 561 60 610 98 q 449 4 512 23 q 317 -15 387 -15 l 281 -14 q 245 -19 263 -15 q 213 -33 227 -24 q 188 -56 198 -41 q 175 -90 178 -70 q 177 -129 172 -112 q 195 -159 183 -145 q 222 -183 206 -172 q 255 -201 238 -193 l 193 -303 q 126 -267 157 -289 q 74 -215 96 -245 q 41 -150 52 -186 q 32 -74 30 -115 q 56 16 34 -21 q 113 76 78 53 q 193 109 149 99 q 285 119 237 119 l 319 118 q 391 129 357 118 q 453 160 425 140 q 498 211 480 180 q 521 279 516 241 q 516 351 526 321 q 485 400 507 380 q 431 429 463 419 q 361 439 399 438 l 258 440 l 282 573 l 371 572 m 496 1202 l 608 1293 l 747 1295 l 747 1280 l 541 1112 l 444 1112 l 285 1280 l 286 1295 l 416 1294 l 496 1202 z "},"ѯ":{"ha":815,"x_min":47,"x_max":724,"o":"m 361 422 q 415 427 387 422 q 468 443 444 431 q 510 474 492 454 q 532 525 527 494 q 524 567 536 551 q 494 592 513 583 q 452 605 475 602 q 410 609 429 608 l 214 610 l 235 734 l 414 733 q 477 728 444 732 q 542 714 511 724 q 602 689 574 704 q 650 651 630 673 q 682 600 671 629 q 690 532 692 570 q 675 473 688 499 q 642 427 662 448 q 595 391 621 407 q 541 363 569 376 q 588 340 566 354 q 624 307 609 326 q 648 264 640 288 q 654 212 656 240 q 621 105 652 149 q 544 36 591 62 q 442 -3 498 9 q 332 -15 386 -15 l 299 -14 q 262 -19 281 -15 q 228 -32 243 -23 q 202 -55 213 -41 q 189 -90 192 -68 q 190 -127 185 -111 q 206 -158 195 -144 q 232 -183 217 -172 q 264 -203 248 -194 l 203 -298 q 141 -261 170 -283 q 91 -210 112 -238 q 58 -147 70 -181 q 49 -74 47 -113 q 72 12 51 -23 q 127 69 94 47 q 204 100 161 91 q 292 110 248 110 l 324 109 q 378 114 349 109 q 432 131 407 119 q 475 162 457 142 q 498 212 494 182 q 490 262 503 243 q 454 291 476 281 q 404 303 431 300 q 354 307 376 307 l 247 308 l 267 422 l 361 422 m 472 956 l 584 1047 l 724 1048 l 723 1034 l 517 865 l 420 865 l 261 1034 l 262 1048 l 392 1048 l 472 956 z "},"Ѳ":{"ha":815,"x_min":55,"x_max":776,"o":"m 749 431 q 724 323 741 377 q 682 219 707 269 q 623 126 657 169 q 546 51 589 83 q 451 2 503 20 q 336 -14 398 -15 q 232 7 277 -12 q 154 60 187 27 q 100 136 121 93 q 68 228 79 179 q 56 329 58 277 q 62 430 55 380 l 81 556 q 106 663 90 609 q 148 767 123 718 q 205 861 172 817 q 281 936 239 904 q 376 985 324 967 q 489 1001 427 1002 q 594 980 549 1000 q 673 928 640 960 q 728 852 707 895 q 761 759 750 808 q 774 658 772 710 q 769 556 776 606 l 749 431 m 591 438 l 222 438 l 221 429 q 215 370 217 403 q 214 303 212 337 q 223 238 216 270 q 246 181 231 206 q 286 140 261 156 q 349 123 311 124 q 421 135 389 121 q 478 171 454 148 q 522 226 503 195 q 554 292 541 258 q 576 362 568 327 q 590 430 585 398 l 591 438 m 240 553 l 609 553 l 610 558 q 615 618 613 585 q 615 685 618 651 q 605 750 613 718 q 582 806 597 781 q 540 846 566 831 q 477 863 515 862 q 405 851 437 865 q 349 815 374 838 q 307 760 325 791 q 276 694 289 729 q 255 625 263 660 q 241 557 246 589 l 240 553 z "},"ѳ":{"ha":815,"x_min":46,"x_max":724,"o":"m 55 369 q 95 514 64 445 q 174 636 125 584 q 290 719 223 688 q 439 747 357 749 q 573 714 517 745 q 663 631 629 682 q 710 513 697 579 q 716 376 724 447 l 715 361 q 675 216 705 285 q 595 95 644 147 q 479 14 546 43 q 331 -14 412 -16 q 198 19 254 -12 q 107 101 142 50 q 59 218 73 152 q 54 355 46 283 l 55 369 m 342 115 q 419 129 385 113 q 477 173 452 145 q 519 235 503 200 q 546 309 536 271 l 208 309 q 213 240 208 274 q 234 179 219 206 q 275 134 249 151 q 342 115 302 116 m 427 617 q 350 602 384 618 q 292 559 317 586 q 250 496 267 532 q 224 424 233 461 l 560 424 q 555 492 561 458 q 534 553 549 526 q 493 598 519 581 q 427 617 467 616 z "},"Ѵ":{"ha":815,"x_min":113,"x_max":931,"o":"m 374 262 l 378 191 l 412 272 l 646 783 q 687 865 665 825 q 739 934 709 904 q 808 983 769 964 q 898 1001 847 1001 l 931 1000 l 913 857 l 902 857 q 866 849 882 857 q 838 829 850 842 q 816 801 825 817 q 798 769 806 785 l 429 0 l 271 0 l 113 987 l 284 987 l 374 262 z "},"ѵ":{"ha":815,"x_min":104,"x_max":795,"o":"m 330 245 l 332 182 l 358 252 l 500 553 q 536 625 516 589 q 583 688 556 660 q 643 733 609 716 q 722 750 677 750 q 759 746 741 749 q 795 733 777 742 l 768 605 q 754 609 762 607 q 740 610 747 610 q 713 603 725 609 q 690 588 701 597 q 672 568 680 579 q 657 544 663 556 l 374 0 l 237 0 l 104 734 l 259 734 l 330 245 z "},"Ѹ":{"ha":815,"x_min":25,"x_max":858,"o":"m 421 324 q 408 252 416 291 q 386 176 399 214 q 354 103 373 138 q 310 41 336 68 q 250 0 284 15 q 173 -14 216 -16 q 106 5 133 -13 q 62 51 79 23 q 38 115 45 79 q 27 188 30 151 q 27 260 25 225 q 33 323 29 296 l 88 664 q 100 733 93 695 q 119 808 107 770 q 148 882 131 846 q 190 945 165 918 q 245 988 214 972 q 319 1002 277 1004 q 390 984 361 1001 q 437 939 418 966 q 466 876 456 911 q 479 804 475 841 q 481 730 483 767 q 477 664 480 694 l 421 324 m 618 455 l 609 346 l 739 734 l 858 734 l 560 -115 q 535 -177 550 -145 q 498 -236 519 -210 q 448 -278 477 -262 q 382 -295 419 -295 q 347 -291 364 -295 q 313 -284 330 -288 l 324 -180 q 348 -183 336 -181 q 372 -184 360 -185 q 409 -171 393 -184 q 435 -138 425 -157 q 454 -98 446 -119 q 469 -60 462 -77 l 494 4 l 522 734 l 637 734 l 618 455 m 348 693 q 351 721 349 703 q 355 761 353 739 q 355 804 356 782 q 350 845 355 827 q 335 876 345 864 q 307 889 324 888 q 272 880 286 890 q 247 852 257 869 q 231 812 237 834 q 220 768 224 790 q 214 726 216 746 q 211 693 212 706 l 149 296 q 145 268 147 286 q 141 229 142 250 q 139 184 139 207 q 144 142 140 161 q 158 111 149 123 q 186 98 168 98 q 222 107 207 96 q 247 136 237 118 q 264 175 258 153 q 275 220 271 197 q 282 262 279 242 q 286 296 284 282 l 348 693 z "},"ѹ":{"ha":815,"x_min":19,"x_max":858,"o":"m 28 370 q 41 450 33 408 q 63 535 50 493 q 97 617 77 578 q 144 685 117 656 q 209 732 172 715 q 294 748 246 749 q 372 728 340 747 q 423 678 403 709 q 453 609 443 648 q 466 529 463 570 q 467 448 469 488 q 461 375 465 408 l 459 360 q 446 281 454 323 q 424 196 437 238 q 390 115 410 154 q 341 47 370 77 q 276 1 313 18 q 192 -15 239 -16 q 115 5 146 -14 q 64 55 84 24 q 35 123 45 85 q 22 203 25 162 q 21 283 19 243 q 26 355 22 323 l 28 370 m 618 452 l 608 341 l 739 734 l 858 734 l 560 -115 q 535 -178 550 -146 q 498 -236 520 -210 q 448 -279 477 -262 q 382 -295 419 -295 q 347 -292 364 -295 q 313 -284 330 -288 l 324 -180 q 348 -183 336 -181 q 372 -184 360 -185 q 409 -171 393 -184 q 435 -138 425 -157 q 454 -98 446 -119 q 468 -60 462 -77 l 494 4 l 522 734 l 637 734 l 618 452 m 159 357 q 154 320 158 344 q 148 267 151 296 q 145 207 145 237 q 150 152 144 177 q 167 110 155 127 q 203 93 180 94 q 249 106 230 92 q 281 145 268 121 q 302 199 294 169 q 315 259 310 229 q 322 316 319 290 q 326 360 324 343 l 328 374 q 333 412 329 387 q 339 465 336 436 q 342 525 342 494 q 337 581 342 555 q 319 623 332 606 q 283 640 307 639 q 238 627 257 642 q 205 588 218 612 q 185 533 193 564 q 172 472 177 503 q 165 415 168 442 q 161 371 163 388 l 159 357 z "},"Ѻ":{"ha":815,"x_min":58,"x_max":779,"o":"m 534 786 l 404 786 l 454 1073 l 585 1073 l 534 786 m 382 -94 l 252 -94 l 303 200 l 434 200 l 382 -94 m 753 431 q 727 323 744 377 q 686 219 711 269 q 627 126 661 169 q 549 51 593 83 q 454 2 506 20 q 340 -14 401 -15 q 236 7 281 -12 q 158 60 191 27 q 104 136 125 93 q 72 228 83 179 q 60 329 61 277 q 65 430 58 380 l 85 556 q 110 663 93 609 q 151 767 126 718 q 209 861 176 817 q 285 936 242 904 q 379 985 328 967 q 492 1001 431 1002 q 597 980 551 1000 q 676 928 643 960 q 732 852 710 895 q 765 759 753 808 q 778 658 776 710 q 772 556 779 606 l 753 431 m 613 558 q 619 618 616 585 q 619 685 621 651 q 609 750 616 718 q 585 806 601 781 q 544 846 569 831 q 480 863 518 862 q 409 851 440 865 q 353 815 377 838 q 310 760 328 791 q 279 694 292 729 q 258 625 267 660 q 244 557 250 589 l 224 429 q 218 370 220 403 q 217 303 216 337 q 227 238 219 270 q 249 181 234 206 q 290 140 264 156 q 353 123 315 124 q 425 135 393 121 q 482 171 457 148 q 525 226 507 195 q 557 292 544 258 q 579 362 571 327 q 593 430 588 398 l 613 558 z "},"ѻ":{"ha":815,"x_min":58,"x_max":736,"o":"m 489 541 l 366 541 l 416 830 l 539 830 l 489 541 m 376 -103 l 252 -103 l 305 199 l 429 199 l 376 -103 m 67 369 q 107 514 77 445 q 186 636 137 584 q 302 719 235 688 q 451 747 369 749 q 585 714 529 745 q 675 631 641 682 q 723 513 709 579 q 728 376 736 447 l 727 361 q 687 216 718 285 q 607 95 656 147 q 491 14 558 43 q 343 -14 425 -16 q 210 19 266 -12 q 119 101 154 50 q 72 218 85 152 q 66 355 58 283 l 67 369 m 224 355 q 221 302 221 330 q 224 249 220 275 q 237 199 229 222 q 262 157 246 175 q 300 127 277 138 q 355 115 323 115 q 443 135 406 113 q 507 193 481 157 q 548 274 532 229 q 568 361 563 319 l 570 375 q 572 454 574 412 q 556 532 570 496 q 515 592 543 568 q 439 617 487 616 q 351 596 389 618 q 287 537 313 574 q 246 456 261 501 q 225 369 231 412 l 224 355 z "},"Ѽ":{"ha":815,"x_min":8,"x_max":859,"o":"m 631 988 q 734 963 690 985 q 807 904 779 941 q 847 817 835 867 q 852 711 859 768 l 775 235 q 746 134 768 180 q 691 54 725 87 q 610 2 656 20 q 505 -14 563 -16 q 426 7 460 -13 q 371 67 391 26 q 303 7 340 29 q 216 -14 265 -16 q 121 6 161 -14 q 55 59 81 26 q 19 138 30 93 q 14 235 8 183 l 91 711 q 125 826 100 775 q 189 912 150 877 q 281 968 229 948 q 399 989 334 987 l 385 857 q 330 844 353 856 q 290 811 307 831 q 264 765 274 791 q 250 711 255 739 l 173 234 q 172 196 172 217 q 178 158 172 176 q 196 128 183 140 q 232 115 209 116 q 269 126 254 115 q 294 155 284 138 q 309 192 304 172 q 317 229 314 212 l 369 553 l 524 553 l 473 229 q 471 195 471 214 q 475 158 471 176 q 490 129 479 141 q 522 116 501 117 q 563 126 546 115 q 591 155 580 137 q 608 194 602 172 q 617 234 614 215 l 695 711 q 697 761 698 736 q 690 805 697 785 q 666 838 682 825 q 621 854 649 852 l 631 988 m 802 1178 l 795 1086 l 774 1086 q 705 1100 738 1086 q 639 1129 671 1114 q 575 1157 607 1144 q 509 1170 543 1170 q 453 1151 475 1170 q 426 1099 432 1132 l 425 1086 l 336 1087 l 337 1112 q 388 1223 344 1185 q 506 1260 433 1261 q 575 1247 543 1259 q 641 1219 608 1234 q 707 1191 673 1204 q 778 1178 741 1179 l 802 1178 m 434 925 q 471 971 454 947 q 495 1025 488 995 l 507 1089 l 606 1088 l 597 1020 q 559 940 589 975 q 490 882 529 905 l 434 925 z "},"ѽ":{"ha":815,"x_min":26,"x_max":781,"o":"m 582 747 q 675 721 636 744 q 738 662 714 699 q 771 580 762 626 q 775 483 781 534 l 736 223 q 712 131 730 174 q 663 54 693 87 q 591 2 633 21 q 496 -14 549 -16 q 414 12 449 -13 q 365 81 380 37 q 334 43 351 60 q 299 12 318 25 q 257 -8 279 -1 q 208 -15 235 -15 q 122 6 158 -14 q 65 60 87 27 q 35 136 43 93 q 31 223 26 178 l 69 483 q 99 590 77 542 q 157 673 121 639 q 240 728 192 708 q 349 749 288 747 l 336 629 q 286 614 306 627 q 252 581 265 601 q 232 534 239 560 q 221 483 225 509 l 184 231 q 182 197 183 217 q 183 159 180 178 q 196 127 186 140 q 225 112 205 113 q 263 120 248 111 q 288 145 278 130 q 303 180 298 161 q 311 217 308 199 l 337 391 l 481 391 l 455 217 q 454 181 454 200 q 460 148 454 163 q 477 122 465 132 q 512 112 490 112 q 547 124 534 112 q 569 155 561 137 q 581 194 577 174 q 587 231 585 214 l 625 484 q 629 529 627 505 q 627 573 631 552 q 610 608 623 593 q 571 626 597 623 l 582 747 m 753 938 l 746 846 l 718 846 q 649 860 682 846 q 584 889 616 873 q 520 917 552 904 q 455 930 488 930 q 399 911 421 930 q 372 859 378 892 l 370 846 l 281 847 l 282 872 q 334 983 289 945 q 453 1020 379 1021 q 522 1007 489 1019 q 586 979 554 994 q 651 951 618 964 q 722 938 684 939 l 753 938 m 389 682 q 426 728 409 704 q 450 782 444 752 l 463 846 l 562 846 l 552 777 q 514 697 545 732 q 446 640 484 662 l 389 682 z "},"Ѿ":{"ha":815,"x_min":30,"x_max":876,"o":"m 317 1220 l 807 1220 l 794 1144 l 603 1144 l 587 1058 l 467 1058 l 483 1144 l 303 1144 l 317 1220 m 876 987 l 747 231 q 723 137 741 182 q 675 58 705 92 q 603 4 645 24 q 506 -14 561 -16 q 423 9 459 -13 q 370 75 387 31 q 339 38 355 55 q 304 10 323 22 q 263 -8 285 -2 q 216 -14 241 -15 q 127 7 163 -14 q 68 62 91 28 q 38 139 46 96 q 35 230 30 183 l 163 987 l 315 987 l 187 229 q 185 197 186 216 q 189 160 185 178 q 202 130 192 142 q 232 116 212 117 q 269 126 254 115 q 293 155 283 138 q 307 192 302 172 q 315 229 312 212 l 442 987 l 597 987 l 470 229 q 469 194 469 214 q 473 158 469 175 q 490 129 478 140 q 523 116 501 117 q 556 128 543 116 q 578 157 570 140 q 590 195 586 175 q 596 229 594 214 l 724 987 l 876 987 z "},"ѿ":{"ha":815,"x_min":24,"x_max":817,"o":"m 269 987 l 759 987 l 745 911 l 555 911 l 539 825 l 419 825 l 435 911 l 255 911 l 269 987 m 817 734 l 733 239 q 709 143 726 190 q 663 61 692 97 q 592 5 634 26 q 495 -14 551 -16 q 412 11 448 -13 q 360 79 376 34 q 330 41 346 58 q 294 11 313 24 q 253 -8 275 -1 q 204 -14 231 -15 q 116 9 151 -14 q 59 67 80 31 q 31 147 38 102 q 28 238 24 192 l 112 734 l 262 734 l 179 237 q 177 217 178 229 q 176 191 176 205 q 178 164 176 178 q 184 140 180 151 q 198 122 189 130 q 220 115 206 115 q 258 126 243 113 q 283 157 274 138 q 298 198 293 176 q 306 237 303 220 l 388 734 l 543 734 l 460 237 q 458 201 459 222 q 462 161 458 180 q 478 128 467 142 q 512 114 490 114 q 546 127 533 114 q 568 160 559 141 q 579 201 576 180 q 585 237 583 222 l 667 734 l 817 734 z "},"Ҁ":{"ha":815,"x_min":81,"x_max":787,"o":"m 441 -254 l 282 -254 l 329 -8 q 207 47 257 7 q 129 143 157 87 q 90 266 100 199 q 90 399 81 332 l 119 587 q 143 688 127 637 q 183 786 159 739 q 240 872 208 832 q 313 941 273 912 q 404 987 354 970 q 511 1002 453 1003 q 639 974 585 1000 q 726 901 692 947 q 773 795 760 856 q 783 665 787 734 l 624 665 q 624 738 627 701 q 608 803 621 774 q 568 851 595 832 q 498 871 542 869 q 434 860 463 872 q 382 825 405 847 q 341 774 359 803 q 311 713 323 745 q 290 649 298 681 q 278 588 282 616 l 248 399 q 244 338 244 370 q 248 276 243 307 q 264 217 253 245 q 293 168 275 189 q 337 133 311 146 q 399 118 363 119 l 506 117 l 441 -254 z "},"ҁ":{"ha":815,"x_min":106,"x_max":740,"o":"m 419 -255 l 261 -255 l 308 -7 q 206 45 246 8 q 142 131 165 81 q 113 238 119 180 q 112 352 106 295 l 115 377 q 153 518 123 450 q 230 637 182 586 q 343 719 278 689 q 487 747 408 749 q 594 724 547 746 q 674 666 642 703 q 723 579 707 629 q 737 471 740 529 l 588 471 q 583 525 589 499 q 563 571 577 551 q 527 603 549 591 q 475 617 505 616 q 390 597 426 619 q 330 539 355 574 q 292 461 306 504 q 272 377 277 418 l 269 353 q 265 304 266 330 q 267 252 264 278 q 276 203 269 227 q 297 160 283 179 q 331 130 311 142 q 382 117 352 118 l 484 115 l 419 -255 z "},"҂":{"ha":815,"x_min":39,"x_max":820,"o":"m 380 299 l 550 182 l 492 102 l 321 217 l 163 0 l 39 0 l 238 275 l 67 391 l 125 471 l 297 356 l 477 606 l 306 722 l 365 804 l 536 688 l 697 910 l 820 910 l 618 630 l 791 514 l 730 435 l 561 549 l 380 299 z "},"҃":{"ha":7,"x_min":-100,"x_max":416,"o":"m 33 890 l 17 804 l -100 805 l -72 966 l 287 966 l 299 1040 l 416 1039 l 390 890 l 33 890 z "},"҄":{"ha":7,"x_min":-84,"x_max":418,"o":"m -48 975 q 35 988 -5 975 q 114 1016 75 1000 q 192 1043 153 1031 q 274 1055 232 1055 q 336 1045 309 1055 q 382 1017 363 1036 q 410 972 401 999 q 416 910 418 945 l 414 884 l 325 884 l 327 897 q 316 945 328 928 q 272 964 304 962 q 193 954 232 966 q 113 926 153 941 q 33 898 73 911 q -50 884 -7 884 l -84 883 l -76 975 l -48 975 z "},"҅":{"ha":7,"x_min":90,"x_max":234,"o":"m 90 1025 l 102 1101 l 228 1100 l 210 1003 l 234 926 l 178 880 l 90 1025 z "},"҆":{"ha":7,"x_min":103,"x_max":296,"o":"m 153 882 l 103 940 l 156 1019 l 170 1100 l 296 1101 l 280 1012 l 153 882 z "},"҈":{"ha":7,"x_min":-568,"x_max":712,"o":"m 15 860 q 31 913 19 889 q 63 953 43 937 q 107 979 82 970 q 163 987 132 987 q 257 952 222 986 q 290 859 292 918 l 216 859 q 215 885 217 873 q 207 907 213 898 q 191 922 201 917 q 163 928 180 928 q 114 908 132 928 q 90 860 97 888 l 15 860 m 370 672 q 387 725 374 701 q 418 765 399 749 q 463 791 437 782 q 519 799 488 800 q 572 790 548 799 q 613 764 596 781 q 639 724 630 747 q 648 671 648 700 l 572 671 q 571 697 573 685 q 563 720 569 710 q 547 734 557 729 q 520 740 536 740 q 471 720 488 740 q 446 672 454 700 l 370 672 m 436 330 q 452 384 440 359 q 483 424 464 408 q 528 450 503 441 q 583 458 553 458 q 677 423 643 457 q 711 330 712 389 l 636 330 q 635 356 637 344 q 627 378 633 369 q 611 393 621 388 q 584 399 600 399 q 535 379 552 399 q 510 331 517 359 l 436 330 m 245 -22 q 261 32 250 7 q 293 72 273 56 q 337 98 312 89 q 393 106 362 106 q 487 71 452 105 q 520 -22 522 37 l 446 -22 q 445 4 446 -8 q 437 26 443 17 q 420 41 431 36 q 393 47 410 47 q 344 27 361 47 q 319 -21 327 7 l 245 -22 m -168 -214 q -152 -161 -163 -184 q -120 -120 -140 -137 q -76 -95 -101 -104 q -20 -87 -50 -86 q 74 -122 39 -87 q 108 -215 109 -156 l 33 -215 q 32 -188 34 -201 q 24 -166 30 -176 q 8 -151 18 -157 q -19 -146 -3 -146 q -68 -166 -51 -146 q -93 -214 -85 -186 l -168 -214 m -395 672 q -346 766 -387 732 q -245 799 -306 800 q -151 764 -186 798 q -118 671 -117 730 l -192 671 q -193 697 -191 685 q -201 720 -195 710 q -218 734 -207 729 q -245 740 -229 740 q -273 734 -261 740 q -294 720 -285 729 q -309 699 -302 711 q -319 672 -315 686 l -395 672 m -568 330 q -552 384 -564 359 q -521 424 -541 408 q -476 450 -502 441 q -420 458 -451 458 q -326 423 -361 457 q -293 330 -292 389 l -368 330 q -369 356 -367 344 q -377 378 -371 369 q -393 393 -382 388 q -420 399 -404 399 q -448 393 -436 399 q -469 379 -460 388 q -484 357 -478 370 q -494 331 -490 345 l -568 330 m -519 -22 q -504 32 -515 7 q -472 72 -492 56 q -428 98 -453 89 q -372 106 -403 106 q -278 71 -313 105 q -244 -22 -243 37 l -319 -22 q -321 4 -319 -8 q -329 26 -323 17 q -345 41 -334 36 q -372 47 -355 47 q -400 41 -388 47 q -420 27 -412 36 q -435 5 -429 18 q -446 -21 -441 -7 l -519 -22 z "},"҉":{"ha":7,"x_min":-504,"x_max":714,"o":"m 96 -39 l 105 -52 l -11 -280 l -80 -280 l 5 -41 l 96 -39 m 115 763 l 106 774 l 222 1002 l 291 1002 l 205 764 l 115 763 m 496 429 l 503 435 l 714 349 l 703 288 l 486 334 l 496 429 m -286 293 l -292 286 l -504 372 l -493 434 l -276 388 l -286 293 m 384 680 l 386 691 l 611 795 l 653 743 l 445 613 l 384 680 m -179 14 l -180 2 l -406 -102 l -448 -49 l -239 81 l -179 14 m -168 583 l -178 585 l -242 812 l -197 854 l -96 648 l -168 583 m 371 109 l 383 108 l 447 -119 l 401 -161 l 300 44 l 371 109 z "},"Ҏ":{"ha":815,"x_min":39,"x_max":814,"o":"m 702 288 l 613 248 l 409 619 l 498 660 l 702 288 m 264 378 l 198 0 l 39 0 l 210 987 l 522 987 q 643 963 588 985 q 736 902 698 941 q 795 808 775 863 q 808 686 814 753 q 769 554 802 611 q 685 458 736 497 q 569 398 634 418 q 434 378 504 378 l 264 378 m 286 510 l 441 509 q 516 521 481 509 q 580 556 552 534 q 626 611 608 579 q 648 684 644 644 q 646 749 652 719 q 623 803 640 780 q 579 839 606 825 q 516 855 553 853 l 347 856 l 286 510 z "},"ҏ":{"ha":815,"x_min":-17,"x_max":724,"o":"m 646 0 l 567 -61 l 351 225 l 430 281 l 646 0 m 718 363 q 700 273 712 319 q 668 185 688 227 q 621 105 648 142 q 559 42 594 68 q 481 0 524 15 q 385 -14 437 -16 q 287 6 332 -13 q 206 66 241 25 l 141 -282 l -17 -282 l 159 734 l 303 734 l 292 660 q 382 726 333 703 q 492 747 432 749 q 580 730 543 746 q 645 686 618 713 q 688 623 671 659 q 713 547 705 587 q 723 463 722 506 q 719 378 724 420 l 718 363 m 561 378 q 564 429 564 402 q 561 481 564 455 q 550 531 558 507 q 527 573 542 555 q 491 603 513 591 q 438 614 469 614 q 349 593 387 616 q 282 530 311 570 l 225 200 q 273 138 241 159 q 351 115 305 117 q 412 124 385 114 q 461 153 439 134 q 500 196 484 171 q 529 248 517 220 q 548 306 541 276 q 559 364 555 336 l 561 378 z "},"Ґ":{"ha":815,"x_min":39,"x_max":874,"o":"m 810 856 l 347 856 l 198 0 l 39 0 l 210 987 l 675 987 l 716 1225 l 874 1225 l 810 856 z "},"ґ":{"ha":815,"x_min":37,"x_max":817,"o":"m 757 603 l 741 603 l 741 602 l 300 602 l 195 0 l 37 0 l 164 734 l 621 734 l 659 947 l 817 947 l 757 603 z "},"Ҕ":{"ha":815,"x_min":35,"x_max":810,"o":"m 787 856 l 342 856 l 292 566 l 399 566 q 553 535 486 564 q 663 455 620 507 q 725 333 707 404 q 734 176 743 262 q 695 20 725 91 q 616 -101 666 -50 q 498 -182 567 -153 q 342 -214 429 -212 l 353 -87 q 448 -64 408 -87 q 514 -6 488 -42 q 554 76 540 30 q 575 172 569 122 q 575 271 581 224 q 548 352 570 317 q 489 407 527 387 q 392 430 450 428 l 269 430 l 194 0 l 35 0 l 205 987 l 810 987 l 787 856 z "},"ҕ":{"ha":815,"x_min":37,"x_max":764,"o":"m 741 602 l 300 602 l 272 445 l 391 444 q 522 419 463 442 q 622 356 581 397 q 683 256 663 315 q 696 123 703 197 q 664 11 690 62 q 597 -82 637 -41 q 505 -152 556 -123 q 397 -196 453 -181 l 355 -77 q 422 -46 391 -64 q 477 -3 453 -28 q 516 53 500 22 q 536 124 532 85 q 533 198 541 164 q 506 255 526 231 q 456 294 487 279 q 385 309 426 308 l 249 310 l 195 0 l 37 0 l 164 734 l 764 734 l 741 602 z "},"Ҝ":{"ha":815,"x_min":26,"x_max":908,"o":"m 908 987 l 614 526 l 757 0 l 564 0 l 454 427 l 427 427 l 397 268 l 288 268 l 317 427 l 260 427 l 186 0 l 26 0 l 198 987 l 357 987 l 284 567 l 340 567 l 371 739 l 479 739 l 445 566 l 466 566 l 711 987 l 908 987 z "},"ҝ":{"ha":815,"x_min":22,"x_max":823,"o":"m 823 734 l 549 377 l 705 0 l 513 0 l 419 292 l 386 292 l 362 170 l 258 170 l 280 292 l 232 292 l 180 0 l 22 0 l 150 734 l 308 734 l 256 439 l 305 439 l 329 575 l 433 575 l 405 438 l 431 438 l 621 734 l 823 734 z "},"Ҡ":{"ha":815,"x_min":96,"x_max":876,"o":"m 445 422 l 388 422 l 315 0 l 156 0 l 304 851 l 96 851 l 119 987 l 486 987 l 411 572 l 457 573 l 688 987 l 876 987 l 588 505 l 724 0 l 547 0 l 445 422 z "},"ҡ":{"ha":815,"x_min":58,"x_max":840,"o":"m 441 288 l 372 288 l 322 0 l 161 0 l 265 597 l 58 597 l 81 734 l 450 734 l 399 444 l 458 444 l 635 734 l 840 734 l 578 378 l 725 0 l 527 0 l 441 288 z "},"Ҥ":{"ha":815,"x_min":-11,"x_max":882,"o":"m 242 564 l 442 564 l 516 987 l 882 987 l 858 851 l 648 851 l 500 0 l 345 0 l 418 425 l 218 425 l 144 0 l -11 0 l 160 987 l 316 987 l 242 564 z "},"ҥ":{"ha":815,"x_min":-6,"x_max":838,"o":"m 229 429 l 433 429 l 487 734 l 838 734 l 814 597 l 624 597 l 520 0 l 359 0 l 410 294 l 206 294 l 155 0 l -6 0 l 121 734 l 283 734 l 229 429 z "},"Ҧ":{"ha":815,"x_min":-18,"x_max":745,"o":"m 514 564 q 604 543 566 561 q 668 495 642 524 q 711 428 695 466 q 736 347 728 390 q 744 260 744 304 q 740 173 745 215 q 709 30 731 99 q 647 -94 686 -39 q 548 -182 607 -149 q 408 -220 490 -216 l 418 -88 q 473 -74 450 -87 q 512 -41 496 -61 q 540 5 529 -20 q 558 59 551 31 q 570 116 566 87 q 577 168 574 144 q 582 213 579 188 q 584 266 584 239 q 581 320 584 293 q 568 368 577 347 q 541 405 558 390 q 497 425 524 420 l 420 0 l 265 0 l 412 848 l 284 848 l 136 0 l -18 0 l 153 987 l 591 987 l 514 564 z "},"ҧ":{"ha":815,"x_min":-7,"x_max":729,"o":"m 492 448 q 603 415 556 444 q 678 342 649 387 q 718 242 707 298 q 723 126 729 186 q 696 19 718 71 q 640 -76 674 -33 q 558 -149 605 -118 q 457 -193 512 -180 l 414 -72 q 473 -40 448 -60 q 516 5 498 -20 q 545 62 534 31 q 559 127 555 92 q 562 184 563 154 q 553 239 562 214 q 526 284 545 265 q 475 308 507 302 l 418 0 l 263 0 l 367 597 l 252 597 l 149 0 l -7 0 l 121 734 l 546 734 l 492 448 z "},"Ҩ":{"ha":815,"x_min":58,"x_max":796,"o":"m 692 -17 q 595 -6 642 -16 q 503 25 548 4 q 428 -4 467 7 q 348 -14 389 -14 q 247 6 292 -13 q 168 56 201 24 q 112 129 134 87 q 77 217 89 170 q 61 315 64 264 q 65 414 58 365 l 98 618 q 115 705 104 661 q 144 791 127 749 q 184 871 161 833 q 240 938 208 909 q 311 984 271 966 q 401 1003 351 1002 l 384 866 q 343 850 361 864 q 313 814 326 836 q 292 765 300 792 q 277 712 283 739 q 268 661 271 685 q 262 620 264 636 l 229 413 q 224 357 226 388 q 225 295 222 327 q 235 233 227 263 q 258 179 243 203 q 297 140 273 155 q 356 124 321 125 q 370 124 363 123 q 383 125 376 124 q 332 280 345 200 q 330 444 319 359 l 366 669 q 380 739 371 701 q 404 814 389 777 q 438 886 418 852 q 485 946 458 920 q 546 987 512 972 q 621 1000 579 1002 q 693 981 663 999 q 743 936 723 964 q 775 872 764 908 q 791 798 787 836 q 796 723 796 760 q 791 654 795 686 l 755 428 q 708 267 741 342 q 618 125 675 191 q 661 117 640 119 q 705 115 682 115 l 692 -17 m 484 441 q 477 325 475 384 q 507 211 480 265 q 564 314 543 260 q 595 428 585 368 l 633 666 q 636 691 633 673 q 640 730 638 709 q 641 776 641 752 q 637 819 641 800 q 625 852 633 839 q 602 865 617 865 q 573 855 585 866 q 551 825 560 844 q 537 784 543 807 q 528 740 532 762 q 522 700 524 718 q 519 671 520 681 l 484 441 z "},"ҩ":{"ha":815,"x_min":41,"x_max":773,"o":"m 727 -14 q 619 -4 672 -12 q 514 24 566 5 q 427 -4 471 6 q 334 -14 382 -14 q 237 3 281 -13 q 160 46 194 19 q 102 110 126 73 q 64 190 78 146 q 45 280 50 233 q 46 375 41 327 l 52 425 q 83 547 60 489 q 146 649 107 604 q 239 720 185 693 q 361 749 292 747 l 345 614 q 289 591 311 610 q 251 545 266 572 q 228 486 236 517 q 216 427 220 454 l 209 374 q 206 320 206 349 q 210 265 205 292 q 223 212 214 237 q 248 168 232 187 q 287 137 264 149 q 343 123 311 125 q 359 123 351 123 q 375 125 367 123 q 328 246 340 183 q 323 376 315 309 l 335 462 q 360 564 342 513 q 410 657 378 616 q 485 724 441 699 q 589 747 530 749 q 658 732 628 746 q 709 694 688 718 q 743 640 730 671 q 764 575 757 609 q 772 507 771 542 q 770 440 773 472 l 759 356 q 715 221 748 283 q 630 109 683 160 q 682 102 656 104 q 734 100 708 100 l 727 -14 m 459 371 q 466 269 454 317 q 514 179 478 220 q 573 262 553 216 q 602 361 594 308 l 612 448 q 614 473 612 457 q 615 507 615 489 q 613 544 615 526 q 606 578 612 563 q 590 604 600 593 q 564 614 580 614 q 521 598 538 616 q 493 557 504 581 q 477 506 483 532 q 470 460 472 479 l 459 371 z "},"Ҵ":{"ha":815,"x_min":95,"x_max":814,"o":"m 259 851 l 95 851 l 119 987 l 589 987 l 565 851 l 417 851 l 294 138 l 508 138 l 656 987 l 814 987 l 667 139 l 767 139 l 690 -238 l 544 -238 l 585 0 l 111 0 l 259 851 z "},"ҵ":{"ha":815,"x_min":60,"x_max":748,"o":"m 196 598 l 60 598 l 83 734 l 510 734 l 486 598 l 357 598 l 277 136 l 484 136 l 587 734 l 748 734 l 644 135 l 737 135 l 663 -218 l 515 -218 l 553 0 l 92 0 l 196 598 z "},"Ҹ":{"ha":815,"x_min":139,"x_max":813,"o":"m 410 199 l 302 199 l 389 694 l 496 694 l 410 199 m 813 987 l 642 0 l 482 0 l 554 390 q 389 362 474 362 q 268 387 318 363 q 189 453 218 411 q 149 552 159 495 q 146 676 139 610 l 198 987 l 357 987 l 306 675 q 301 612 302 644 q 310 555 301 581 q 340 513 319 530 q 400 496 361 497 q 485 502 443 494 q 569 520 528 509 l 654 987 l 813 987 z "},"ҹ":{"ha":815,"x_min":96,"x_max":775,"o":"m 407 126 l 299 126 l 370 536 l 478 536 l 407 126 m 648 0 l 488 0 l 536 250 q 372 231 456 230 q 255 250 308 232 q 166 303 202 269 q 113 390 130 338 q 103 509 96 442 l 139 734 l 298 734 l 261 509 q 282 401 253 437 q 382 363 311 366 q 467 367 425 361 q 551 379 509 372 l 616 734 l 775 734 l 648 0 z "},"Һ":{"ha":815,"x_min":40,"x_max":726,"o":"m 40 0 l 212 987 l 374 987 l 302 600 q 384 620 342 613 q 468 625 425 626 q 589 600 538 625 q 671 533 640 576 q 714 434 703 491 q 718 309 726 376 l 665 0 l 503 0 l 551 310 q 555 373 555 342 q 546 428 555 404 q 515 469 536 453 q 456 486 494 484 q 370 479 412 487 q 286 462 328 472 l 202 0 l 40 0 z "},"Ҽ":{"ha":815,"x_min":51,"x_max":804,"o":"m 452 -15 q 351 3 395 -14 q 272 49 306 20 q 215 117 238 78 q 179 202 192 157 q 164 296 167 247 q 170 395 162 346 l 182 463 q 111 506 138 477 q 70 571 83 534 q 53 650 56 608 q 56 734 51 692 l 176 733 q 171 696 174 715 q 170 659 169 677 q 177 623 171 640 q 197 592 183 606 q 223 687 207 638 q 262 781 239 735 q 315 867 285 827 q 382 938 345 908 q 467 985 420 968 q 568 1000 513 1002 q 666 980 625 999 q 734 928 707 960 q 776 854 761 897 q 798 766 791 812 q 802 672 804 720 q 794 578 800 623 l 772 448 l 342 448 l 334 395 q 331 306 329 352 q 347 222 332 260 q 394 158 362 183 q 479 131 425 132 q 568 143 525 130 q 652 176 612 156 l 671 41 q 565 -3 623 11 q 452 -15 508 -16 m 359 574 l 632 579 l 640 633 q 644 676 642 652 q 646 724 646 700 q 641 771 645 748 q 626 812 636 794 q 597 842 615 830 q 552 854 579 853 q 494 843 519 856 q 449 807 469 829 q 416 756 430 785 q 393 697 403 728 q 375 637 382 667 q 362 584 368 608 l 359 574 z "},"ҽ":{"ha":815,"x_min":47,"x_max":774,"o":"m 439 -13 q 315 19 368 -12 q 231 98 263 49 q 185 209 198 146 q 181 336 173 271 q 112 375 139 349 q 71 435 85 401 q 52 508 56 469 q 50 587 47 547 l 163 587 q 161 551 162 569 q 163 515 161 532 q 174 481 166 497 q 197 454 181 466 q 247 563 216 509 q 318 658 277 616 q 413 725 360 700 q 532 747 467 749 q 652 715 604 745 q 728 637 700 685 q 765 529 755 589 q 766 406 774 468 l 751 317 l 342 317 q 342 252 339 286 q 359 190 346 218 q 396 143 372 161 q 459 123 420 124 q 555 139 511 121 q 639 189 599 157 l 696 90 q 642 43 671 63 q 579 11 612 23 q 510 -8 546 -2 q 439 -13 475 -14 m 517 612 q 457 596 483 613 q 412 553 431 579 q 380 496 393 527 q 357 439 367 466 l 606 439 l 610 458 q 611 511 614 484 q 598 561 609 538 q 568 597 588 583 q 517 612 548 612 z "},"Ӄ":{"ha":815,"x_min":46,"x_max":874,"o":"m 205 0 l 46 0 l 218 987 l 377 987 l 305 575 l 383 575 l 675 987 l 874 987 l 530 554 q 642 500 597 538 q 711 410 686 462 q 743 297 736 359 q 744 173 751 236 q 704 18 734 88 q 624 -103 674 -52 q 505 -184 574 -155 q 348 -214 435 -213 l 361 -90 q 457 -66 417 -88 q 523 -8 496 -44 q 564 74 549 28 q 585 170 578 120 q 587 262 590 217 q 566 344 583 308 q 516 403 549 380 q 427 429 482 427 l 280 429 l 205 0 z "},"ӄ":{"ha":815,"x_min":36,"x_max":798,"o":"m 497 411 q 583 367 547 395 q 643 300 620 338 q 675 216 666 262 q 679 119 684 170 q 649 11 673 61 q 586 -78 624 -39 q 498 -146 547 -118 q 396 -189 450 -174 l 354 -70 q 416 -41 387 -58 q 466 0 444 -23 q 502 54 488 24 q 519 120 515 83 q 517 185 524 155 q 495 238 511 216 q 451 275 478 261 q 387 291 424 288 l 245 292 l 194 0 l 36 0 l 163 734 l 321 734 l 270 439 l 340 439 l 593 734 l 798 734 l 497 411 z "},"Ӈ":{"ha":815,"x_min":35,"x_max":803,"o":"m 366 987 l 290 553 l 568 553 l 643 987 l 803 987 l 627 -43 q 598 -146 619 -100 q 544 -226 577 -193 q 464 -278 510 -260 q 358 -297 417 -297 q 313 -294 335 -297 q 270 -285 292 -290 l 294 -157 q 326 -164 309 -161 q 359 -168 342 -168 q 404 -156 385 -168 q 435 -127 422 -145 q 455 -88 448 -110 q 467 -43 463 -66 l 545 422 l 267 422 l 194 0 l 35 0 l 205 987 l 366 987 z "},"ӈ":{"ha":815,"x_min":33,"x_max":756,"o":"m 319 734 l 265 427 l 545 427 l 598 734 l 756 734 l 624 -43 q 596 -146 616 -99 q 543 -227 576 -193 q 463 -280 509 -261 q 358 -298 417 -298 q 314 -295 336 -298 q 271 -286 293 -292 l 293 -157 q 325 -165 309 -162 q 359 -168 342 -168 q 403 -157 385 -168 q 434 -128 422 -146 q 454 -88 447 -110 q 465 -43 462 -66 l 522 297 l 243 297 l 191 0 l 33 0 l 161 734 l 319 734 z "},"Ә":{"ha":815,"x_min":48,"x_max":781,"o":"m 467 1002 q 618 965 555 1000 q 718 871 681 930 q 768 738 755 813 q 770 583 781 663 l 744 414 q 719 309 736 362 q 675 209 701 256 q 613 119 648 161 q 535 48 578 78 q 440 1 492 18 q 330 -14 389 -16 q 226 4 271 -13 q 148 51 181 22 q 94 119 115 80 q 62 204 73 159 q 50 301 51 250 q 55 402 48 351 l 75 529 l 603 529 l 612 584 q 616 647 616 614 q 613 709 617 679 q 598 767 609 740 q 569 816 588 795 q 523 849 551 837 q 458 863 496 862 q 351 851 402 865 q 248 815 299 837 l 228 942 q 281 971 252 960 q 342 990 311 983 q 406 999 374 997 q 467 1002 437 1002 m 342 121 q 441 147 400 119 q 512 217 483 174 q 559 312 541 260 q 587 409 577 363 l 214 409 l 205 347 q 202 266 199 306 q 220 195 205 227 q 264 142 235 163 q 342 121 294 122 z "},"Ӡ":{"ha":815,"x_min":60,"x_max":818,"o":"m 605 856 l 199 856 l 223 987 l 818 987 l 800 878 l 491 578 q 596 545 551 570 q 672 481 642 519 q 715 392 703 442 q 724 281 728 341 q 684 152 718 208 q 598 58 650 96 q 480 3 546 21 q 346 -14 415 -16 q 228 8 281 -13 q 137 66 175 28 q 80 156 100 103 q 64 275 60 209 l 221 274 q 228 213 220 241 q 253 163 236 184 q 297 130 271 142 q 357 117 323 117 q 431 126 395 115 q 495 158 467 137 q 542 211 523 180 q 565 281 560 241 q 535 416 576 370 q 407 466 495 463 l 304 467 l 326 589 l 605 856 z "},"ӡ":{"ha":815,"x_min":9,"x_max":766,"o":"m 545 602 l 147 602 l 170 734 l 766 734 l 748 624 l 446 323 q 550 289 505 314 q 623 225 594 264 q 664 136 652 186 q 672 27 677 86 q 632 -102 666 -46 q 547 -195 599 -158 q 430 -251 495 -233 q 296 -268 365 -269 q 178 -246 231 -267 q 87 -188 125 -225 q 30 -98 50 -151 q 13 20 9 -45 l 171 20 q 177 -41 169 -13 q 203 -91 186 -70 q 247 -124 220 -111 q 307 -137 273 -136 q 380 -127 345 -138 q 444 -95 416 -117 q 491 -43 472 -74 q 515 26 510 -12 q 485 162 526 115 q 356 212 445 210 l 253 213 l 274 335 l 545 602 z "},"Ӻ":{"ha":815,"x_min":35,"x_max":865,"o":"m 842 856 l 397 856 l 248 0 l 89 0 l 260 987 l 865 987 l 842 856 m 484 467 l 44 467 l 64 583 l 505 583 l 484 467 m 414 136 l 387 -43 q 359 -146 379 -99 q 306 -227 339 -193 q 227 -280 273 -261 q 122 -298 181 -299 q 78 -295 99 -298 q 35 -287 56 -292 l 56 -153 q 88 -160 72 -157 q 121 -163 104 -163 q 165 -153 147 -163 q 196 -126 184 -142 q 216 -87 209 -109 q 227 -43 224 -66 l 256 136 l 414 136 z "},"ӻ":{"ha":815,"x_min":9,"x_max":814,"o":"m 790 602 l 349 602 l 245 0 l 87 0 l 214 734 l 814 734 l 790 602 m 485 319 l 45 319 l 66 434 l 506 434 l 485 319 m 389 134 l 361 -45 q 333 -147 353 -100 q 280 -228 313 -194 q 201 -281 247 -262 q 96 -300 155 -300 q 52 -297 73 -300 q 9 -288 31 -294 l 31 -155 q 62 -162 46 -159 q 96 -165 79 -165 q 140 -154 121 -165 q 171 -127 158 -144 q 191 -89 183 -111 q 201 -45 198 -67 l 231 134 l 389 134 z "},"Ԁ":{"ha":815,"x_min":33,"x_max":820,"o":"m 596 620 l 661 987 l 820 987 l 648 0 l 333 1 q 209 25 265 3 q 112 86 152 47 q 52 181 72 125 q 39 308 33 237 q 80 443 46 384 q 165 541 113 501 q 284 600 218 580 q 423 621 351 621 l 596 620 m 511 131 l 574 489 l 416 490 q 337 478 374 490 q 271 442 300 465 q 223 385 242 419 q 199 309 204 351 q 201 240 194 272 q 226 185 208 208 q 273 147 244 161 q 339 132 301 133 l 511 131 z "},"Ԃ":{"ha":815,"x_min":33,"x_max":800,"o":"m 266 1 q 156 31 202 5 q 82 98 111 57 q 43 194 54 140 q 38 308 33 248 q 68 431 44 374 q 134 531 93 488 q 231 597 175 573 q 356 621 287 621 l 393 619 l 461 987 l 620 987 l 469 129 l 490 129 q 535 142 515 130 q 570 172 555 153 q 596 213 585 190 q 614 261 606 237 q 626 310 621 286 q 634 354 631 334 q 648 494 645 423 q 639 635 651 566 l 788 634 q 800 494 799 564 q 791 355 800 425 q 760 227 781 291 q 701 112 739 163 q 610 30 664 61 q 481 0 555 -1 l 266 1 m 309 130 l 378 490 l 348 491 q 284 473 311 490 q 239 431 258 456 q 211 373 221 405 q 196 309 200 340 q 193 255 193 285 q 200 199 193 226 q 224 153 208 172 q 273 132 241 134 l 309 130 z "},"ԃ":{"ha":815,"x_min":41,"x_max":776,"o":"m 58 397 q 71 470 63 430 q 93 549 79 509 q 125 625 106 588 q 170 689 144 661 q 231 734 197 718 q 309 749 264 750 q 360 736 337 747 q 404 706 384 726 l 469 1058 l 628 1058 l 486 215 q 484 188 485 203 q 485 158 483 172 q 494 132 487 143 q 515 115 500 120 q 549 133 534 118 q 573 171 563 149 q 589 221 583 194 q 600 275 595 249 q 606 325 604 302 q 610 361 608 347 q 623 497 620 429 q 614 633 625 565 l 764 633 q 774 498 772 565 q 766 363 776 431 q 752 284 762 326 q 729 199 743 241 q 694 118 715 157 q 645 50 673 79 q 580 2 617 20 q 496 -14 543 -15 q 448 -10 472 -14 q 404 4 425 -5 q 368 30 384 14 q 341 71 351 46 q 313 37 328 53 q 281 10 298 22 q 244 -8 264 -1 q 201 -15 224 -15 q 135 2 162 -14 q 89 43 107 18 q 60 102 71 68 q 45 170 50 135 q 42 239 41 205 q 45 302 42 273 l 58 397 m 384 590 q 362 609 373 602 q 334 616 351 616 q 294 606 311 618 q 264 576 277 595 q 243 532 252 557 q 230 483 235 508 q 221 436 224 458 q 216 397 218 413 l 204 301 q 201 273 203 290 q 198 236 199 256 q 199 195 197 216 q 206 158 200 174 q 222 130 212 141 q 252 119 233 119 q 289 129 273 118 q 318 153 304 139 q 320 184 319 168 q 323 216 321 200 l 384 590 z "},"Ԅ":{"ha":815,"x_min":104,"x_max":772,"o":"m 281 256 q 283 303 283 276 q 276 354 283 330 q 255 395 270 378 q 212 415 240 413 l 104 416 l 127 548 l 182 547 q 307 591 261 549 q 363 712 353 634 q 363 766 366 741 q 348 810 359 791 q 316 841 336 829 q 264 854 296 853 l 116 855 l 139 987 l 270 987 q 382 965 333 985 q 464 910 431 946 q 512 824 497 875 q 522 711 528 774 q 504 633 519 668 q 467 570 490 598 q 413 518 444 541 q 345 477 382 496 q 398 438 378 462 q 428 384 418 414 q 441 321 439 355 q 440 256 443 288 l 431 182 q 438 139 430 155 q 472 116 446 123 q 516 132 497 118 q 549 166 535 145 q 572 213 563 187 q 588 266 582 239 q 599 318 595 293 q 606 362 603 343 q 618 498 616 430 q 609 633 621 566 l 760 633 q 770 498 768 565 q 762 363 772 431 q 745 276 756 321 q 716 190 734 232 q 674 110 699 148 q 617 45 650 73 q 545 1 585 17 q 454 -14 504 -15 q 373 0 408 -14 q 315 39 338 14 q 281 101 292 64 q 273 183 270 137 l 281 256 z "},"ԅ":{"ha":815,"x_min":85,"x_max":753,"o":"m 509 520 q 494 463 507 488 q 462 418 481 437 q 418 383 443 398 q 365 355 393 368 q 442 297 418 337 q 462 201 465 256 l 458 157 q 465 116 456 130 q 500 98 473 103 q 544 124 527 102 q 570 176 560 146 q 584 236 579 205 q 591 288 588 267 q 597 395 599 342 q 583 502 595 449 l 731 501 q 747 395 741 448 q 745 289 753 342 q 722 182 739 237 q 674 82 705 127 q 600 9 644 37 q 493 -19 555 -20 q 416 -11 452 -19 q 353 17 380 -2 q 311 68 326 37 q 298 146 296 100 l 304 197 q 286 258 307 238 q 225 280 264 277 l 85 281 l 106 408 l 193 407 q 244 412 218 408 q 291 428 270 416 q 328 457 313 439 q 348 505 343 476 q 345 550 352 532 q 322 580 337 568 q 287 597 308 591 q 243 603 266 602 l 89 604 l 107 734 l 249 733 q 347 720 298 732 q 432 684 395 709 q 491 618 469 659 q 509 520 513 578 z "},"Ԇ":{"ha":815,"x_min":167,"x_max":726,"o":"m 167 411 l 189 541 l 311 540 q 390 548 353 540 q 457 576 428 557 q 507 626 487 595 q 532 702 526 657 q 502 815 541 777 q 391 857 464 854 l 193 857 l 214 987 l 397 987 q 518 968 462 985 q 615 916 574 950 q 676 829 655 881 q 690 706 696 777 q 671 627 686 662 q 630 564 655 592 q 572 515 605 536 q 501 476 539 493 q 559 437 536 461 q 595 382 583 412 q 611 317 608 352 q 610 246 614 282 l 597 163 q 593 125 595 144 q 594 86 592 105 q 602 49 595 67 q 620 16 608 31 l 618 0 l 461 -1 q 442 37 448 16 q 435 79 436 57 q 435 123 433 101 q 440 165 437 144 l 452 246 q 451 308 456 279 q 432 359 446 337 q 393 395 417 381 q 332 410 368 408 l 167 411 m 703 24 q 645 -130 689 -58 q 537 -254 602 -201 l 447 -204 q 507 -98 483 -153 q 543 18 532 -44 l 568 159 l 726 159 l 703 24 z "},"ԇ":{"ha":815,"x_min":149,"x_max":696,"o":"m 149 281 l 170 401 l 312 400 q 365 405 338 400 q 414 421 392 410 q 453 453 437 433 q 473 503 469 473 q 469 549 477 530 q 446 580 462 568 q 409 598 431 592 q 363 604 387 604 l 166 605 l 186 734 l 369 733 q 469 719 420 732 q 556 680 518 707 q 615 613 593 654 q 633 513 637 572 q 618 454 631 480 q 587 408 606 429 q 543 372 568 388 q 490 343 517 356 q 535 314 517 332 q 563 273 553 296 q 575 225 572 251 q 576 171 578 199 l 568 111 q 567 59 564 85 q 587 13 569 33 l 587 0 l 429 -1 q 415 25 419 12 q 409 54 410 39 q 409 83 408 68 q 412 113 410 98 l 420 171 q 399 251 425 224 q 321 279 372 277 l 149 281 m 673 12 q 615 -141 659 -70 q 507 -266 572 -213 l 417 -216 q 477 -110 453 -164 q 513 6 502 -56 l 538 148 l 696 148 l 673 12 z "},"Ԉ":{"ha":815,"x_min":-56,"x_max":791,"o":"m 640 987 l 507 188 q 505 166 505 177 q 506 145 505 155 q 513 128 508 136 q 530 115 519 120 q 566 133 551 118 q 592 171 581 149 q 609 220 602 193 q 620 274 616 248 q 627 323 625 300 q 631 361 629 346 q 647 496 641 429 q 648 633 652 564 l 788 633 q 789 497 791 564 q 777 362 787 430 q 763 284 772 326 q 740 200 754 242 q 705 119 726 158 q 657 50 685 80 q 593 3 629 20 q 510 -14 556 -15 q 431 2 464 -14 q 379 45 399 18 q 351 109 359 72 q 346 189 342 146 l 458 855 l 367 855 l 309 521 q 292 414 302 472 q 266 297 282 355 q 227 185 250 239 q 168 89 203 131 q 84 23 132 47 q -30 0 35 -1 l -56 0 l -40 131 l -28 130 q 37 152 9 130 q 82 209 64 174 q 113 289 101 244 q 133 376 125 333 q 144 458 140 420 q 152 521 149 497 l 231 987 l 640 987 z "},"ԉ":{"ha":815,"x_min":-39,"x_max":770,"o":"m 395 602 l 306 602 l 275 422 q 261 333 269 380 q 240 238 253 286 q 207 148 227 191 q 158 71 187 104 q 89 18 129 37 q -5 0 49 -1 l -39 0 l -18 140 l -6 140 q 39 157 20 141 q 72 198 58 173 q 93 255 85 224 q 105 318 100 287 q 113 377 111 349 q 118 422 115 404 l 170 734 l 576 734 l 488 201 q 486 178 487 191 q 486 153 485 165 q 493 130 488 140 q 510 115 498 120 q 544 131 530 118 q 568 164 558 144 q 585 207 578 184 q 595 254 591 231 q 602 298 600 277 q 606 334 604 319 q 616 462 615 398 q 606 591 618 526 l 755 590 q 768 463 765 526 q 762 335 770 399 q 748 259 757 299 q 724 179 739 218 q 688 105 709 140 q 640 42 667 69 q 575 0 612 16 q 494 -14 539 -15 q 414 4 447 -14 q 361 50 380 21 q 333 118 341 79 q 329 202 326 157 l 395 602 z "},"Ԋ":{"ha":815,"x_min":-13,"x_max":781,"o":"m 627 987 l 496 198 q 494 176 495 189 q 493 152 492 164 q 499 131 494 140 q 514 116 504 121 q 549 134 534 119 q 574 172 564 149 q 592 221 585 194 q 603 274 599 248 q 610 323 607 300 q 614 361 612 347 q 626 497 624 429 q 617 633 629 565 l 768 633 q 779 497 777 565 q 771 362 781 430 q 756 283 766 326 q 733 199 747 241 q 697 118 718 157 q 647 49 676 79 q 581 2 618 20 q 497 -14 544 -16 q 415 7 448 -13 q 365 59 383 26 q 340 132 347 91 q 338 216 334 172 l 370 422 l 220 422 l 146 0 l -13 0 l 158 987 l 318 987 l 242 553 l 393 553 l 468 987 l 627 987 z "},"ԋ":{"ha":815,"x_min":-12,"x_max":759,"o":"m 328 300 l 199 300 l 147 0 l -12 0 l 116 734 l 275 734 l 222 431 l 351 431 l 404 734 l 562 734 l 473 201 q 472 175 472 189 q 475 150 472 161 q 486 129 478 138 q 508 115 494 119 q 538 132 526 118 q 559 166 551 146 q 574 210 568 186 q 583 256 580 233 q 589 300 587 279 q 593 333 591 320 q 606 461 601 397 q 605 590 610 526 l 754 590 q 758 462 759 526 q 747 334 756 398 q 734 261 743 300 q 712 182 726 221 q 678 107 698 143 q 632 44 659 71 q 570 1 605 17 q 492 -14 536 -15 q 408 3 444 -14 q 351 48 373 19 q 320 116 329 77 q 315 202 311 155 l 328 300 z "},"Ԍ":{"ha":815,"x_min":72,"x_max":762,"o":"m 371 -14 q 269 5 315 -13 q 189 52 224 22 q 131 122 155 82 q 93 208 106 162 q 76 304 79 254 q 79 405 72 355 l 106 583 q 133 689 115 637 q 177 788 151 741 q 240 874 204 835 q 319 943 275 914 q 415 987 363 971 q 527 1002 467 1003 q 649 988 590 1002 q 762 940 708 974 l 707 823 q 615 859 663 847 q 518 871 568 871 q 417 846 461 872 q 343 778 374 819 q 293 684 312 736 q 267 584 275 633 l 238 404 q 234 346 235 377 q 237 282 233 314 q 252 221 241 251 q 279 169 262 192 q 322 132 296 146 q 383 117 347 118 q 460 129 425 116 q 522 165 495 142 q 566 222 549 189 q 591 296 584 256 q 601 415 602 355 q 593 534 601 475 l 745 534 q 753 415 751 474 q 749 296 756 356 q 706 165 739 223 q 623 66 673 106 q 508 5 572 26 q 371 -14 444 -16 z "},"ԍ":{"ha":815,"x_min":81,"x_max":722,"o":"m 412 117 q 466 122 441 116 q 511 142 491 128 q 544 177 531 155 q 562 228 557 198 q 569 296 568 262 q 566 365 571 330 l 715 365 q 720 297 718 331 q 718 229 722 263 q 683 121 711 167 q 611 44 654 75 q 513 -1 568 14 q 399 -14 458 -16 q 259 16 321 -13 q 157 94 198 45 q 99 208 117 142 q 88 351 81 274 l 91 380 q 135 526 100 458 q 222 644 169 594 q 346 721 276 693 q 496 748 416 749 q 606 739 551 748 q 709 701 661 729 l 665 576 q 579 608 625 598 q 488 618 534 618 q 396 598 437 618 q 324 546 355 579 q 274 470 294 513 q 248 380 255 427 l 245 351 q 246 266 239 307 q 273 191 253 224 q 328 138 294 158 q 412 117 361 117 z "},"Ԏ":{"ha":815,"x_min":123,"x_max":778,"o":"m 343 855 l 123 855 l 146 987 l 761 987 l 737 855 l 503 855 l 400 243 q 399 204 398 225 q 406 163 399 182 q 425 131 412 144 q 461 117 437 118 q 510 127 489 115 q 547 161 531 140 q 573 209 562 182 q 592 263 585 235 q 604 317 600 291 q 612 362 609 343 q 624 498 622 430 q 616 633 627 566 l 765 633 q 776 497 774 565 q 768 362 778 430 q 750 274 762 319 q 719 186 738 229 q 675 107 701 144 q 615 43 649 70 q 539 0 581 16 q 446 -14 497 -16 q 347 6 388 -14 q 281 61 306 26 q 245 142 256 96 q 240 243 235 189 l 343 855 z "},"ԏ":{"ha":815,"x_min":78,"x_max":740,"o":"m 281 604 l 78 604 l 101 734 l 699 734 l 676 604 l 439 604 l 380 242 q 379 202 378 224 q 387 161 380 180 q 408 129 394 142 q 447 115 422 116 q 504 132 480 114 q 543 176 528 149 q 567 234 558 203 q 580 292 576 265 q 585 395 587 343 q 569 497 583 446 l 716 496 q 733 395 727 446 q 734 293 740 345 q 703 175 726 231 q 642 77 680 119 q 551 9 604 34 q 431 -14 498 -16 q 332 6 374 -14 q 264 60 290 26 q 228 140 238 94 q 222 243 217 187 l 281 604 z "},"Ԑ":{"ha":815,"x_min":28,"x_max":791,"o":"m 34 271 q 55 356 38 318 q 98 423 71 393 q 161 474 125 452 q 239 511 197 495 q 154 596 184 543 q 127 713 123 648 q 166 845 132 789 q 254 935 201 900 q 373 987 307 970 q 509 1002 439 1003 q 622 980 570 1000 q 712 925 674 960 q 770 839 749 889 q 788 725 791 788 l 629 726 q 622 782 631 756 q 597 827 614 808 q 555 858 580 846 q 498 869 530 869 q 424 862 460 871 q 358 833 388 852 q 309 783 329 813 q 284 713 289 753 q 288 650 279 677 q 315 605 296 623 q 362 578 334 587 q 425 568 391 569 l 559 568 l 537 439 l 418 439 q 338 430 376 439 q 269 401 299 421 q 219 348 239 380 q 194 271 199 316 q 203 202 190 231 q 240 154 216 174 q 296 125 264 135 q 364 115 329 116 q 434 126 401 115 q 493 158 467 137 q 536 208 519 178 q 559 273 553 237 l 718 274 q 679 149 711 203 q 597 58 646 94 q 485 3 547 21 q 354 -14 422 -16 q 230 5 290 -13 q 124 58 170 22 q 54 146 79 93 q 34 271 28 199 z "}," ":{"ha":815,"x_min":0,"x_max":0,"o":""}," ":{"ha":815,"x_min":0,"x_max":0,"o":""}," ":{"ha":815,"x_min":0,"x_max":0,"o":""}," ":{"ha":815,"x_min":0,"x_max":0,"o":""}," ":{"ha":815,"x_min":0,"x_max":0,"o":""}," ":{"ha":815,"x_min":0,"x_max":0,"o":""}," ":{"ha":815,"x_min":0,"x_max":0,"o":""}," ":{"ha":815,"x_min":0,"x_max":0,"o":""}," ":{"ha":815,"x_min":0,"x_max":0,"o":""}," ":{"ha":815,"x_min":0,"x_max":0,"o":""}," ":{"ha":815,"x_min":0,"x_max":0,"o":""},"​":{"ha":815,"x_min":0,"x_max":0,"o":""},"–":{"ha":815,"x_min":46,"x_max":803,"o":"m 772 422 l 46 422 l 77 553 l 803 553 l 772 422 z "},"—":{"ha":815,"x_min":46,"x_max":803,"o":"m 772 422 l 46 422 l 77 553 l 803 553 l 772 422 z "},"‗":{"ha":815,"x_min":-17,"x_max":640,"o":"m 588 -302 l -17 -302 l 5 -175 l 610 -175 l 588 -302 m 618 -127 l 13 -127 l 35 0 l 640 0 l 618 -127 z "},"‘":{"ha":815,"x_min":370,"x_max":623,"o":"m 388 802 q 442 949 400 880 q 545 1067 484 1017 l 623 1013 q 563 913 588 964 q 528 804 538 863 l 509 692 l 370 692 l 388 802 z "},"’":{"ha":815,"x_min":361,"x_max":613,"o":"m 595 949 q 540 801 583 869 q 436 684 498 733 l 361 738 q 421 837 396 787 q 456 947 446 888 l 475 1058 l 613 1058 l 595 949 z "},"‚":{"ha":815,"x_min":198,"x_max":456,"o":"m 436 48 q 382 -98 423 -30 q 280 -217 340 -167 l 198 -163 q 257 -64 233 -115 q 292 46 281 -13 l 313 168 l 456 168 l 436 48 z "},"‛":{"ha":815,"x_min":185,"x_max":437,"o":"m 203 949 q 258 801 216 869 q 362 684 300 733 l 437 738 q 377 837 402 787 q 342 947 353 888 l 323 1058 l 185 1058 l 203 949 z "},"“":{"ha":815,"x_min":262,"x_max":735,"o":"m 280 802 q 334 949 292 880 q 437 1067 376 1017 l 515 1013 q 455 913 480 964 q 420 804 431 863 l 401 692 l 262 692 l 280 802 m 500 802 q 554 949 513 880 q 657 1067 596 1017 l 735 1013 q 676 913 701 964 q 640 804 651 863 l 621 692 l 483 692 l 500 802 z "},"”":{"ha":815,"x_min":251,"x_max":732,"o":"m 486 949 q 430 801 473 869 q 326 684 388 733 l 251 738 q 311 837 286 787 q 346 947 336 888 l 366 1058 l 503 1058 l 486 949 m 715 949 q 660 801 702 869 q 555 684 617 733 l 480 738 q 540 837 515 787 q 575 947 565 888 l 595 1058 l 732 1058 l 715 949 z "},"„":{"ha":815,"x_min":104,"x_max":566,"o":"m 342 47 q 289 -100 330 -31 q 187 -218 248 -168 l 104 -164 q 163 -65 138 -116 q 197 45 187 -14 l 217 155 l 360 155 l 342 47 m 549 47 q 529 -29 543 8 q 494 -100 515 -66 q 448 -163 474 -134 q 392 -218 422 -193 l 309 -164 q 368 -65 343 -115 q 404 45 393 -14 l 423 155 l 566 155 l 549 47 z "},"†":{"ha":815,"x_min":103,"x_max":777,"o":"m 755 600 l 507 600 l 413 0 l 255 0 l 349 600 l 103 600 l 125 734 l 370 734 l 410 987 l 568 987 l 528 734 l 777 734 l 755 600 z "},"‡":{"ha":815,"x_min":18,"x_max":784,"o":"m 669 0 l 420 0 l 376 -282 l 218 -282 l 262 0 l 18 0 l 38 130 l 282 130 l 356 602 l 111 602 l 132 734 l 376 734 l 416 987 l 575 987 l 535 734 l 784 734 l 763 602 l 515 602 l 441 130 l 690 130 l 669 0 z "},"•":{"ha":815,"x_min":283,"x_max":578,"o":"m 286 536 q 300 595 288 568 q 333 642 313 623 q 381 672 353 661 q 442 682 409 683 q 500 670 474 682 q 543 640 526 659 q 570 593 561 620 q 578 535 578 566 l 576 496 q 561 436 573 463 q 528 391 548 410 q 479 361 507 372 q 419 351 452 351 q 362 363 387 352 q 319 393 336 374 q 292 439 301 412 q 283 496 283 465 l 286 536 z "},"‥":{"ha":815,"x_min":123,"x_max":652,"o":"m 123 93 q 132 140 123 118 q 157 177 141 161 q 194 202 172 193 q 241 212 215 212 q 286 204 265 212 q 321 181 307 196 q 344 146 336 166 q 353 101 353 125 q 343 54 353 75 q 319 18 334 33 q 281 -6 303 3 q 235 -14 260 -14 q 191 -7 211 -14 q 155 15 170 1 q 132 48 140 28 q 123 93 123 68 m 422 93 q 431 140 422 118 q 456 177 440 161 q 493 202 471 193 q 540 212 514 212 q 585 204 564 212 q 620 181 606 196 q 643 146 635 166 q 652 101 652 125 q 643 54 652 75 q 618 18 633 33 q 581 -6 602 3 q 534 -14 559 -14 q 490 -7 510 -14 q 454 15 469 1 q 431 48 439 28 q 422 93 422 68 z "},"…":{"ha":815,"x_min":68,"x_max":812,"o":"m 68 93 q 77 140 68 118 q 101 177 85 161 q 138 202 117 193 q 185 212 159 212 q 230 204 210 212 q 266 181 251 196 q 289 146 280 166 q 297 101 297 125 q 288 54 297 75 q 263 18 279 33 q 226 -6 248 3 q 179 -14 204 -14 q 135 -7 155 -14 q 100 15 115 1 q 76 48 85 28 q 68 93 68 68 m 328 93 q 336 140 328 118 q 361 177 345 161 q 398 202 376 193 q 445 212 419 212 q 490 204 469 212 q 525 181 511 196 q 548 146 540 166 q 557 101 557 125 q 548 54 557 75 q 523 18 538 33 q 486 -6 507 3 q 439 -14 464 -14 q 395 -7 415 -14 q 359 15 374 1 q 336 48 345 28 q 328 93 328 68 m 583 93 q 591 140 583 118 q 616 177 600 161 q 653 202 631 193 q 700 212 674 212 q 745 204 724 212 q 780 181 766 196 q 803 146 795 166 q 812 101 812 125 q 803 54 812 75 q 778 18 793 33 q 741 -6 762 3 q 694 -14 719 -14 q 650 -7 670 -14 q 614 15 629 1 q 591 48 600 28 q 583 93 583 68 z "},"‰":{"ha":815,"x_min":62,"x_max":751,"o":"m 174 197 q 193 273 178 237 q 232 335 208 309 q 291 378 257 362 q 368 393 326 393 q 431 381 401 393 q 482 344 460 370 q 538 379 509 366 q 604 391 568 391 q 672 374 644 390 q 719 332 701 358 q 744 273 736 307 q 749 203 751 239 l 747 177 q 729 102 744 137 q 689 41 714 67 q 631 -1 665 14 q 555 -16 597 -16 q 492 -3 522 -15 q 440 33 463 8 q 384 -1 414 11 q 319 -13 354 -14 q 252 3 280 -12 q 205 44 223 18 q 178 102 186 69 q 172 170 170 134 l 174 197 m 111 806 q 128 880 114 844 q 165 943 142 916 q 222 986 189 970 q 297 1002 255 1002 q 366 985 337 1001 q 414 943 395 969 q 440 883 432 917 q 446 812 448 849 l 445 787 q 427 713 441 749 q 388 652 412 678 q 330 611 363 626 q 254 596 296 595 q 187 612 216 597 q 141 654 159 628 q 115 712 123 680 q 109 781 107 745 l 111 806 m 110 321 l 62 387 l 669 790 l 717 724 l 110 321 m 217 781 q 217 753 216 768 q 223 724 218 737 q 239 701 229 710 q 267 692 249 692 q 297 701 285 692 q 317 724 309 710 q 329 755 325 739 q 334 787 333 772 l 336 811 q 336 840 337 824 q 330 870 335 857 q 315 894 326 884 q 287 903 305 903 q 255 894 268 903 q 235 870 243 884 q 224 838 228 855 q 218 806 220 821 l 217 781 m 520 171 q 521 142 519 158 q 527 113 522 127 q 542 91 532 100 q 570 81 552 81 q 601 90 589 81 q 622 113 614 99 q 633 144 629 127 q 637 176 636 161 l 640 202 q 639 231 640 215 q 633 260 638 247 q 618 283 628 274 q 591 293 608 293 q 560 284 572 293 q 539 260 547 275 q 527 229 531 246 q 522 197 524 212 l 520 171 m 285 171 q 286 142 284 158 q 292 113 287 127 q 307 91 297 100 q 334 81 317 81 q 366 90 353 81 q 386 113 378 99 q 397 144 393 127 q 402 176 401 161 l 404 202 q 404 231 405 215 q 398 260 403 247 q 383 283 393 274 q 355 293 373 293 q 324 284 336 293 q 303 260 311 275 q 292 229 296 246 q 287 197 288 212 l 285 171 z "},"‹":{"ha":815,"x_min":250,"x_max":602,"o":"m 385 357 l 498 94 l 398 94 l 250 358 l 251 371 l 482 636 l 602 636 l 385 357 z "},"›":{"ha":815,"x_min":196,"x_max":549,"o":"m 399 636 l 549 373 l 547 359 l 316 94 l 196 94 l 412 372 l 299 636 l 399 636 z "},"⁄":{"ha":815,"x_min":153,"x_max":676,"o":"m 233 153 l 153 203 l 595 833 l 676 783 l 233 153 z "},"⁴":{"ha":815,"x_min":196,"x_max":724,"o":"m 627 594 l 724 594 l 708 504 l 611 504 l 589 380 l 473 380 l 495 504 l 196 504 l 206 578 l 573 1002 l 697 1002 l 627 594 m 342 594 l 510 594 l 560 852 l 543 827 l 342 594 z "},"ⁿ":{"ha":815,"x_min":212,"x_max":708,"o":"m 404 985 l 406 903 q 436 939 420 922 q 471 968 452 956 q 512 987 490 981 q 559 994 534 994 q 634 976 605 994 q 681 929 664 958 q 703 863 698 900 q 704 786 708 825 l 648 442 l 518 442 l 569 753 q 571 795 571 772 q 566 836 572 817 q 547 868 560 855 q 507 882 533 881 q 449 865 473 882 q 408 821 425 848 l 342 442 l 212 442 l 307 985 l 404 985 z "},"₤":{"ha":815,"x_min":1,"x_max":808,"o":"m 528 318 l 327 319 l 321 283 q 295 201 313 239 q 248 129 278 163 l 713 131 l 690 0 l 1 0 l 24 130 l 71 130 q 108 154 93 138 q 134 191 123 170 q 150 234 144 211 q 160 279 156 257 l 167 319 l 54 318 l 71 414 l 177 414 l 189 497 l 85 497 l 102 593 l 202 593 l 216 705 q 253 827 224 772 q 327 921 282 882 q 430 981 372 960 q 557 1001 489 1002 q 665 980 618 1000 q 745 924 713 960 q 792 839 777 888 q 805 730 808 790 l 649 730 q 645 785 650 760 q 626 829 640 810 q 589 859 612 848 q 535 871 567 869 q 472 858 500 871 q 424 821 444 844 q 391 767 404 798 q 374 706 378 737 l 361 593 l 576 593 l 559 497 l 348 497 l 336 414 l 545 414 l 528 318 z "},"₧":{"ha":815,"x_min":10,"x_max":836,"o":"m 819 632 l 704 632 l 631 201 q 629 172 630 189 q 631 140 628 155 q 642 113 633 124 q 669 102 651 102 q 694 104 682 102 q 718 110 706 107 l 728 14 q 682 -8 708 -2 q 631 -14 656 -14 q 560 8 587 -13 q 518 60 532 28 q 501 130 504 92 q 501 203 498 168 l 572 632 l 524 632 q 486 536 509 582 q 431 456 463 490 q 354 401 398 421 q 252 380 310 380 l 212 381 l 142 0 l 10 0 l 181 987 l 340 986 q 429 962 392 984 q 490 905 467 940 q 522 825 513 869 q 529 733 532 780 l 589 734 l 620 910 l 753 910 l 722 734 l 836 734 l 819 632 m 224 488 l 258 488 q 320 509 295 488 q 360 559 345 529 q 385 623 376 589 q 396 688 393 658 q 399 719 397 701 q 401 759 401 738 q 398 800 401 779 q 388 837 395 820 q 369 865 381 854 q 337 878 357 876 l 298 880 l 224 488 z "},"€":{"ha":815,"x_min":73,"x_max":819,"o":"m 585 359 l 349 359 q 349 270 344 313 q 372 193 353 227 q 425 140 391 160 q 512 118 459 119 q 584 123 549 117 q 653 140 618 129 l 659 6 q 578 -8 618 -3 q 496 -13 538 -14 q 354 18 416 -12 q 253 97 292 47 q 198 214 214 146 q 193 360 182 281 l 73 359 l 90 453 l 203 453 l 219 541 l 105 541 l 121 634 l 231 634 q 287 783 250 715 q 376 900 323 851 q 500 976 430 949 q 659 1002 570 1002 q 739 995 699 1001 q 819 979 779 989 l 787 847 q 722 865 755 859 q 654 871 689 871 q 555 854 598 872 q 479 804 511 836 q 425 728 447 772 q 390 634 404 684 l 632 634 l 616 541 l 378 541 l 363 453 l 601 453 l 585 359 z "},"℅":{"ha":815,"x_min":100,"x_max":747,"o":"m 444 720 q 427 649 441 682 q 388 592 412 616 q 331 554 364 568 q 258 542 298 541 q 186 560 216 543 q 136 606 155 578 q 108 671 117 635 q 102 745 100 707 l 107 798 q 126 876 111 838 q 166 941 142 913 q 226 986 191 970 q 305 1002 261 1003 q 375 987 345 1001 q 426 949 406 973 q 457 892 447 925 q 467 823 468 860 l 356 823 q 355 851 357 837 q 347 878 353 866 q 330 898 341 890 q 302 905 319 905 q 267 895 281 905 q 242 868 252 884 q 227 833 233 852 q 219 798 221 814 l 213 745 q 212 713 212 731 q 217 679 212 695 q 232 651 222 663 q 261 640 242 640 q 291 647 278 640 q 312 665 303 654 q 327 690 321 676 q 336 719 332 705 l 444 720 m 391 241 q 410 319 395 281 q 450 385 425 357 q 509 430 475 414 q 588 446 544 447 q 661 427 630 445 q 711 381 692 410 q 739 316 730 353 q 744 242 747 280 l 739 189 q 720 112 735 149 q 681 46 705 75 q 621 1 656 18 q 542 -15 586 -16 q 469 4 500 -14 q 419 50 438 22 q 391 115 399 79 q 386 189 383 151 l 391 241 m 497 188 q 497 156 496 174 q 503 122 498 138 q 518 94 508 106 q 548 82 529 83 q 583 92 569 81 q 607 119 597 102 q 621 154 616 135 q 627 189 625 172 l 633 243 q 633 275 633 256 q 628 309 633 293 q 612 337 623 326 q 582 349 601 349 q 547 339 562 350 q 524 312 533 328 q 509 277 514 296 q 502 242 504 258 l 497 188 m 253 153 l 172 203 l 614 833 l 696 783 l 253 153 z "},"ℓ":{"ha":815,"x_min":106,"x_max":745,"o":"m 500 -15 q 379 10 433 -12 q 289 72 326 33 q 238 166 253 111 q 235 291 223 222 l 237 300 q 172 291 205 294 q 106 287 140 288 l 121 414 q 186 417 154 415 q 252 425 219 420 l 300 704 q 328 810 308 759 q 380 901 347 862 q 460 963 413 941 q 569 984 507 986 q 650 964 616 983 q 705 915 684 945 q 736 845 727 884 q 743 762 745 806 l 739 733 q 701 610 732 667 q 622 504 669 552 q 520 418 576 456 q 408 355 464 380 l 400 309 q 396 239 394 271 q 410 185 397 208 q 448 148 423 161 q 514 131 473 134 l 500 -15 m 424 492 q 483 540 455 514 q 532 595 511 566 q 568 660 554 625 q 588 732 583 694 l 592 762 q 593 788 593 773 q 590 815 593 802 q 579 839 587 829 q 556 850 571 848 q 514 838 531 852 q 487 804 498 825 q 471 761 477 784 q 463 719 466 737 l 424 492 z "},"№":{"ha":815,"x_min":7,"x_max":831,"o":"m 422 0 l 297 0 l 237 594 l 134 0 l 7 0 l 178 987 l 304 987 l 364 396 l 467 987 l 594 987 l 422 0 m 621 873 q 631 920 623 897 q 654 960 640 942 q 688 988 668 977 q 735 999 709 999 q 781 988 762 999 q 811 960 800 977 q 827 919 823 942 q 830 873 831 897 l 814 728 q 803 682 812 705 q 781 642 795 659 q 746 614 766 625 q 699 604 726 604 q 654 614 673 604 q 625 643 636 625 q 608 683 613 661 q 605 728 604 705 l 621 873 m 677 734 q 676 715 677 726 q 676 695 675 705 q 684 678 678 685 q 701 671 689 671 q 721 677 713 671 q 733 693 728 684 q 739 714 737 703 q 743 734 741 725 l 758 867 q 760 886 759 876 q 759 907 761 897 q 752 924 758 917 q 734 931 747 931 q 715 924 722 931 q 703 908 707 918 q 696 887 699 899 q 693 867 694 876 l 677 734 m 768 498 l 567 498 l 578 564 l 780 564 l 768 498 z "},"™":{"ha":815,"x_min":160,"x_max":831,"o":"m 736 864 l 614 621 l 574 621 l 534 873 l 490 621 l 416 621 l 480 987 l 569 987 l 609 730 l 741 987 l 831 987 l 767 621 l 693 621 l 736 864 m 421 924 l 331 924 l 278 623 l 200 623 l 252 924 l 160 924 l 172 987 l 433 987 l 421 924 z "},"℮":{"ha":815,"x_min":87,"x_max":770,"o":"m 635 63 q 513 6 578 27 q 381 -13 449 -14 q 290 4 332 -12 q 214 45 248 19 q 155 107 180 72 q 115 184 130 143 q 93 270 99 225 q 92 361 87 315 q 114 457 97 410 q 159 549 132 505 q 223 629 186 592 q 302 693 259 666 q 393 734 345 720 q 492 747 441 749 q 619 713 566 745 q 707 629 673 681 q 755 513 741 578 q 765 382 770 448 l 762 349 l 254 349 l 214 125 q 287 72 246 90 q 375 52 328 54 q 444 57 410 51 q 511 74 478 63 q 574 101 543 85 q 636 134 606 116 l 635 63 m 497 684 q 443 678 469 684 q 392 660 416 671 q 344 634 367 649 q 300 602 321 618 l 265 413 l 620 413 l 655 608 q 584 663 625 643 q 497 684 544 683 z "},"⅛":{"ha":815,"x_min":138,"x_max":799,"o":"m 312 505 l 202 505 l 263 851 l 138 822 l 154 915 l 377 985 l 391 985 l 312 505 m 245 153 l 164 203 l 606 833 l 688 783 l 245 153 m 796 357 q 788 320 795 336 q 770 290 781 303 q 744 265 759 276 q 712 244 729 253 q 758 199 742 226 q 773 137 774 172 q 754 71 771 99 q 709 26 737 43 q 649 0 682 9 q 581 -7 615 -8 q 519 1 550 -7 q 465 25 489 9 q 427 66 441 41 q 415 128 413 92 q 424 169 416 150 q 445 202 432 187 q 475 229 458 217 q 511 250 492 240 q 473 292 486 267 q 461 347 460 317 q 478 411 462 384 q 519 455 494 438 q 576 481 544 472 q 640 489 607 490 q 699 480 670 488 q 750 457 727 472 q 785 416 772 441 q 796 357 798 391 m 664 146 q 662 170 666 160 q 649 187 657 180 q 629 197 641 193 q 605 200 618 200 q 577 196 591 200 q 552 185 563 192 q 534 165 541 177 q 524 139 526 154 q 526 114 522 125 q 539 97 530 104 q 558 86 547 90 q 583 83 570 83 q 611 87 597 83 q 636 99 624 92 q 655 119 647 107 q 664 146 662 131 m 687 348 q 677 385 691 372 q 639 398 662 398 q 594 383 613 398 q 571 342 574 368 q 582 305 568 318 q 619 291 596 291 q 664 307 644 291 q 687 348 684 322 z "},"⅜":{"ha":815,"x_min":73,"x_max":798,"o":"m 221 790 l 271 790 q 301 794 286 790 q 328 806 316 798 q 349 825 341 814 q 360 854 357 837 q 358 877 361 867 q 346 892 354 886 q 327 901 338 898 q 305 904 316 904 q 259 894 279 905 q 231 859 239 883 l 118 858 q 139 920 122 893 q 180 963 155 946 q 237 987 206 980 q 302 995 269 995 q 364 987 333 995 q 419 964 395 980 q 458 922 443 948 q 471 861 472 897 q 461 822 469 839 q 439 792 453 805 q 409 768 426 778 q 374 749 392 757 q 427 710 410 737 q 444 646 445 683 q 424 578 443 606 q 375 532 405 550 q 311 507 346 514 q 241 499 275 499 q 176 509 207 500 q 123 536 146 518 q 87 582 100 555 q 73 646 73 610 l 181 646 q 201 603 183 616 q 248 590 220 590 q 278 594 263 590 q 305 605 293 597 q 326 625 317 613 q 336 653 334 637 q 334 681 339 670 q 320 698 329 692 q 297 708 310 705 q 269 711 284 710 l 214 712 l 221 790 m 253 147 l 172 197 l 614 827 l 696 777 l 253 147 m 796 357 q 788 320 795 336 q 769 290 781 303 q 743 265 758 276 q 712 244 729 253 q 757 199 741 226 q 772 137 773 172 q 753 71 771 99 q 709 26 736 43 q 648 0 682 9 q 580 -7 614 -8 q 519 1 549 -7 q 464 25 488 9 q 427 66 441 41 q 414 128 412 92 q 423 169 415 150 q 444 202 431 187 q 474 229 457 217 q 511 250 491 240 q 472 292 486 267 q 460 347 459 317 q 477 411 461 384 q 518 455 493 438 q 575 481 543 472 q 640 489 607 490 q 698 480 669 488 q 749 457 727 472 q 784 416 771 441 q 796 357 798 391 m 663 146 q 661 170 665 160 q 648 187 657 180 q 629 197 640 193 q 604 200 617 200 q 576 196 590 200 q 552 185 563 192 q 533 165 541 177 q 524 139 525 154 q 526 114 522 125 q 538 97 530 104 q 558 86 546 90 q 582 83 569 83 q 610 87 596 83 q 635 99 624 92 q 654 119 646 107 q 663 146 661 131 m 687 348 q 676 385 690 372 q 638 398 661 398 q 593 383 613 398 q 570 342 574 368 q 581 305 567 318 q 618 291 595 291 q 663 307 644 291 q 687 348 683 322 z "},"⅝":{"ha":815,"x_min":66,"x_max":781,"o":"m 95 744 l 168 990 l 461 990 l 445 899 l 245 899 l 212 807 q 287 823 248 823 q 349 813 321 824 q 394 782 376 802 q 422 734 413 763 q 430 672 431 706 q 412 600 428 633 q 369 546 396 568 q 308 512 343 524 q 235 501 274 501 q 173 511 203 502 q 120 539 143 521 q 82 583 97 557 q 66 644 68 609 l 174 643 q 192 603 176 614 q 237 592 209 592 q 296 616 274 593 q 322 673 318 639 q 309 725 326 706 q 259 745 292 744 q 221 739 238 745 q 187 721 204 733 l 95 744 m 243 153 l 162 203 l 604 833 l 686 783 l 243 153 m 778 357 q 770 320 777 336 q 752 290 763 303 q 726 265 740 276 q 694 244 711 253 q 739 199 723 226 q 754 137 756 172 q 736 71 753 99 q 691 26 718 43 q 630 0 664 9 q 563 -7 597 -8 q 501 1 532 -7 q 447 25 471 9 q 409 66 423 41 q 397 128 395 92 q 406 169 397 150 q 427 202 414 187 q 456 229 439 217 q 493 250 474 240 q 455 292 468 267 q 442 347 441 317 q 460 411 444 384 q 500 455 475 438 q 557 481 525 472 q 622 489 589 490 q 680 480 652 488 q 731 457 709 472 q 767 416 754 441 q 778 357 780 391 m 646 146 q 643 170 648 160 q 631 187 639 180 q 611 197 623 193 q 586 200 599 200 q 559 196 572 200 q 534 185 545 192 q 515 165 523 177 q 506 139 508 154 q 508 114 504 125 q 520 97 512 104 q 540 86 529 90 q 565 83 552 83 q 592 87 579 83 q 617 99 606 92 q 636 119 629 107 q 646 146 644 131 m 669 348 q 658 385 673 372 q 621 398 644 398 q 576 383 595 398 q 552 342 556 368 q 563 305 549 318 q 601 291 577 291 q 646 307 626 291 q 669 348 665 322 z "},"⅞":{"ha":815,"x_min":123,"x_max":787,"o":"m 515 918 l 246 507 l 123 507 l 392 897 l 137 897 l 153 988 l 527 988 l 515 918 m 218 153 l 138 203 l 580 833 l 661 783 l 218 153 m 785 357 q 777 320 784 336 q 758 290 770 303 q 732 265 747 276 q 701 244 718 253 q 746 199 730 226 q 761 137 762 172 q 743 71 760 99 q 698 26 725 43 q 637 0 671 9 q 569 -7 604 -8 q 508 1 538 -7 q 453 25 477 9 q 416 66 430 41 q 403 128 402 92 q 412 169 404 150 q 433 202 421 187 q 463 229 446 217 q 500 250 480 240 q 461 292 475 267 q 449 347 448 317 q 466 411 450 384 q 507 455 482 438 q 564 481 532 472 q 629 489 596 490 q 687 480 659 488 q 738 457 716 472 q 774 416 761 441 q 785 357 787 391 m 652 146 q 650 170 654 160 q 638 187 646 180 q 618 197 629 193 q 593 200 606 200 q 565 196 579 200 q 541 185 552 192 q 522 165 530 177 q 513 139 515 154 q 515 114 511 125 q 527 97 519 104 q 547 86 535 90 q 571 83 558 83 q 599 87 585 83 q 624 99 613 92 q 643 119 635 107 q 652 146 651 131 m 676 348 q 665 385 679 372 q 627 398 651 398 q 582 383 602 398 q 559 342 563 368 q 570 305 556 318 q 607 291 584 291 q 652 307 633 291 q 676 348 672 322 z "},"∂":{"ha":815,"x_min":60,"x_max":754,"o":"m 427 697 q 528 673 481 696 q 610 610 574 651 q 610 671 612 640 q 600 735 608 703 q 580 795 593 766 q 547 847 567 825 q 500 883 528 869 q 437 898 473 897 q 345 890 390 900 q 256 865 300 880 l 250 989 q 458 1033 350 1035 q 584 1006 532 1032 q 669 936 635 979 q 722 835 703 892 q 747 717 740 779 q 752 592 754 655 q 742 474 749 530 l 736 434 q 713 329 728 382 q 674 224 698 275 q 618 130 650 174 q 545 54 587 86 q 453 3 504 21 q 342 -14 402 -16 q 210 18 265 -12 q 121 97 155 47 q 73 210 87 146 q 67 344 60 274 l 69 359 q 106 492 77 430 q 181 601 135 555 q 289 673 227 648 q 427 697 351 699 m 433 568 q 351 551 387 569 q 289 504 315 534 q 248 435 263 474 q 227 354 232 395 l 225 340 q 223 264 221 303 q 239 192 226 224 q 280 138 253 159 q 353 115 307 117 q 419 125 390 113 q 470 158 448 137 q 510 206 493 178 q 538 265 526 234 q 558 328 550 296 q 570 389 566 360 l 579 450 q 562 499 574 477 q 529 536 549 521 q 486 559 510 551 q 433 568 461 567 z "},"∏":{"ha":815,"x_min":16,"x_max":792,"o":"m 614 -154 l 454 -154 l 613 859 l 333 859 l 175 -154 l 16 -154 l 195 987 l 792 987 l 614 -154 z "},"∑":{"ha":815,"x_min":-74,"x_max":848,"o":"m 583 393 l 160 -52 l 707 -52 l 684 -182 l -74 -182 l -56 -74 l 419 410 l 111 891 l 129 987 l 848 987 l 825 857 l 307 857 l 585 413 l 583 393 z "},"−":{"ha":815,"x_min":106,"x_max":688,"o":"m 665 422 l 106 422 l 130 553 l 688 553 l 665 422 z "},"√":{"ha":815,"x_min":24,"x_max":863,"o":"m 325 222 l 326 168 l 353 231 l 715 987 l 863 987 l 366 0 l 239 0 l 163 394 l 24 394 l 47 526 l 276 526 l 325 222 z "},"∞":{"ha":815,"x_min":35,"x_max":795,"o":"m 791 407 q 771 317 787 361 q 728 239 755 273 q 660 185 700 205 q 569 167 621 165 q 512 180 538 168 q 465 212 486 192 q 429 257 444 232 q 405 311 414 283 q 367 258 387 284 q 321 212 346 233 q 268 178 297 191 q 204 166 239 165 q 122 188 155 167 q 69 241 89 208 q 42 316 50 275 q 38 400 35 358 l 40 427 q 60 517 44 473 q 103 594 76 560 q 170 647 130 627 q 260 665 209 667 q 317 651 291 663 q 364 620 343 640 q 400 575 385 601 q 425 523 415 550 q 464 575 443 549 q 509 621 484 600 q 563 653 534 641 q 627 665 592 666 q 708 644 675 665 q 761 591 741 624 q 788 517 781 558 q 793 434 795 475 l 791 407 m 148 397 q 147 355 146 377 q 154 315 148 333 q 175 284 161 296 q 216 273 190 273 q 262 288 239 274 q 304 322 285 302 q 337 367 323 343 q 357 412 351 391 l 359 427 q 351 468 359 446 q 329 509 343 490 q 296 541 315 528 q 257 555 277 554 q 210 544 229 556 q 178 513 191 532 q 159 471 165 494 q 150 424 153 447 l 148 397 m 682 434 q 682 475 683 453 q 675 515 682 496 q 654 546 668 534 q 614 557 640 557 q 569 544 591 557 q 527 511 546 531 q 493 468 507 491 q 473 423 479 444 l 471 409 q 478 367 471 389 q 500 324 486 344 q 532 291 514 304 q 572 276 551 277 q 620 286 600 275 q 651 317 639 298 q 670 360 664 336 q 679 407 677 384 l 682 434 z "},"∫":{"ha":815,"x_min":53,"x_max":754,"o":"m 403 -41 q 376 -144 396 -97 q 323 -225 356 -191 q 244 -279 290 -260 q 140 -298 199 -298 q 96 -294 117 -298 q 53 -285 75 -291 l 74 -157 q 108 -166 90 -163 q 142 -168 125 -169 q 186 -156 168 -168 q 216 -126 204 -144 q 234 -85 228 -108 q 244 -41 241 -63 l 374 819 q 402 924 381 877 q 459 1005 424 971 q 542 1056 494 1038 q 650 1074 590 1074 q 702 1068 676 1073 q 754 1058 728 1063 l 726 935 q 696 941 711 939 q 665 943 681 943 q 614 934 637 943 q 575 908 591 925 q 548 869 558 892 q 533 819 537 846 l 403 -41 l 403 -41 z "},"≈":{"ha":815,"x_min":62,"x_max":762,"o":"m 127 597 q 160 635 142 617 q 199 667 178 653 q 244 688 220 680 q 294 696 268 696 q 336 693 316 696 q 374 682 355 689 q 411 666 393 675 q 448 646 429 656 q 514 612 481 626 q 588 597 548 597 q 639 606 615 597 q 685 628 663 614 q 725 660 706 642 q 762 696 744 678 l 753 564 q 721 527 739 545 q 683 495 703 509 q 640 473 663 481 q 591 465 617 465 q 516 479 551 465 q 448 513 482 494 q 375 549 411 534 q 296 564 340 564 q 245 556 269 564 q 198 533 220 547 q 157 502 176 519 q 120 465 138 484 l 127 597 m 68 304 q 101 343 83 325 q 140 374 119 361 q 184 396 160 388 q 234 405 208 405 q 275 401 256 406 q 314 391 295 397 q 351 374 333 384 q 388 354 369 365 q 455 320 422 334 q 529 307 489 307 q 580 315 556 307 q 626 337 604 323 q 667 369 648 351 q 704 405 686 387 l 696 273 q 663 235 680 253 q 625 203 645 217 q 581 181 604 189 q 532 174 558 174 q 457 188 491 174 q 389 222 423 202 q 317 258 352 243 q 238 273 281 273 q 186 264 211 273 q 140 242 162 256 q 99 210 119 228 q 62 174 80 193 l 68 304 z "}}}
